<svg width="1440" height="946" viewBox="0 0 1440 946" fill="none" xmlns="http://www.w3.org/2000/svg">
<path d="M132.036 871.22C132.036 873.936 134.416 875.336 136.796 875.336C139.064 875.336 140.828 873.88 141.556 872.172H141.612C141.612 872.172 141.528 872.648 141.528 873.348V875H143.348V865.984C143.348 862.456 141.472 860.58 138.084 860.58C136.208 860.58 134.22 861.224 133.1 862.176L133.968 863.632C135.116 862.792 136.544 862.288 137.972 862.288C139.96 862.288 141.444 863.212 141.444 865.928V866.32H140.604C137.916 866.32 132.036 866.6 132.036 871.22ZM133.968 871.052C133.968 867.916 138.448 867.832 140.632 867.832H141.444V868.476C141.444 870.94 139.848 873.74 137.132 873.74C135.032 873.74 133.968 872.368 133.968 871.052ZM147.733 875H149.637V868.616H157.869V875H159.773V860.916H157.869V866.936H149.637V860.916H147.733V875ZM163.071 871.22C163.071 873.936 165.451 875.336 167.831 875.336C170.099 875.336 171.863 873.88 172.591 872.172H172.647C172.647 872.172 172.563 872.648 172.563 873.348V875H174.383V865.984C174.383 862.456 172.507 860.58 169.119 860.58C167.243 860.58 165.255 861.224 164.135 862.176L165.003 863.632C166.151 862.792 167.579 862.288 169.007 862.288C170.995 862.288 172.479 863.212 172.479 865.928V866.32H171.639C168.951 866.32 163.071 866.6 163.071 871.22ZM165.003 871.052C165.003 867.916 169.483 867.832 171.667 867.832H172.479V868.476C172.479 870.94 170.883 873.74 168.167 873.74C166.067 873.74 165.003 872.368 165.003 871.052ZM182.022 875H183.926V862.596H189.078V860.916H176.898V862.596H182.022V875ZM190.449 867.888C190.449 872.144 193.753 875.336 197.869 875.336C201.985 875.336 205.317 872.144 205.317 867.888C205.317 863.716 201.985 860.58 197.869 860.58C193.753 860.58 190.449 863.716 190.449 867.888ZM192.409 867.888C192.409 864.696 194.845 862.288 197.869 862.288C200.893 862.288 203.357 864.696 203.357 867.888C203.357 871.192 200.893 873.6 197.869 873.6C194.845 873.6 192.409 871.192 192.409 867.888ZM208.341 875H210.189L210.889 865.9C210.945 865.144 210.889 863.464 210.889 863.464H210.945C210.945 863.464 211.337 864.472 211.869 865.564L215.761 873.376H217.497L221.417 865.508C222.005 864.36 222.313 863.464 222.313 863.464H222.369C222.369 863.464 222.341 865.144 222.369 865.9L223.069 875H224.945L223.769 860.916H221.781L217.525 869.596C217.105 870.492 216.657 871.584 216.657 871.584H216.601C216.601 871.584 216.125 870.464 215.733 869.596L211.505 860.916H209.489L208.341 875ZM228.944 875H230.764L237.68 865.732C238.212 864.948 239.08 863.828 239.108 863.688H239.164C239.164 863.8 239.08 864.92 239.08 865.732V875H240.956V860.916H239.136L232.22 870.156C231.66 870.94 230.82 872.144 230.764 872.256H230.708C230.736 872.2 230.792 871.024 230.792 870.156V860.916H228.944V875ZM244.059 875H246.271L249.967 869.596H252.879V875H254.783V860.916H249.827C246.915 860.916 244.843 862.372 244.843 865.2C244.843 867.496 246.439 868.924 248.091 869.26V869.316C248.091 869.316 247.727 869.708 247.447 870.156L244.059 875ZM250.051 868.112C248.231 868.112 246.803 867.104 246.803 865.2C246.803 863.184 248.091 862.372 250.191 862.372H252.879V868.112H250.051ZM266.35 875H283.962V860.916H282.114V873.32H276.094V860.916H274.246V873.32H268.198V860.916H266.35V875ZM288.498 880.6H290.402V873.768C290.402 873.04 290.318 872.536 290.318 872.536H290.374C291.298 874.3 293.034 875.336 295.022 875.336C298.69 875.336 301.322 872.424 301.322 867.944C301.322 863.604 298.998 860.58 295.19 860.58C293.006 860.58 291.158 861.672 290.29 863.492H290.234C290.234 863.492 290.318 863.016 290.318 862.4V860.916H288.498V880.6ZM290.346 868C290.346 863.996 292.558 862.316 294.91 862.316C297.542 862.316 299.39 864.528 299.39 867.972C299.39 871.556 297.318 873.628 294.826 873.628C291.942 873.628 290.346 870.828 290.346 868ZM304.987 875H306.807L313.723 865.732C314.255 864.948 315.123 863.828 315.151 863.688H315.207C315.207 863.8 315.123 864.92 315.123 865.732V875H316.999V860.916H315.179L308.263 870.156C307.703 870.94 306.863 872.144 306.807 872.256H306.751C306.779 872.2 306.835 871.024 306.835 870.156V860.916H304.987V875ZM320.606 867.888C320.606 872.256 323.798 875.112 328.194 875.308V880.6H330.042V875.308C334.438 875.112 337.63 872.256 337.63 867.888C337.63 863.604 334.438 860.804 330.042 860.608V855.4H328.194V860.608C323.798 860.804 320.606 863.604 320.606 867.888ZM330.042 873.656V862.288C333.374 862.456 335.698 864.528 335.698 867.888C335.698 871.304 333.374 873.46 330.042 873.656ZM322.538 867.888C322.538 864.528 324.862 862.456 328.194 862.288V873.656C324.862 873.46 322.538 871.304 322.538 867.888ZM344.143 875H346.047V862.596H351.199V860.916H339.019V862.596H344.143V875ZM352.755 871.22C352.755 873.936 355.135 875.336 357.515 875.336C359.783 875.336 361.547 873.88 362.275 872.172H362.331C362.331 872.172 362.247 872.648 362.247 873.348V875H364.067V865.984C364.067 862.456 362.191 860.58 358.803 860.58C356.927 860.58 354.939 861.224 353.819 862.176L354.687 863.632C355.835 862.792 357.263 862.288 358.691 862.288C360.679 862.288 362.163 863.212 362.163 865.928V866.32H361.323C358.635 866.32 352.755 866.6 352.755 871.22ZM354.687 871.052C354.687 867.916 359.167 867.832 361.351 867.832H362.163V868.476C362.163 870.94 360.567 873.74 357.851 873.74C355.751 873.74 354.687 872.368 354.687 871.052Z" fill="#E3FF34"/>
<rect x="-51.5" y="2.5" width="1544" height="941" fill="#D8D8D8" stroke="black" stroke-width="5"/>
<rect x="409.5" y="422.5" width="621" height="521" fill="#E3FF34" stroke="black" stroke-width="5"/>
<rect x="409.5" y="81.5" width="621" height="259" fill="#E3FF34" stroke="black" stroke-width="5"/>
<rect x="688.5" y="725.5" width="342" height="218" fill="#E3FF34" stroke="black" stroke-width="5"/>
<rect x="555.5" y="492.5" width="158" height="451" fill="#E3FF34" stroke="black" stroke-width="5"/>
<rect x="409.5" y="421.5" width="621" height="103" fill="black" stroke="black" stroke-width="5"/>
<rect x="-310.5" y="81.5" width="621" height="259" fill="#E3FF34" stroke="black" stroke-width="5"/>
<rect x="1129.5" y="81.5" width="621" height="259" fill="#E3FF34" stroke="black" stroke-width="5"/>
<rect x="-310.5" y="422.5" width="621" height="521" fill="#E3FF34" stroke="black" stroke-width="5"/>
<rect x="1129.5" y="422.5" width="621" height="521" fill="#E3FF34" stroke="black" stroke-width="5"/>
<rect x="1129.5" y="421.5" width="621" height="103" fill="black" stroke="black" stroke-width="5"/>
<rect x="-310.5" y="419.5" width="621" height="105" fill="black" stroke="black" stroke-width="5"/>
<path d="M877.461 910.916C877.461 915.172 880.569 918.336 885.049 918.336C887.261 918.336 889.417 917.44 890.705 916.068L889.613 914.08C888.521 915.228 886.813 915.984 885.245 915.984C882.305 915.984 880.233 913.772 880.233 910.888C880.233 908.004 882.305 905.848 885.161 905.848C886.645 905.848 888.129 906.52 889.081 907.472L890.369 905.568C889.025 904.14 886.925 903.496 885.049 903.496C880.597 903.496 877.461 906.716 877.461 910.916ZM893.643 918H896.247L902.379 909.544C902.827 908.872 903.527 907.92 903.611 907.668H903.667C903.667 907.892 903.583 908.872 903.583 909.544V918H906.215V903.832H903.583L897.479 912.288C897.003 912.96 896.331 913.94 896.219 914.192H896.163C896.191 914.052 896.247 913.044 896.247 912.288V903.832H893.643V918ZM909.789 918H912.421L913.037 909.572C913.093 908.732 913.009 907.136 913.009 907.136H913.065C913.065 907.136 913.513 908.2 913.961 909.236L917.321 916.292H919.645L923.005 909.208C923.537 908.116 923.901 907.136 923.901 907.136H923.957C923.957 907.136 923.901 908.732 923.929 909.572L924.545 918H927.177L925.945 903.832H922.977L919.281 911.84C918.917 912.708 918.497 913.744 918.497 913.744H918.441C918.441 913.744 918.049 912.68 917.657 911.84L914.045 903.832H911.021L909.789 918ZM930.83 918H936.878C939.958 918 942.086 916.6 942.086 913.968C942.086 912.4 941.162 911.028 939.398 910.608V910.58C940.686 910.02 941.414 908.844 941.414 907.472C941.414 905.092 939.538 903.832 936.682 903.832H930.83V918ZM933.546 909.824V905.708H936.122C937.83 905.708 938.642 906.38 938.642 907.668C938.642 908.984 937.83 909.824 936.206 909.824H933.546ZM933.546 916.096V911.644H936.43C938.306 911.644 939.342 912.484 939.342 913.884C939.342 915.2 938.418 916.096 936.458 916.096H933.546ZM944.453 910.888C944.453 915.2 947.869 918.336 952.097 918.336C956.297 918.336 959.713 915.2 959.713 910.888C959.713 906.604 956.297 903.496 952.069 903.496C947.869 903.496 944.453 906.604 944.453 910.888ZM947.225 910.888C947.225 907.948 949.409 905.848 952.097 905.848C954.757 905.848 956.969 907.948 956.969 910.888C956.969 913.856 954.757 915.984 952.097 915.984C949.409 915.984 947.225 913.856 947.225 910.888ZM961.064 918.14C965.236 917.916 966.86 914.612 966.86 908.2V906.072H971.032V918H973.748V903.832H964.256V908.2C964.256 913.324 963.136 915.396 961.064 915.704V918.14ZM977.02 910.888C977.02 915.2 980.436 918.336 984.664 918.336C988.864 918.336 992.28 915.2 992.28 910.888C992.28 906.604 988.864 903.496 984.636 903.496C980.436 903.496 977.02 906.604 977.02 910.888ZM979.792 910.888C979.792 907.948 981.976 905.848 984.664 905.848C987.324 905.848 989.536 907.948 989.536 910.888C989.536 913.856 987.324 915.984 984.664 915.984C981.976 915.984 979.792 913.856 979.792 910.888ZM995.553 918H1001.6C1004.68 918 1006.81 916.6 1006.81 913.968C1006.81 912.4 1005.89 911.028 1004.12 910.608V910.58C1005.41 910.02 1006.14 908.844 1006.14 907.472C1006.14 905.092 1004.26 903.832 1001.41 903.832H995.553V918ZM998.269 909.824V905.708H1000.85C1002.55 905.708 1003.37 906.38 1003.37 907.668C1003.37 908.984 1002.55 909.824 1000.93 909.824H998.269ZM998.269 916.096V911.644H1001.15C1003.03 911.644 1004.07 912.484 1004.07 913.884C1004.07 915.2 1003.14 916.096 1001.18 916.096H998.269Z" fill="black"/>
<path d="M960.924 769H972.32V766.592H967.98V749.232H965.516L960.784 753.824L962.464 755.56L964.312 753.768C965.04 753.04 965.264 752.62 965.264 752.62H965.32C965.32 752.62 965.292 753.208 965.292 753.824V766.592H960.924V769ZM981.872 769.336C987.164 769.336 988.872 764.8 988.872 759.088C988.872 753.404 987.164 748.896 981.872 748.896C976.608 748.896 974.872 753.404 974.872 759.088C974.872 764.8 976.608 769.336 981.872 769.336ZM981.872 766.788C978.652 766.788 977.728 763.428 977.728 759.088C977.728 754.804 978.652 751.444 981.872 751.444C985.12 751.444 986.016 754.804 986.016 759.088C986.016 763.428 985.12 766.788 981.872 766.788ZM999.29 769.336C1004.58 769.336 1006.29 764.8 1006.29 759.088C1006.29 753.404 1004.58 748.896 999.29 748.896C994.026 748.896 992.29 753.404 992.29 759.088C992.29 764.8 994.026 769.336 999.29 769.336ZM999.29 766.788C996.07 766.788 995.146 763.428 995.146 759.088C995.146 754.804 996.07 751.444 999.29 751.444C1002.54 751.444 1003.43 754.804 1003.43 759.088C1003.43 763.428 1002.54 766.788 999.29 766.788Z" fill="black"/>
<path d="M929.339 558.852C929.339 563.752 931.495 567.336 936.283 567.336C940.287 567.336 942.975 564.536 942.975 560.616C942.975 556.612 940.511 554.092 936.955 554.092C935.079 554.092 933.203 554.708 931.943 556.612H931.887C932.083 553.896 933.427 552.244 936.255 550.956L941.687 548.688L940.791 546.448L935.723 548.632C930.795 550.704 929.339 553.784 929.339 558.852ZM932.167 560.616C932.167 558.124 933.875 556.248 936.283 556.248C938.411 556.248 940.231 557.9 940.231 560.672C940.231 563.416 938.411 565.04 936.171 565.04C933.987 565.04 932.167 563.416 932.167 560.616ZM945.438 559.888C945.438 564.2 948.854 567.336 953.082 567.336C957.282 567.336 960.698 564.2 960.698 559.888C960.698 555.604 957.282 552.496 953.054 552.496C948.854 552.496 945.438 555.604 945.438 559.888ZM948.21 559.888C948.21 556.948 950.394 554.848 953.082 554.848C955.742 554.848 957.954 556.948 957.954 559.888C957.954 562.856 955.742 564.984 953.082 564.984C950.394 564.984 948.21 562.856 948.21 559.888ZM962.048 567.14C966.22 566.916 967.844 563.612 967.844 557.2V555.072H972.016V567H974.732V552.832H965.24V557.2C965.24 562.324 964.12 564.396 962.048 564.704V567.14ZM978.004 559.916C978.004 564.116 981.084 567.336 985.536 567.336C987.496 567.336 989.652 566.58 991.024 565.32L989.876 563.332C988.756 564.34 987.216 564.984 985.704 564.984C983.156 564.984 980.972 563.332 980.832 560.28H991.136C991.192 559.888 991.248 559.496 991.248 559.132C991.248 555.492 989.12 552.496 985.116 552.496C981.084 552.496 978.004 555.408 978.004 559.916ZM980.916 558.32C981.308 555.968 982.96 554.596 985.06 554.596C986.908 554.596 988.42 555.884 988.504 558.32H980.916ZM993.59 559.916C993.59 564.116 996.67 567.336 1001.12 567.336C1003.08 567.336 1005.24 566.58 1006.61 565.32L1005.46 563.332C1004.34 564.34 1002.8 564.984 1001.29 564.984C998.742 564.984 996.558 563.332 996.418 560.28H1006.72C1006.78 559.888 1006.83 559.496 1006.83 559.132C1006.83 555.492 1004.71 552.496 1000.7 552.496C996.67 552.496 993.59 555.408 993.59 559.916ZM996.502 558.32C996.894 555.968 998.546 554.596 1000.65 554.596C1002.49 554.596 1004.01 555.884 1004.09 558.32H996.502Z" fill="black"/>
<path d="M1159.77 587.12H1164.25L1164.46 550.79H1159.56L1159.77 587.12ZM1159.35 600H1164.81V594.47H1159.35V600ZM1185.23 561.85H1189.36V550.09H1185.23V561.85ZM1176.76 561.85H1180.89V550.09H1176.76V561.85ZM1205.73 600H1210L1212.38 586.35H1224.49L1222.11 600H1226.38L1228.76 586.35H1238.56L1239.26 582.43H1229.46L1231.91 568.71H1241.71L1242.34 564.79H1232.54L1234.99 550.79H1230.72L1228.27 564.79H1216.16L1218.61 550.79H1214.34L1211.89 564.79H1202.02L1201.32 568.71H1211.26L1208.81 582.43H1198.87L1198.17 586.35H1208.11L1205.73 600ZM1213.08 582.43L1215.46 568.71H1227.64L1225.19 582.43H1213.08ZM1259.32 569.41C1264.71 569.41 1269.19 565.07 1269.19 559.68C1269.19 554.36 1264.71 549.95 1259.32 549.95C1253.86 549.95 1249.52 554.36 1249.52 559.68C1249.52 565.07 1253.86 569.41 1259.32 569.41ZM1249.94 600H1254.98L1292.43 550.79H1287.39L1249.94 600ZM1259.32 565.49C1256.1 565.49 1253.65 562.9 1253.65 559.68C1253.65 556.53 1256.1 553.87 1259.32 553.87C1262.54 553.87 1264.99 556.53 1264.99 559.68C1264.99 562.9 1262.54 565.49 1259.32 565.49ZM1273.18 591.18C1273.18 596.5 1277.52 600.84 1282.98 600.84C1288.44 600.84 1292.85 596.5 1292.85 591.18C1292.85 585.79 1288.44 581.38 1282.98 581.38C1277.52 581.38 1273.18 585.79 1273.18 591.18ZM1277.31 591.11C1277.31 587.96 1279.76 585.3 1282.98 585.3C1286.2 585.3 1288.72 587.96 1288.72 591.11C1288.72 594.33 1286.2 596.92 1282.98 596.92C1279.76 596.92 1277.31 594.33 1277.31 591.11ZM1300.8 586.42C1300.8 594.61 1307.59 600.84 1317.39 600.84C1327.33 600.84 1333.7 594.89 1333.7 583.13V575.92H1340.42V571.58H1333.7V564.65H1328.87V571.58H1318.51C1309.34 571.58 1307.94 565.98 1307.94 562.69C1307.94 557.37 1312.28 554.22 1317.88 554.22C1319.14 554.22 1320.82 554.43 1321.94 554.71L1323.27 550.72C1321.45 550.23 1319.56 549.95 1317.67 549.95C1308.71 549.95 1302.97 554.85 1302.97 562.41C1302.97 568.29 1305.98 571.72 1309.76 573.33V573.47C1304.02 575.22 1300.8 580.75 1300.8 586.42ZM1305.84 586.14C1305.84 579.98 1310.04 575.92 1318.51 575.92H1328.87V582.99C1328.87 592.44 1324.32 596.29 1317.39 596.29C1310.18 596.29 1305.84 591.74 1305.84 586.14ZM1346.97 561.85H1351.1V550.09H1346.97V561.85ZM1368.52 606.65H1373C1367.68 597.2 1365.09 586.91 1365.09 576.48C1365.09 566.61 1367.89 557.44 1373 548.9H1368.52C1363.55 557.09 1360.68 566.33 1360.68 576.41C1360.68 587.47 1363.69 598.25 1368.52 606.65ZM1379.18 606.65H1383.59C1388.49 598.25 1391.5 587.47 1391.5 576.41C1391.5 566.33 1388.63 557.09 1383.59 548.9H1379.18C1384.22 557.44 1387.09 566.61 1387.09 576.48C1387.09 586.91 1384.43 597.2 1379.18 606.65ZM1406.85 576.41L1412.87 567.59H1413.01L1418.96 576.48L1422.67 573.75L1416.09 565.35V565.21L1426.45 562.2L1424.98 557.93L1414.83 561.57L1415.25 550.79H1410.56L1410.98 561.57L1400.83 557.86L1399.5 562.27L1409.79 565.21V565.35L1403.14 573.75L1406.85 576.41ZM1433.39 606.79H1437.52L1442.84 594.26H1437.38L1433.39 606.79ZM1453.81 582.29H1473.69V577.95H1453.81V582.29ZM1484.02 600H1489.76V594.19H1484.02V600ZM1497.92 602.94H1502.4L1520.18 548.06H1515.7L1497.92 602.94ZM1528.32 570.39H1533.78V564.79H1528.32V570.39ZM1528.32 600H1533.78V594.4H1528.32V600ZM1207.24 654.39H1212.63V648.79H1207.24V654.39ZM1203.74 690.79H1207.8L1212.42 678.26H1207.17L1203.74 690.79ZM1229.79 671.12H1234.48V668.11C1234.48 658.87 1247.01 657.89 1247.01 646.27C1247.01 638.99 1240.99 633.88 1233.01 633.88C1228.67 633.88 1224.26 635.63 1221.74 637.87L1224.4 641.37C1226.71 639.62 1229.86 638.43 1232.8 638.43C1238.19 638.43 1241.97 642 1241.97 646.48C1241.97 655.79 1229.79 656.84 1229.79 667.97V671.12ZM1229.37 684H1234.9V678.47H1229.37V684ZM1254.52 667.06C1254.52 681.34 1265.51 692.68 1280.07 692.68V688.48C1268.1 688.48 1259.35 678.96 1259.35 667.06C1259.35 655.3 1268.24 645.43 1279.72 645.43C1287.98 645.43 1291.62 649.35 1291.76 653.69H1282.66C1274.54 653.69 1268.73 659.92 1268.73 667.13C1268.73 674.41 1274.61 680.57 1282.66 680.57H1301.49V676.65H1296.52V654.6C1296.52 647.81 1292.11 641.3 1279.37 641.3C1265.65 641.3 1254.52 652.78 1254.52 667.06ZM1273.63 667.06C1273.63 661.81 1277.69 657.4 1283.22 657.4H1291.76V676.65H1283.08C1277.69 676.65 1273.63 672.38 1273.63 667.06ZM1311.24 690.65H1320.76V686.73H1315.65V636.82H1320.76V632.9H1311.24V690.65ZM1345.28 686.94H1349.76L1331.98 632.06H1327.5L1345.28 686.94ZM1356.5 686.73V690.65H1366.02V632.9H1356.5V636.82H1361.61V686.73H1356.5ZM1377.59 666.5H1382.21L1393.13 640.6L1404.05 666.5H1408.67L1394.74 634.79H1391.52L1377.59 666.5ZM1417.52 684V688.06H1453.64V684H1417.52ZM1474.63 631.36H1478.97L1474.14 623.03H1468.61L1474.63 631.36ZM1500.45 678.19C1500.45 689.81 1508.08 690.79 1510.88 690.79C1511.51 690.79 1511.93 690.72 1511.93 690.72V686.8H1511.3C1509.55 686.8 1504.86 686.17 1504.86 678.05V670.35C1504.86 665.73 1502.55 662.72 1499.26 661.46V661.32C1502.83 659.78 1504.86 656.35 1504.86 652.43V645.57C1504.86 637.45 1509.55 636.82 1511.3 636.82H1511.93V632.9H1510.88C1508.08 632.9 1500.45 633.88 1500.45 645.43V651.17C1500.45 655.51 1498.28 658.45 1494.5 659.22V663.56C1498.49 664.33 1500.45 667.48 1500.45 671.54V678.19ZM1518.5 686.8V690.72C1518.5 690.72 1518.85 690.79 1519.55 690.79C1522.35 690.79 1529.98 689.81 1529.98 678.19V671.54C1529.98 667.55 1532.01 664.19 1535.93 663.56V659.22C1531.94 658.52 1529.98 655.23 1529.98 651.17V645.43C1529.98 633.88 1522.35 632.9 1519.55 632.9H1518.5V636.82H1519.13C1520.81 636.82 1525.57 637.45 1525.57 645.57V652.43C1525.57 656.84 1528.09 660.13 1531.17 661.32V661.46C1527.53 662.79 1525.57 666.15 1525.57 670.35V678.05C1525.57 686.17 1520.81 686.8 1519.13 686.8H1518.5ZM1170.31 745.74H1165.83L1165.62 782.07H1170.52L1170.31 745.74ZM1170.73 732.86H1165.27V738.39H1170.73V732.86ZM1186.5 762.05H1190.7L1186.08 731.74C1185.87 731.04 1185.8 730.34 1185.8 729.64C1185.8 724.88 1189.23 722.15 1193.5 722.15C1195.46 722.15 1197.63 722.99 1199.17 724.18L1201.62 720.89C1199.52 719.07 1196.3 717.95 1193.5 717.95C1186.22 717.95 1181.46 722.78 1181.46 729.22C1181.46 729.99 1181.53 730.83 1181.67 731.67L1186.5 762.05ZM1180.55 769.4C1182.79 771.29 1185.73 772.34 1188.67 772.34C1195.88 772.34 1200.71 767.58 1200.71 761.07C1200.71 760.3 1200.64 759.53 1200.5 758.62L1195.74 728.24H1191.54L1196.09 758.27C1196.3 759.04 1196.37 759.81 1196.37 760.51C1196.37 765.34 1192.94 768.14 1188.74 768.14C1186.64 768.14 1184.33 767.16 1183 766.04L1180.55 769.4ZM1226.4 713.05H1230.74V707.03H1226.4V713.05ZM1215.83 713.05H1220.1V707.03H1215.83V713.05ZM1249.91 713.05H1267.13V709.2H1249.91V713.05ZM1288.62 715.36H1292.89L1298.98 707.03H1293.45L1288.62 715.36ZM1330.96 771.5H1334.95V723.13H1347.62V718.79H1330.89C1321.86 718.79 1314.23 725.86 1314.23 734.89C1314.23 743.99 1321.93 751.13 1330.96 751.13V771.5ZM1339.29 771.5H1343.35V727.33H1339.29V771.5ZM1356.4 750.71H1362V744.9H1356.4V750.71ZM1381.21 774.37C1381.21 774.37 1381.7 774.3 1382.26 774.3C1384.71 774.3 1386.25 775.14 1386.25 776.68C1386.25 778.57 1384.5 779.06 1382.68 779.06C1381.77 779.06 1380.44 778.92 1379.74 778.64V782C1380.86 782.28 1382.05 782.35 1383.24 782.35C1386.67 782.35 1389.96 780.88 1389.96 776.82C1389.96 774.02 1387.93 772.27 1385.06 771.85L1385.83 767.65V767.09L1383.03 766.6L1381.21 774.37ZM1422.58 745.74H1417.89V748.75C1417.89 757.99 1405.36 758.97 1405.36 770.59C1405.36 777.87 1411.38 782.98 1419.36 782.98C1423.7 782.98 1428.11 781.23 1430.63 778.99L1427.97 775.49C1425.66 777.24 1422.51 778.43 1419.57 778.43C1414.18 778.43 1410.4 774.86 1410.4 770.38C1410.4 761.07 1422.58 760.02 1422.58 748.89V745.74ZM1423 732.86H1417.47V738.39H1423V732.86ZM1439.39 750.15H1474.39V746.09H1439.39V750.15ZM1484.85 750.15H1533.85V746.09H1484.85V750.15ZM1409.69 858.3H1413.4L1417.32 846.26H1412.42L1409.69 858.3ZM1435.45 858.3H1439.23L1443.15 846.26H1438.18L1435.45 858.3ZM1427.19 858.3H1430.9L1434.82 846.26H1429.92L1427.19 858.3ZM1460.45 855.5H1465.14V820.85H1473.61V816.79H1465.14V802.79H1460.45V816.79H1452.26V820.85H1460.45V855.5ZM1481.27 839.47H1489.46V855.5H1494.15V839.47H1502.62V835.41H1494.15V820.85H1502.62V816.79H1494.15V802.79H1489.46V816.79H1481.27V820.85H1489.46V835.41H1481.27V839.47ZM1522.97 841.64C1528.5 841.64 1532.91 837.16 1532.91 831.63C1532.91 826.1 1528.5 821.62 1522.97 821.62C1517.44 821.62 1512.96 826.1 1512.96 831.63C1512.96 837.16 1517.44 841.64 1522.97 841.64Z" fill="black"/>
<path d="M511 741.5H536.5" stroke="black" stroke-width="5"/>
<path d="M599.5 742H574" stroke="black" stroke-width="5"/>
<path d="M-16.4449 675.25C-7.34492 684.7 6.48008 690.475 19.2551 692.4V708.325H38.3301V692.4C60.7301 688.9 73.3301 672.8 73.3301 654.25C73.3301 615.575 16.4551 616.625 16.4551 601.75C16.4551 594.75 23.4551 591.95 29.7551 591.95C39.5551 591.95 50.4051 597.025 57.4051 602.975L70.3551 577.95C61.2551 569.9 49.8801 565.525 38.3301 564.3V548.375H19.2551V564.825C-0.169921 568.5 -14.1699 582.5 -14.1699 602.1C-14.1699 639.725 42.7051 640.95 42.7051 654.95C42.7051 662.475 35.8801 664.925 29.5801 664.925C18.9051 664.925 7.00508 658.625 -0.344921 651.975L-16.4449 675.25ZM125.937 693.1H145.187V677.875C163.212 675.25 174.762 659.675 178.962 647.775L152.012 637.275C149.737 644.275 144.137 650.4 136.262 650.4C127.162 650.4 119.112 642.875 119.112 628.35C119.112 615.05 128.037 606.3 136.262 606.3C144.312 606.3 149.737 612.6 152.012 619.425L178.962 608.925C173.887 593.525 160.937 582.325 145.187 578.825V563.95H125.937V578.825C105.287 583.55 88.6617 603.5 88.6617 628.35C88.6617 653.375 105.287 673.15 125.937 677.875V693.1ZM193.943 691H285.643V664.75H234.893V638.675H263.768V619.075H234.893V602.45C234.893 595.625 240.493 591.25 247.143 591.25C253.268 591.25 259.568 594.925 263.593 598.95L280.568 578.3C271.643 569.375 258.868 563.775 246.268 563.775C221.593 563.775 203.568 579.175 203.568 601.575V619.075H196.043V638.675H203.568V664.75H193.943V691ZM-12.0562 901H18.5688V876.15H61.2688V856.725H18.5688V846.925H35.5438C59.5188 846.925 77.3688 835.2 77.3688 812.975C77.3688 790.575 64.9438 775.875 37.2938 775.875H-12.0562V823.3H-23.4312V846.75H-12.0562V856.725H-23.4312V876.15H-12.0562V901ZM18.5688 823.3V799.5H31.5188C42.0188 799.5 46.0438 805.1 46.0438 811.05C46.0438 816.825 42.1938 823.3 30.9938 823.3H18.5688ZM89.3617 871.775H117.887V901H149.212V871.775H177.912V854.975H149.212V850.075L153.412 841.5H177.912V824.7H161.637L185.787 775.875H150.612L141.337 800.9C137.137 812.45 133.812 824.175 133.812 824.175H133.462C133.462 824.175 130.137 812.45 125.937 800.9L116.662 775.875H81.4867L105.462 824.7H89.3617V841.5H113.687L117.887 850.075V854.975H89.3617V871.775ZM190.618 859.525H203.568C211.618 885.425 233.843 903.1 263.943 903.1C271.643 903.1 280.393 901.7 286.343 899.6L281.093 871.6C275.668 873.175 270.068 874.225 264.468 874.225C253.618 874.225 243.643 868.8 238.043 859.525H265.168L268.668 842.725H232.443C231.918 839.925 231.743 837.125 232.093 834.325H270.418L273.918 817.525H236.118C241.368 807.725 250.993 802.125 263.068 802.125C267.793 802.125 273.218 802.65 276.893 803.875L284.418 776.225C277.593 774.825 270.768 773.775 263.943 773.775C235.068 773.775 211.268 791.8 203.218 817.525H190.618V834.325H200.243C199.893 837.475 200.068 840.1 200.418 842.725H190.618V859.525Z" fill="black"/>
<path d="M1176.57 243L1184.82 249.25L1206.57 220.25H1276.07V210.25H1214.07L1236.82 180.25H1276.07V170.25H1244.32L1262.07 146.75L1253.82 140.5L1231.32 170.25H1162.07V180.25H1223.82L1201.07 210.25H1162.07V220.25H1193.57L1176.57 243ZM1302.71 199.75L1412.46 249V237L1318.21 195.5V195L1412.46 153.5V141.5L1302.71 190.75V199.75ZM1302.71 294.25V304.25H1412.46V294.25H1302.71ZM1445.86 249L1555.61 199.75V190.75L1445.86 141.5V153.5L1540.11 195V195.5L1445.86 237V249ZM1445.61 294.25V304.25H1555.36V294.25H1445.61Z" fill="black"/>
<path d="M-43.6203 127.44H-43.5403C-42.4603 129 -40.2603 129.48 -38.5403 129.48C-32.3003 129.48 -30.2603 124.04 -30.2603 124.04H-30.1803C-30.1803 124.04 -30.2603 124.76 -30.2603 125.68V129H-28.5803V109H-30.2603V118.76C-30.2603 123.44 -33.4203 127.84 -38.5003 127.84C-42.9403 127.84 -43.3803 124.52 -43.3803 121.08V109H-45.0603V137H-43.3803V130.32C-43.3803 129.48 -43.6203 127.44 -43.6203 127.44ZM-22.2153 129H-20.5353V107.84C-20.5353 104.2 -17.6153 102.16 -14.7753 102.16C-11.5753 102.16 -10.0153 104.24 -10.0153 106.04C-10.0153 109.56 -14.8553 110.76 -14.8553 114.36C-14.8553 118.52 -6.41531 119.64 -6.41531 123.88C-6.41531 126.48 -8.49531 127.64 -10.7753 127.64C-12.8553 127.64 -15.2953 127.08 -16.9753 126.04V127.88C-15.1353 128.92 -12.8953 129.28 -10.8153 129.28C-7.65531 129.28 -4.65531 127.52 -4.65531 123.88C-4.65531 118.8 -13.0953 117.2 -13.0953 114.28C-13.0953 111.68 -8.25531 110.4 -8.25531 106.04C-8.25531 103.28 -10.5353 100.52 -14.6953 100.52C-18.4153 100.52 -22.2153 103.04 -22.2153 107.72V129ZM-1.59437 123.68C-1.59437 127.68 1.96563 129.48 5.20563 129.48C8.68563 129.48 11.2056 127.16 12.2056 124.56H12.2856C12.2856 124.56 12.1256 125.28 12.1256 126.36V129H13.8056V116.08C13.8056 111.08 11.3256 108.52 6.72563 108.52C4.20563 108.52 1.52563 109.36 -0.0343748 110.72L0.925625 112.08C2.56563 110.84 4.60563 110.16 6.64563 110.16C9.84563 110.16 12.1256 111.68 12.1256 116.12V116.8H10.8056C7.24563 116.8 -1.59437 116.88 -1.59437 123.68ZM0.165625 123.56C0.165625 118.36 7.44563 118.36 10.8456 118.36H12.1256V119.44C12.1256 123.4 9.64563 127.92 5.28563 127.92C1.88563 127.92 0.165625 125.68 0.165625 123.56ZM5.84563 105.44H7.60563L4.92563 101H2.68563L5.84563 105.44ZM18.7181 123.68C18.7181 127.68 22.2781 129.48 25.5181 129.48C28.9981 129.48 31.5181 127.16 32.5181 124.56H32.5981C32.5981 124.56 32.4381 125.28 32.4381 126.36V129H34.1181V116.08C34.1181 111.08 31.6381 108.52 27.0381 108.52C24.5181 108.52 21.8381 109.36 20.2781 110.72L21.2381 112.08C22.8781 110.84 24.9181 110.16 26.9581 110.16C30.1581 110.16 32.4381 111.68 32.4381 116.12V116.8H31.1181C27.5581 116.8 18.7181 116.88 18.7181 123.68ZM20.4781 123.56C20.4781 118.36 27.7581 118.36 31.1581 118.36H32.4381V119.44C32.4381 123.4 29.9581 127.92 25.5981 127.92C22.1981 127.92 20.4781 125.68 20.4781 123.56ZM26.0781 105.44H27.8381L30.9981 101H28.7581L26.0781 105.44ZM39.0306 123.68C39.0306 127.68 42.5906 129.48 45.8306 129.48C49.3106 129.48 51.8306 127.16 52.8306 124.56H52.9106C52.9106 124.56 52.7506 125.28 52.7506 126.36V129H54.4306V116.08C54.4306 111.08 51.9506 108.52 47.3506 108.52C44.8306 108.52 42.1506 109.36 40.5906 110.72L41.5506 112.08C43.1906 110.84 45.2306 110.16 47.2706 110.16C50.4706 110.16 52.7506 111.68 52.7506 116.12V116.8H51.4306C47.8706 116.8 39.0306 116.88 39.0306 123.68ZM40.7906 123.56C40.7906 118.36 48.0706 118.36 51.4706 118.36H52.7506V119.44C52.7506 123.4 50.2706 127.92 45.9106 127.92C42.5106 127.92 40.7906 125.68 40.7906 123.56ZM43.1106 105.44H45.0706L47.3106 102.24H47.3906L49.6306 105.44H51.5906L48.3906 101H46.3106L43.1106 105.44ZM59.3431 123.68C59.3431 127.68 62.9031 129.48 66.1431 129.48C69.6231 129.48 72.1431 127.16 73.1431 124.56H73.2231C73.2231 124.56 73.0631 125.28 73.0631 126.36V129H74.7431V116.08C74.7431 111.08 72.2631 108.52 67.6631 108.52C65.1431 108.52 62.4631 109.36 60.9031 110.72L61.8631 112.08C63.5031 110.84 65.5431 110.16 67.5831 110.16C70.7831 110.16 73.0631 111.68 73.0631 116.12V116.8H71.7431C68.1831 116.8 59.3431 116.88 59.3431 123.68ZM61.1031 123.56C61.1031 118.36 68.3831 118.36 71.7831 118.36H73.0631V119.44C73.0631 123.4 70.5831 127.92 66.2231 127.92C62.8231 127.92 61.1031 125.68 61.1031 123.56ZM61.9031 105.32H63.5031C63.5031 104.4 63.7031 102.48 65.1031 102.48C66.9831 102.48 67.4631 105.44 70.1431 105.44C72.3431 105.44 73.4631 103.96 73.4631 101.12H71.8631C71.8631 102.04 71.6631 103.96 70.2631 103.96C68.3831 103.96 67.9031 101 65.2231 101C63.0231 101 61.9031 102.48 61.9031 105.32ZM79.6556 123.68C79.6556 127.68 83.2156 129.48 86.4556 129.48C89.9356 129.48 92.4556 127.16 93.4556 124.56H93.5356C93.5356 124.56 93.3756 125.28 93.3756 126.36V129H95.0556V116.08C95.0556 111.08 92.5756 108.52 87.9756 108.52C85.4556 108.52 82.7756 109.36 81.2156 110.72L82.1756 112.08C83.8156 110.84 85.8556 110.16 87.8956 110.16C91.0956 110.16 93.3756 111.68 93.3756 116.12V116.8H92.0556C88.4956 116.8 79.6556 116.88 79.6556 123.68ZM81.4156 123.56C81.4156 118.36 88.6956 118.36 92.0956 118.36H93.3756V119.44C93.3756 123.4 90.8956 127.92 86.5356 127.92C83.1356 127.92 81.4156 125.68 81.4156 123.56ZM89.8156 103.92H91.6556V101H89.8156V103.92ZM84.3356 103.92H86.1756V101H84.3356V103.92ZM99.9681 123.68C99.9681 127.68 103.528 129.48 106.768 129.48C110.248 129.48 112.768 127.16 113.768 124.56H113.848C113.848 124.56 113.688 125.28 113.688 126.36V129H115.368V116.08C115.368 111.08 112.888 108.52 108.288 108.52C105.768 108.52 103.088 109.36 101.528 110.72L102.488 112.08C104.128 110.84 106.168 110.16 108.208 110.16C111.408 110.16 113.688 111.68 113.688 116.12V116.8H112.368C108.808 116.8 99.9681 116.88 99.9681 123.68ZM101.728 123.56C101.728 118.36 109.008 118.36 112.408 118.36H113.688V119.44C113.688 123.4 111.208 127.92 106.848 127.92C103.448 127.92 101.728 125.68 101.728 123.56ZM108.288 105.84C109.808 105.84 110.968 104.68 110.968 103.16C110.968 101.64 109.808 100.48 108.288 100.48C106.768 100.48 105.608 101.64 105.608 103.16C105.608 104.68 106.768 105.84 108.288 105.84ZM108.288 104.44C107.528 104.44 107.008 103.92 107.008 103.16C107.008 102.36 107.528 101.84 108.288 101.84C109.048 101.84 109.568 102.36 109.568 103.16C109.568 103.92 109.048 104.44 108.288 104.44ZM120.321 123.68C120.321 127.52 123.561 129.48 127.201 129.48C132.681 129.48 134.521 124.44 134.761 123.36H134.841C136.281 127.2 139.681 129.48 143.841 129.48C146.441 129.48 149.241 128.36 150.961 126.72L150.041 125.32C148.441 126.92 146.081 127.84 143.841 127.84C139.161 127.84 135.681 124.56 135.681 118.56H151.321C151.361 118.24 151.401 117.76 151.401 117.44C151.401 112.64 148.641 108.52 143.321 108.52C139.921 108.52 137.041 110.08 135.401 113.2H135.321C134.641 110.4 132.641 108.52 128.441 108.52C126.041 108.52 123.401 109.32 121.841 110.72L122.801 112.08C124.401 110.84 126.361 110.16 128.361 110.16C131.721 110.16 134.001 111.68 134.001 116.12V117H132.401C127.641 117 120.321 117.12 120.321 123.68ZM135.841 117C136.521 112.4 139.521 110.12 143.201 110.12C146.361 110.12 149.441 112.12 149.641 117H135.841ZM122.081 123.56C122.081 118.84 127.561 118.56 131.241 118.56H134.001V119.44C134.001 123.4 131.561 127.92 127.201 127.92C123.841 127.92 122.081 125.8 122.081 123.56ZM163.926 132.72C163.926 132.72 164.166 132.68 164.406 132.68C165.966 132.68 166.846 133.28 166.846 134.2C166.846 135.36 165.766 135.68 164.686 135.68C164.126 135.68 163.446 135.6 163.046 135.48V137C163.606 137.12 164.206 137.16 164.806 137.16C166.686 137.16 168.446 136.32 168.446 134.12C168.446 132.68 167.326 131.64 165.686 131.4L166.046 129.48C168.966 129.4 171.766 128.2 173.406 126.36L172.526 124.96C170.886 126.84 168.286 127.84 165.846 127.84C161.166 127.84 157.286 124.36 157.286 119.04C157.286 113.64 161.166 110.16 165.846 110.16C168.166 110.16 170.526 111.2 171.966 112.72L173.006 111.36C171.246 109.44 168.406 108.52 165.846 108.52C160.286 108.52 155.526 112.68 155.526 119.04C155.526 124.96 159.526 128.88 164.646 129.4L163.926 132.72ZM176.736 119.04C176.736 125.4 181.416 129.48 187.056 129.48C189.616 129.48 192.416 128.4 194.176 126.72L193.256 125.32C191.656 126.92 189.296 127.84 187.056 127.84C182.416 127.84 178.496 124.52 178.496 118.72H194.536C194.576 118.36 194.616 117.96 194.616 117.64C194.616 112.8 191.896 108.52 186.456 108.52C181.336 108.52 176.736 112.28 176.736 119.04ZM178.616 117.16C179.336 112.48 182.736 110.08 186.416 110.08C189.736 110.08 192.656 112.28 192.856 117.16H178.616ZM185.696 105.44H187.456L184.776 101H182.536L185.696 105.44ZM198.689 119.04C198.689 125.4 203.369 129.48 209.009 129.48C211.569 129.48 214.369 128.4 216.129 126.72L215.209 125.32C213.609 126.92 211.249 127.84 209.009 127.84C204.369 127.84 200.449 124.52 200.449 118.72H216.489C216.529 118.36 216.569 117.96 216.569 117.64C216.569 112.8 213.849 108.52 208.409 108.52C203.289 108.52 198.689 112.28 198.689 119.04ZM200.569 117.16C201.289 112.48 204.689 110.08 208.369 110.08C211.689 110.08 214.609 112.28 214.809 117.16H200.569ZM207.569 105.44H209.329L212.489 101H210.249L207.569 105.44ZM220.643 119.04C220.643 125.4 225.323 129.48 230.963 129.48C233.523 129.48 236.323 128.4 238.083 126.72L237.163 125.32C235.563 126.92 233.203 127.84 230.963 127.84C226.323 127.84 222.403 124.52 222.403 118.72H238.443C238.483 118.36 238.523 117.96 238.523 117.64C238.523 112.8 235.803 108.52 230.363 108.52C225.243 108.52 220.643 112.28 220.643 119.04ZM222.523 117.16C223.243 112.48 226.643 110.08 230.322 110.08C233.643 110.08 236.563 112.28 236.763 117.16H222.523ZM226.203 105.44H228.163L230.403 102.24H230.483L232.723 105.44H234.683L231.483 101H229.403L226.203 105.44ZM242.596 119.04C242.596 125.4 247.276 129.48 252.916 129.48C255.476 129.48 258.276 128.4 260.036 126.72L259.116 125.32C257.516 126.92 255.156 127.84 252.916 127.84C248.276 127.84 244.356 124.52 244.356 118.72H260.396C260.436 118.36 260.476 117.96 260.476 117.64C260.476 112.8 257.756 108.52 252.316 108.52C247.196 108.52 242.596 112.28 242.596 119.04ZM244.476 117.16C245.196 112.48 248.596 110.08 252.276 110.08C255.596 110.08 258.516 112.28 258.716 117.16H244.476ZM254.236 103.92H256.076V101H254.236V103.92ZM248.756 103.92H250.596V101H248.756V103.92ZM265.949 129H267.629V109H265.949V129ZM265.949 105.44H267.709L265.029 101H262.789L265.949 105.44ZM274.582 129H276.262V109H274.582V129ZM274.542 105.44H276.302L279.462 101H277.222L274.542 105.44ZM283.214 129H284.894V109H283.214V129ZM279.854 105.44H281.814L284.054 102.24H284.134L286.374 105.44H288.334L285.134 101H283.054L279.854 105.44ZM291.847 129H293.527V109H291.847V129ZM294.567 103.92H296.407V101H294.567V103.92ZM289.087 103.92H290.927V101H289.087V103.92ZM-32.2072 167.8C-32.2072 172.64 -28.9672 177.48 -23.2072 177.48C-16.4872 177.48 -13.5272 171.52 -13.5272 166.2C-13.5272 159.84 -16.2472 155.48 -19.7672 152.8L-15.7272 150.92L-16.4072 149.44L-21.3272 151.76C-23.7672 150.28 -26.4872 149.4 -28.8472 148.8L-29.3272 150.32C-27.0872 150.88 -25.0072 151.64 -23.2072 152.6L-29.0472 155.32L-28.3672 156.8L-21.4872 153.6C-18.9672 155.36 -17.0472 157.68 -16.0072 160.92H-16.0872C-16.0872 160.92 -18.1672 158.28 -22.5672 158.28C-29.0072 158.28 -32.2072 163 -32.2072 167.8ZM-30.4472 167.8C-30.4472 163.88 -27.9672 159.88 -22.6072 159.88C-18.2072 159.88 -15.2872 162.68 -15.2872 166.48C-15.2872 170.72 -17.6472 175.88 -23.1272 175.88C-27.7672 175.88 -30.4472 171.88 -30.4472 167.8ZM-7.80125 177H-6.12125V167.04C-6.12125 161.92 -2.28125 158.16 2.27875 158.16C6.75875 158.16 7.19875 161.44 7.19875 164.92V177H8.87875V164.32C8.87875 159.6 7.47875 156.52 2.27875 156.52C-2.72125 156.52 -5.52125 160.28 -6.20125 162.16H-6.28125C-6.28125 162.16 -6.12125 161.44 -6.12125 160.52V157H-7.80125V177ZM-4.76125 153.32H-3.16125C-3.16125 152.4 -2.96125 150.48 -1.56125 150.48C0.318751 150.48 0.798751 153.44 3.47875 153.44C5.67875 153.44 6.79875 151.96 6.79875 149.12H5.19875C5.19875 150.04 4.99875 151.96 3.59875 151.96C1.71875 151.96 1.23875 149 -1.44125 149C-3.64125 149 -4.76125 150.48 -4.76125 153.32ZM14.1963 166.88C14.1963 172.84 18.8363 177.48 24.5563 177.48C30.2763 177.48 34.9163 172.84 34.9163 166.88C34.9163 161.04 30.2763 156.52 24.5563 156.52C18.8363 156.52 14.1963 161.04 14.1963 166.88ZM15.9563 166.88C15.9563 161.92 19.7963 158.16 24.5563 158.16C29.3163 158.16 33.1563 161.92 33.1563 166.88C33.1563 171.96 29.3163 175.84 24.5563 175.84C19.7963 175.84 15.9563 171.96 15.9563 166.88ZM23.6763 153.44H25.4363L22.7563 149H20.5163L23.6763 153.44ZM39.0009 166.88C39.0009 172.84 43.6409 177.48 49.3609 177.48C55.0809 177.48 59.7209 172.84 59.7209 166.88C59.7209 161.04 55.0809 156.52 49.3609 156.52C43.6409 156.52 39.0009 161.04 39.0009 166.88ZM40.7609 166.88C40.7609 161.92 44.6009 158.16 49.3609 158.16C54.1209 158.16 57.9609 161.92 57.9609 166.88C57.9609 171.96 54.1209 175.84 49.3609 175.84C44.6009 175.84 40.7609 171.96 40.7609 166.88ZM48.4409 153.44H50.2009L53.3609 149H51.1209L48.4409 153.44ZM63.8056 166.88C63.8056 172.84 68.4456 177.48 74.1656 177.48C79.8856 177.48 84.5256 172.84 84.5256 166.88C84.5256 161.04 79.8856 156.52 74.1656 156.52C68.4456 156.52 63.8056 161.04 63.8056 166.88ZM65.5656 166.88C65.5656 161.92 69.4056 158.16 74.1656 158.16C78.9256 158.16 82.7656 161.92 82.7656 166.88C82.7656 171.96 78.9256 175.84 74.1656 175.84C69.4056 175.84 65.5656 171.96 65.5656 166.88ZM69.9256 153.44H71.8856L74.1256 150.24H74.2056L76.4456 153.44H78.4056L75.2056 149H73.1256L69.9256 153.44ZM88.6103 166.88C88.6103 172.84 93.2503 177.48 98.9703 177.48C104.69 177.48 109.33 172.84 109.33 166.88C109.33 161.04 104.69 156.52 98.9703 156.52C93.2503 156.52 88.6103 161.04 88.6103 166.88ZM90.3703 166.88C90.3703 161.92 94.2103 158.16 98.9703 158.16C103.73 158.16 107.57 161.92 107.57 166.88C107.57 171.96 103.73 175.84 98.9703 175.84C94.2103 175.84 90.3703 171.96 90.3703 166.88ZM93.2103 153.32H94.8103C94.8103 152.4 95.0103 150.48 96.4103 150.48C98.2903 150.48 98.7703 153.44 101.45 153.44C103.65 153.44 104.77 151.96 104.77 149.12H103.17C103.17 150.04 102.97 151.96 101.57 151.96C99.6903 151.96 99.2103 149 96.5303 149C94.3303 149 93.2103 150.48 93.2103 153.32ZM113.415 166.88C113.415 172.84 118.055 177.48 123.775 177.48C129.495 177.48 134.135 172.84 134.135 166.88C134.135 161.04 129.495 156.52 123.775 156.52C118.055 156.52 113.415 161.04 113.415 166.88ZM115.175 166.88C115.175 161.92 119.015 158.16 123.775 158.16C128.535 158.16 132.375 161.92 132.375 166.88C132.375 171.96 128.535 175.84 123.775 175.84C119.015 175.84 115.175 171.96 115.175 166.88ZM125.615 151.92H127.455V149H125.615V151.92ZM120.135 151.92H121.975V149H120.135V151.92ZM140.58 177.12L141.94 178.16L143.42 176.08C144.94 177 146.7 177.48 148.62 177.48C154.34 177.48 158.98 172.84 158.98 166.88C158.98 163.76 157.62 161 155.5 159.12L157.02 157L155.66 155.96L154.14 158.08C152.54 157.08 150.62 156.52 148.62 156.52C142.9 156.52 138.26 161.04 138.26 166.88C138.26 170.24 139.7 173.16 142.02 175.08L140.58 177.12ZM142.98 173.72C141.18 172.08 140.02 169.68 140.02 166.88C140.02 161.92 143.86 158.16 148.62 158.16C150.3 158.16 151.86 158.64 153.18 159.44L142.98 173.72ZM144.38 174.72L154.5 160.52C156.18 162.08 157.22 164.32 157.22 166.88C157.22 171.96 153.38 175.84 148.62 175.84C147.06 175.84 145.62 175.44 144.38 174.72ZM164.263 169.68C164.263 174.76 165.943 177.48 170.863 177.48C175.703 177.48 178.463 173.72 179.143 171.84H179.223C179.223 171.84 179.063 172.56 179.063 173.48V177H180.743V157H179.063V166.76C179.063 171.44 175.863 175.84 170.863 175.84C166.383 175.84 165.943 172.56 165.943 169.08V157H164.263V169.68ZM171.663 153.44H173.423L170.743 149H168.503L171.663 153.44ZM187.467 169.68C187.467 174.76 189.147 177.48 194.067 177.48C198.907 177.48 201.667 173.72 202.347 171.84H202.427C202.427 171.84 202.267 172.56 202.267 173.48V177H203.947V157H202.267V166.76C202.267 171.44 199.067 175.84 194.067 175.84C189.587 175.84 189.147 172.56 189.147 169.08V157H187.467V169.68ZM194.787 153.44H196.547L199.707 149H197.467L194.787 153.44ZM210.67 169.68C210.67 174.76 212.35 177.48 217.27 177.48C222.11 177.48 224.87 173.72 225.55 171.84H225.63C225.63 171.84 225.47 172.56 225.47 173.48V177H227.15V157H225.47V166.76C225.47 171.44 222.27 175.84 217.27 175.84C212.79 175.84 212.35 172.56 212.35 169.08V157H210.67V169.68ZM214.67 153.44H216.63L218.87 150.24H218.95L221.19 153.44H223.15L219.95 149H217.87L214.67 153.44ZM233.873 169.68C233.873 174.76 235.553 177.48 240.473 177.48C245.313 177.48 248.073 173.72 248.753 171.84H248.833C248.833 171.84 248.673 172.56 248.673 173.48V177H250.353V157H248.673V166.76C248.673 171.44 245.473 175.84 240.473 175.84C235.993 175.84 235.553 172.56 235.553 169.08V157H233.873V169.68ZM243.953 151.92H245.793V149H243.953V151.92ZM238.473 151.92H240.313V149H238.473V151.92ZM255.476 182.84L254.716 184.28C254.716 184.28 256.036 185.4 257.956 185.4C260.476 185.4 262.156 183.76 263.036 181.68L273.316 157H271.516L264.916 172.96C264.516 173.92 264.236 174.84 264.236 174.84H264.156C264.156 174.84 263.836 173.92 263.436 172.96L256.836 157H255.036L263.316 176.88L261.876 180.2C261.076 182.08 259.876 183.8 257.956 183.8C256.596 183.8 255.476 182.84 255.476 182.84ZM263.276 153.44H265.036L268.196 149H265.956L263.276 153.44ZM277.98 185H279.66V174.92C279.66 173.88 279.58 173.16 279.58 173.16H279.66C280.82 175.88 283.7 177.48 286.58 177.48C291.74 177.48 295.46 173.36 295.46 167C295.46 160.8 292.18 156.52 286.82 156.52C283.34 156.52 280.66 158.44 279.7 160.8H279.62C279.62 160.8 279.66 160.12 279.66 159.2V149H277.98V185ZM279.62 167.04C279.62 160.76 283.06 158.16 286.74 158.16C290.82 158.16 293.7 161.6 293.7 167C293.7 172.6 290.5 175.88 286.58 175.88C282.1 175.88 279.62 171.48 279.62 167.04ZM-46.0475 230.84L-46.8075 232.28C-46.8075 232.28 -45.4875 233.4 -43.5675 233.4C-41.0475 233.4 -39.3675 231.76 -38.4875 229.68L-28.2075 205H-30.0075L-36.6075 220.96C-37.0075 221.92 -37.2875 222.84 -37.2875 222.84H-37.3675C-37.3675 222.84 -37.6875 221.92 -38.0875 220.96L-44.6875 205H-46.4875L-38.2075 224.88L-39.6475 228.2C-40.4475 230.08 -41.6475 231.8 -43.5675 231.8C-44.9275 231.8 -46.0475 230.84 -46.0475 230.84ZM-35.4875 199.92H-33.6475V197H-35.4875V199.92ZM-40.9675 199.92H-39.1275V197H-40.9675V199.92ZM-25.8522 219.68C-25.8522 223.68 -22.2922 225.48 -19.0522 225.48C-15.5722 225.48 -13.0522 223.16 -12.0522 220.56H-11.9722C-11.9722 220.56 -12.1322 221.28 -12.1322 222.36V225H-10.4522V212.08C-10.4522 207.08 -12.9322 204.52 -17.5322 204.52C-20.0522 204.52 -22.7322 205.36 -24.2922 206.72L-23.3322 208.08C-21.6922 206.84 -19.6522 206.16 -17.6122 206.16C-14.4122 206.16 -12.1322 207.68 -12.1322 212.12V212.8H-13.4522C-17.0122 212.8 -25.8522 212.88 -25.8522 219.68ZM-24.0922 219.56C-24.0922 214.36 -16.8122 214.36 -13.4122 214.36H-12.1322V215.44C-12.1322 219.4 -14.6122 223.92 -18.9722 223.92C-22.3722 223.92 -24.0922 221.68 -24.0922 219.56ZM-22.2922 200H-12.7322V198.4H-22.2922V200ZM-5.53969 219.68C-5.53969 223.68 -1.97969 225.48 1.26031 225.48C4.74031 225.48 7.26031 223.16 8.26031 220.56H8.34031C8.34031 220.56 8.18031 221.28 8.18031 222.36V225H9.86031V212.08C9.86031 207.08 7.38031 204.52 2.78031 204.52C0.260313 204.52 -2.41969 205.36 -3.97969 206.72L-3.01969 208.08C-1.37969 206.84 0.660313 206.16 2.70031 206.16C5.90031 206.16 8.18031 207.68 8.18031 212.12V212.8H6.86031C3.30031 212.8 -5.53969 212.88 -5.53969 219.68ZM-3.77969 219.56C-3.77969 214.36 3.50031 214.36 6.90031 214.36H8.18031V215.44C8.18031 219.4 5.70031 223.92 1.34031 223.92C-2.05969 223.92 -3.77969 221.68 -3.77969 219.56ZM2.78031 201.56C4.82031 201.56 6.82031 200.28 6.82031 197.64V197H5.22031V197.52C5.22031 199.32 4.06031 200.04 2.78031 200.04C1.46031 200.04 0.340313 199.32 0.340313 197.56V197H-1.25969V197.64C-1.25969 200.28 0.740313 201.56 2.78031 201.56ZM14.7728 219.68C14.7728 223.68 18.3328 225.48 21.5728 225.48C25.0528 225.48 27.5728 223.16 28.5728 220.56H28.6528C28.6528 220.56 28.4928 221.28 28.4928 222.36V224.72C27.3328 225.52 25.1728 227.24 25.1728 229.52C25.1728 232.92 29.3328 233.16 29.3328 233.16L29.6928 231.6C29.6928 231.6 26.9728 231.36 26.9728 229.36C26.9728 227.52 29.2528 225.68 30.1728 225V212.08C30.1728 207.08 27.6928 204.52 23.0928 204.52C20.5728 204.52 17.8928 205.36 16.3328 206.72L17.2928 208.08C18.9328 206.84 20.9728 206.16 23.0128 206.16C26.2128 206.16 28.4928 207.68 28.4928 212.12V212.8H27.1728C23.6128 212.8 14.7728 212.88 14.7728 219.68ZM16.5328 219.56C16.5328 214.36 23.8128 214.36 27.2128 214.36H28.4928V215.44C28.4928 219.4 26.0128 223.92 21.6528 223.92C18.2528 223.92 16.5328 221.68 16.5328 219.56ZM35.5253 215.04C35.5253 221.4 40.2053 225.48 45.8453 225.48C48.8453 225.48 51.7253 224.24 53.4053 222.36L52.5253 220.96C50.8853 222.84 48.2853 223.84 45.8453 223.84C41.1653 223.84 37.2853 220.36 37.2853 215.04C37.2853 209.64 41.1653 206.16 45.8453 206.16C48.1653 206.16 50.5253 207.2 51.9653 208.72L53.0053 207.36C51.2453 205.44 48.4053 204.52 45.8453 204.52C40.2853 204.52 35.5253 208.68 35.5253 215.04ZM44.2053 201.44H45.9653L49.1253 197H46.8853L44.2053 201.44ZM56.6581 215.04C56.6581 221.4 61.3381 225.48 66.9781 225.48C69.9781 225.48 72.8581 224.24 74.5381 222.36L73.6581 220.96C72.0181 222.84 69.4181 223.84 66.9781 223.84C62.2981 223.84 58.4181 220.36 58.4181 215.04C58.4181 209.64 62.2981 206.16 66.9781 206.16C69.2981 206.16 71.6581 207.2 73.0981 208.72L74.1381 207.36C72.3781 205.44 69.5381 204.52 66.9781 204.52C61.4181 204.52 56.6581 208.68 56.6581 215.04ZM62.0181 201.44H63.9781L66.2181 198.24H66.2981L68.5381 201.44H70.4981L67.2981 197H65.2181L62.0181 201.44ZM77.7909 215.04C77.7909 221.4 82.4709 225.48 88.1109 225.48C91.1109 225.48 93.9909 224.24 95.6709 222.36L94.7909 220.96C93.1509 222.84 90.5509 223.84 88.1109 223.84C83.4309 223.84 79.5509 220.36 79.5509 215.04C79.5509 209.64 83.4309 206.16 88.1109 206.16C90.4309 206.16 92.7909 207.2 94.2309 208.72L95.2709 207.36C93.5109 205.44 90.6709 204.52 88.1109 204.52C82.5509 204.52 77.7909 208.68 77.7909 215.04ZM86.4709 199.92H88.3109V197H86.4709V199.92ZM98.9238 215.04C98.9238 221.4 103.604 225.48 109.244 225.48C112.244 225.48 115.124 224.24 116.804 222.36L115.924 220.96C114.284 222.84 111.684 223.84 109.244 223.84C104.564 223.84 100.684 220.36 100.684 215.04C100.684 209.64 104.564 206.16 109.244 206.16C111.564 206.16 113.924 207.2 115.364 208.72L116.404 207.36C114.644 205.44 111.804 204.52 109.244 204.52C103.684 204.52 98.9238 208.68 98.9238 215.04ZM107.484 201.44H109.564L112.764 197H110.804L108.564 200.2H108.484L106.244 197H104.284L107.484 201.44ZM120.254 215C120.254 221.2 123.534 225.48 128.894 225.48C132.614 225.48 135.054 223.36 136.134 220.96H136.214C136.214 220.96 136.054 221.56 136.054 222.48V225H137.734V197H136.054V207.4C136.054 208.32 136.214 209.04 136.214 209.04H136.134C134.894 206.36 132.294 204.52 129.214 204.52C123.974 204.52 120.254 208.64 120.254 215ZM122.014 215C122.014 209.4 125.214 206.16 129.134 206.16C133.814 206.16 136.094 210.52 136.094 214.96C136.094 221.24 132.654 223.84 128.974 223.84C124.894 223.84 122.014 220.4 122.014 215ZM140.414 197C140.734 197.84 140.854 198.56 140.854 199.24C140.854 200.24 140.574 201.2 140.134 202.36H141.694C142.254 201.08 142.574 200.04 142.574 198.88C142.574 198.28 142.494 197.68 142.334 197H140.414ZM143.379 215C143.379 221.2 146.659 225.48 152.019 225.48C155.779 225.48 158.259 223.36 159.179 221.16H159.259C159.259 221.16 159.179 221.76 159.179 222.68V225H160.859V202.24H164.179V200.64H160.859V197H159.179V200.64H153.859V202.24H159.179V207.2C159.179 208.12 159.259 208.84 159.259 208.84H159.179C157.939 206.16 155.299 204.52 152.339 204.52C147.099 204.52 143.379 208.64 143.379 215ZM145.139 215C145.139 209.4 148.339 206.12 152.259 206.12C156.939 206.12 159.219 210.52 159.219 214.96C159.219 221.24 155.779 223.84 152.099 223.84C148.019 223.84 145.139 220.4 145.139 215ZM166.424 215.04C166.424 221.4 171.104 225.48 176.744 225.48C179.304 225.48 182.104 224.4 183.864 222.72L182.944 221.32C181.344 222.92 178.984 223.84 176.744 223.84C172.104 223.84 168.184 220.52 168.184 214.72H184.224C184.264 214.36 184.304 213.96 184.304 213.64C184.304 208.8 181.584 204.52 176.144 204.52C171.024 204.52 166.424 208.28 166.424 215.04ZM168.304 213.16C169.024 208.48 172.424 206.08 176.104 206.08C179.424 206.08 182.344 208.28 182.544 213.16H168.304ZM171.464 200H181.024V198.4H171.464V200ZM188.377 215.04C188.377 221.4 193.057 225.48 198.697 225.48C201.257 225.48 204.057 224.4 205.817 222.72L204.897 221.32C203.297 222.92 200.937 223.84 198.697 223.84C194.057 223.84 190.137 220.52 190.137 214.72H206.177C206.217 214.36 206.257 213.96 206.257 213.64C206.257 208.8 203.537 204.52 198.097 204.52C192.977 204.52 188.377 208.28 188.377 215.04ZM190.257 213.16C190.977 208.48 194.377 206.08 198.057 206.08C201.377 206.08 204.297 208.28 204.497 213.16H190.257ZM198.177 201.56C200.217 201.56 202.217 200.28 202.217 197.64V197H200.617V197.52C200.617 199.32 199.457 200.04 198.177 200.04C196.857 200.04 195.737 199.32 195.737 197.56V197H194.137V197.64C194.137 200.28 196.137 201.56 198.177 201.56ZM210.33 215.04C210.33 221.4 215.01 225.48 220.65 225.48C223.21 225.48 226.01 224.4 227.77 222.72L226.85 221.32C225.25 222.92 222.89 223.84 220.65 223.84C216.01 223.84 212.09 220.52 212.09 214.72H228.13C228.17 214.36 228.21 213.96 228.21 213.64C228.21 208.8 225.49 204.52 220.05 204.52C214.93 204.52 210.33 208.28 210.33 215.04ZM212.21 213.16C212.93 208.48 216.33 206.08 220.01 206.08C223.33 206.08 226.25 208.28 226.45 213.16H212.21ZM219.21 199.92H221.05V197H219.21V199.92ZM232.283 215.04C232.283 221.4 236.963 225.48 242.603 225.48C243.083 225.48 243.603 225.4 244.003 225.32C242.883 226.36 241.763 227.76 241.763 229.52C241.763 232.92 245.923 233.16 245.923 233.16L246.283 231.6C246.283 231.6 243.563 231.36 243.563 229.36C243.563 226.4 247.963 224.4 249.723 222.72L248.803 221.32C247.083 222.92 244.883 223.84 242.603 223.84C237.963 223.84 234.043 220.52 234.043 214.72H250.083C250.083 214.72 250.163 214.08 250.163 213.64C250.163 208.8 247.443 204.52 242.003 204.52C236.883 204.52 232.283 208.28 232.283 215.04ZM234.163 213.16C234.883 208.48 238.283 206.08 241.963 206.08C245.283 206.08 248.203 208.28 248.403 213.16H234.163ZM254.275 215.04C254.275 221.4 258.955 225.48 264.595 225.48C267.155 225.48 269.955 224.4 271.715 222.72L270.795 221.32C269.195 222.92 266.835 223.84 264.595 223.84C259.955 223.84 256.035 220.52 256.035 214.72H272.075C272.115 214.36 272.155 213.96 272.155 213.64C272.155 208.8 269.435 204.52 263.995 204.52C258.875 204.52 254.275 208.28 254.275 215.04ZM256.155 213.16C256.875 208.48 260.275 206.08 263.955 206.08C267.275 206.08 270.195 208.28 270.395 213.16H256.155ZM263.035 201.44H265.115L268.315 197H266.355L264.115 200.2H264.035L261.795 197H259.835L263.035 201.44ZM278.868 230.36L278.068 231.84C280.028 232.84 282.148 233.4 284.348 233.4C289.108 233.4 293.508 231 293.508 224.88V205H291.828V207.68C291.828 208.16 291.948 208.44 291.948 208.44H291.868C290.668 205.68 287.788 204.52 284.908 204.52C279.708 204.52 276.308 208.44 276.308 214.68C276.308 220.92 279.988 225 285.188 225C288.508 225 290.708 223.36 291.908 220.92H291.988C291.988 220.92 291.828 221.64 291.828 222.56V224.88C291.828 229.72 288.508 231.76 284.228 231.76C282.428 231.76 280.348 231.16 278.868 230.36ZM278.068 214.68C278.068 209.28 280.628 206.16 284.908 206.16C288.828 206.16 291.868 208.24 291.868 214.68C291.868 221.16 288.828 223.36 285.308 223.36C281.028 223.36 278.068 220.08 278.068 214.68ZM281.068 201.44H283.028L285.268 198.24H285.348L287.588 201.44H289.548L286.348 197H284.268L281.068 201.44ZM-37.4206 278.36L-38.2206 279.84C-36.2606 280.84 -34.1406 281.4 -31.9406 281.4C-27.1806 281.4 -22.7806 279 -22.7806 272.88V253H-24.4606V255.68C-24.4606 256.16 -24.3406 256.44 -24.3406 256.44H-24.4206C-25.6206 253.68 -28.5006 252.52 -31.3806 252.52C-36.5806 252.52 -39.9806 256.44 -39.9806 262.68C-39.9806 268.92 -36.3006 273 -31.1006 273C-27.7806 273 -25.5806 271.36 -24.3806 268.92H-24.3006C-24.3006 268.92 -24.4606 269.64 -24.4606 270.56V272.88C-24.4606 277.72 -27.7806 279.76 -32.0606 279.76C-33.8606 279.76 -35.9406 279.16 -37.4206 278.36ZM-38.2206 262.68C-38.2206 257.28 -35.6606 254.16 -31.3806 254.16C-27.4606 254.16 -24.4206 256.24 -24.4206 262.68C-24.4206 269.16 -27.4606 271.36 -30.9806 271.36C-35.2606 271.36 -38.2206 268.08 -38.2206 262.68ZM-30.9806 249.56C-28.9406 249.56 -26.9406 248.28 -26.9406 245.64V245H-28.5406V245.52C-28.5406 247.32 -29.7006 248.04 -30.9806 248.04C-32.3006 248.04 -33.4206 247.32 -33.4206 245.56V245H-35.0206V245.64C-35.0206 248.28 -33.0206 249.56 -30.9806 249.56ZM-14.5691 278.36L-15.3691 279.84C-13.4091 280.84 -11.2891 281.4 -9.08906 281.4C-4.32906 281.4 0.0709386 279 0.0709386 272.88V253H-1.60906V255.68C-1.60906 256.16 -1.48906 256.44 -1.48906 256.44H-1.56906C-2.76906 253.68 -5.64906 252.52 -8.52906 252.52C-13.7291 252.52 -17.1291 256.44 -17.1291 262.68C-17.1291 268.92 -13.4491 273 -8.24906 273C-4.92906 273 -2.72906 271.36 -1.52906 268.92H-1.44906C-1.44906 268.92 -1.60906 269.64 -1.60906 270.56V272.88C-1.60906 277.72 -4.92906 279.76 -9.20906 279.76C-11.0091 279.76 -13.0891 279.16 -14.5691 278.36ZM-15.3691 262.68C-15.3691 257.28 -12.8091 254.16 -8.52906 254.16C-4.60906 254.16 -1.56906 256.24 -1.56906 262.68C-1.56906 269.16 -4.60906 271.36 -8.12906 271.36C-12.4091 271.36 -15.3691 268.08 -15.3691 262.68ZM-9.04906 247.92H-7.20906V245H-9.04906V247.92ZM8.2825 278.36L7.4825 279.84C9.4425 280.84 11.5625 281.4 13.7625 281.4C18.5225 281.4 22.9225 279 22.9225 272.88V253H21.2425V255.68C21.2425 256.16 21.3625 256.44 21.3625 256.44H21.2825C20.0825 253.68 17.2025 252.52 14.3225 252.52C9.1225 252.52 5.7225 256.44 5.7225 262.68C5.7225 268.92 9.4025 273 14.6025 273C17.9225 273 20.1225 271.36 21.3225 268.92H21.4025C21.4025 268.92 21.2425 269.64 21.2425 270.56V272.88C21.2425 277.72 17.9225 279.76 13.6425 279.76C11.8425 279.76 9.7625 279.16 8.2825 278.36ZM7.4825 262.68C7.4825 257.28 10.0425 254.16 14.3225 254.16C18.2425 254.16 21.2825 256.24 21.2825 262.68C21.2825 269.16 18.2425 271.36 14.7225 271.36C10.4425 271.36 7.4825 268.08 7.4825 262.68ZM15.7625 250.36C15.4425 249.52 15.3225 248.8 15.3225 248.12C15.3225 247.12 15.6025 246.16 16.0425 245H14.4825C13.9225 246.28 13.6025 247.32 13.6025 248.48C13.6025 249.08 13.6825 249.68 13.8425 250.36H15.7625ZM29.8941 273H31.5741V263.16C31.5741 257.92 35.4141 254.16 39.9741 254.16C44.4541 254.16 44.8941 257.44 44.8941 260.92V273H46.5741V260.32C46.5741 255.6 45.1741 252.52 39.9741 252.52C34.9741 252.52 32.1741 256.28 31.4941 258.16H31.4141C31.4141 258.16 31.5741 257.44 31.5741 256.52V245H29.8941V273ZM26.5341 243H28.4941L30.7341 239.8H30.8141L33.0541 243H35.0141L31.8141 238.56H29.7341L26.5341 243ZM53.3316 273H55.0116V263.04C55.0116 258.2 58.6116 254.16 63.4116 254.16C67.8916 254.16 68.3316 257.44 68.3316 260.92V273H70.0116V260.32C70.0116 255.6 68.6116 252.52 63.4116 252.52C58.4116 252.52 55.6916 256.08 55.0116 257.96H54.9316C54.9316 257.96 55.0116 257.24 55.0116 256.32V250.24H60.3316V248.64H55.0116V245H53.3316V248.64H50.0916V250.24H53.3316V273ZM76.7691 273H78.4491V253H76.7691V273ZM71.8891 249.32H73.4891C73.4891 248.4 73.6891 246.48 75.0891 246.48C76.9691 246.48 77.4491 249.44 80.1291 249.44C82.3291 249.44 83.4491 247.96 83.4491 245.12H81.8491C81.8491 246.04 81.6491 247.96 80.2491 247.96C78.3691 247.96 77.8891 245 75.2091 245C73.0091 245 71.8891 246.48 71.8891 249.32ZM85.4019 273H87.0819V253H85.4019V273ZM81.4819 248H91.0419V246.4H81.4819V248ZM94.0347 273H95.7147V253H94.0347V273ZM94.9147 249.56C96.9547 249.56 98.9547 248.28 98.9547 245.64V245H97.3547V245.52C97.3547 247.32 96.1947 248.04 94.9147 248.04C93.5947 248.04 92.4747 247.32 92.4747 245.56V245H90.8747V245.64C90.8747 248.28 92.8747 249.56 94.9147 249.56ZM99.3875 277.52C99.3875 280.92 103.548 281.16 103.548 281.16L103.908 279.6C103.908 279.6 101.188 279.36 101.188 277.36C101.188 275.52 103.468 273.68 104.388 273V253H102.708V272.72C101.548 273.52 99.3875 275.24 99.3875 277.52ZM102.548 247.92H104.548V245H102.548V247.92ZM111.339 273H113.019V253H111.339V273ZM119.812 247.92H121.812V245H119.812V247.92ZM119.972 273H121.652V253H119.972V273ZM128.452 247.92H130.452V245H128.452V247.92ZM128.612 273.84C128.612 279 125.412 279.64 123.812 279.64C123.412 279.64 123.052 279.6 122.932 279.56V281.12C123.292 281.16 123.612 281.2 123.932 281.2C125.972 281.2 130.292 280.44 130.292 273.8V253H128.612V273.84ZM133.678 249.44H135.638L137.878 246.24H137.958L140.198 249.44H142.158L138.958 245H136.878L133.678 249.44ZM137.238 273.84C137.238 279 134.038 279.64 132.438 279.64C132.078 279.64 131.838 279.6 131.558 279.56V281.12C131.918 281.2 132.238 281.2 132.558 281.2C134.598 281.2 138.918 280.44 138.918 273.8V253H137.238V273.84ZM145.871 273H147.551V262.44H151.111L158.351 273H160.471L152.551 261.68V261.6L159.791 253H157.591L151.111 260.88H147.551V245H145.871V273ZM151.391 275.64C151.711 276.48 151.831 277.2 151.831 277.88C151.831 278.88 151.551 279.84 151.111 281H152.671C153.231 279.72 153.551 278.68 153.551 277.52C153.551 276.92 153.471 276.32 153.311 275.64H151.391ZM164.777 273H166.457V263H169.897L176.777 273H178.977L171.457 262.28V262.2L179.097 253H176.817L169.897 261.52H166.457V253H164.777V273ZM183.605 268.96C183.605 272.72 186.365 273.16 187.525 273.16C187.845 273.16 188.085 273.12 188.245 273.08V271.52C188.005 271.56 187.805 271.56 187.645 271.56C186.725 271.56 185.285 271.24 185.285 268.44V245H183.605V268.96ZM183.605 243H185.365L188.525 238.56H186.285L183.605 243ZM192.668 268.96C192.668 272.72 195.428 273.16 196.588 273.16C196.908 273.16 197.148 273.12 197.308 273.08V271.52C197.068 271.56 196.868 271.56 196.708 271.56C195.788 271.56 194.348 271.24 194.348 268.44V245H192.668V268.96ZM193.828 275.64C194.148 276.48 194.268 277.2 194.268 277.88C194.268 278.88 193.988 279.84 193.548 281H195.108C195.668 279.72 195.988 278.68 195.988 277.52C195.988 276.92 195.908 276.32 195.748 275.64H193.828ZM201.73 268.96C201.73 272.72 204.49 273.16 205.65 273.16C205.97 273.16 206.21 273.12 206.37 273.08V271.52C206.13 271.56 205.93 271.56 205.77 271.56C204.85 271.56 203.41 271.24 203.41 268.44V245H201.73V268.96ZM206.13 245C206.45 245.84 206.57 246.56 206.57 247.24C206.57 248.24 206.29 249.2 205.85 250.36H207.41C207.97 249.08 208.29 248.04 208.29 246.88C208.29 246.28 208.21 245.68 208.05 245H206.13ZM210.793 268.96C210.793 272.72 213.553 273.16 214.713 273.16C215.033 273.16 215.273 273.12 215.433 273.08V271.52C215.193 271.56 214.993 271.56 214.833 271.56C213.913 271.56 212.473 271.24 212.473 268.44V245H210.793V268.96ZM215.073 259.64H217.513V257.12H215.073V259.64ZM217.248 259.68L220.808 257.64V268.96C220.808 272.72 223.568 273.16 224.728 273.16C225.088 273.16 225.448 273.08 225.448 273.08V271.52C225.448 271.52 225.168 271.56 224.848 271.56C223.928 271.56 222.488 271.24 222.488 268.44V256.68L226.168 254.56V252.64L222.488 254.76V245H220.808V255.76L217.248 257.8V259.68ZM230.168 273H231.848V263.04C231.848 257.92 235.688 254.16 240.248 254.16C244.728 254.16 245.168 257.44 245.168 260.92V273H246.848V260.32C246.848 255.6 245.448 252.52 240.248 252.52C235.248 252.52 232.448 256.28 231.768 258.16H231.688C231.688 258.16 231.848 257.44 231.848 256.52V253H230.168V273ZM238.048 249.44H239.808L242.968 245H240.728L238.048 249.44ZM253.605 273H255.285V263.04C255.285 257.92 259.125 254.16 263.685 254.16C268.165 254.16 268.605 257.44 268.605 260.92V273H270.285V260.32C270.285 255.6 268.885 252.52 263.685 252.52C258.685 252.52 255.885 256.28 255.205 258.16H255.125C255.125 258.16 255.285 257.44 255.285 256.52V253H253.605V273ZM260.965 275.64C261.285 276.48 261.405 277.2 261.405 277.88C261.405 278.88 261.125 279.84 260.685 281H262.245C262.805 279.72 263.125 278.68 263.125 277.52C263.125 276.92 263.045 276.32 262.885 275.64H260.965ZM277.043 273H278.723V263.04C278.723 257.92 282.563 254.16 287.123 254.16C291.603 254.16 292.043 257.44 292.043 260.92V273H293.723V260.32C293.723 255.6 292.323 252.52 287.123 252.52C282.123 252.52 279.323 256.28 278.643 258.16H278.562C278.562 258.16 278.723 257.44 278.723 256.52V253H277.043V273ZM284.803 249.44H286.883L290.083 245H288.123L285.883 248.2H285.803L283.562 245H281.603L284.803 249.44ZM-31.1606 321H-29.4806V311.04C-29.4806 305.92 -25.6406 302.16 -21.0806 302.16C-16.6006 302.16 -16.1606 305.44 -16.1606 308.92V321H-14.4806V308.32C-14.4806 303.6 -15.8806 300.52 -21.0806 300.52C-26.0806 300.52 -28.8806 304.28 -29.5606 306.16H-29.6406C-29.6406 306.16 -29.4806 305.44 -29.4806 304.52V301H-31.1606V321ZM-33.4006 293C-33.0806 293.84 -32.9606 294.56 -32.9606 295.24C-32.9606 296.24 -33.2406 297.2 -33.6806 298.36H-32.1206C-31.5606 297.08 -31.2406 296.04 -31.2406 294.88C-31.2406 294.28 -31.3206 293.68 -31.4806 293H-33.4006ZM-7.72312 321H-6.04312V311.04C-6.04312 306.2 -2.44312 302.16 2.35688 302.16C6.83688 302.16 7.27688 305.44 7.27688 308.92V322.04C7.27688 327.2 4.07688 327.84 2.47688 327.84C1.95688 327.84 1.59688 327.76 1.59688 327.76V329.32C1.59688 329.32 1.99688 329.4 2.59688 329.4C4.63688 329.4 8.95688 328.64 8.95688 322V308.32C8.95688 303.6 7.55688 300.52 2.35688 300.52C-2.64312 300.52 -5.36312 304.08 -6.04312 305.96H-6.12312C-6.12312 305.96 -6.04312 305.24 -6.04312 304.32V301H-7.72312V321ZM14.2744 310.88C14.2744 316.84 18.9144 321.48 24.6344 321.48C30.3544 321.48 34.9944 316.84 34.9944 310.88C34.9944 305.04 30.3544 300.52 24.6344 300.52C18.9144 300.52 14.2744 305.04 14.2744 310.88ZM16.0344 310.88C16.0344 305.92 19.8744 302.16 24.6344 302.16C29.3944 302.16 33.2344 305.92 33.2344 310.88C33.2344 315.96 29.3944 319.84 24.6344 319.84C19.8744 319.84 16.0344 315.96 16.0344 310.88ZM19.8744 296H29.4344V294.4H19.8744V296ZM39.0791 310.88C39.0791 316.84 43.7191 321.48 49.4391 321.48C55.1591 321.48 59.7991 316.84 59.7991 310.88C59.7991 305.04 55.1591 300.52 49.4391 300.52C43.7191 300.52 39.0791 305.04 39.0791 310.88ZM40.8391 310.88C40.8391 305.92 44.6791 302.16 49.4391 302.16C54.1991 302.16 58.0391 305.92 58.0391 310.88C58.0391 315.96 54.1991 319.84 49.4391 319.84C44.6791 319.84 40.8391 315.96 40.8391 310.88ZM49.4391 297.56C51.4791 297.56 53.4791 296.28 53.4791 293.64V293H51.8791V293.52C51.8791 295.32 50.7191 296.04 49.4391 296.04C48.1191 296.04 46.9991 295.32 46.9991 293.56V293H45.3991V293.64C45.3991 296.28 47.3991 297.56 49.4391 297.56ZM63.8838 310.88C63.8838 316.84 68.5238 321.48 74.2438 321.48C79.9638 321.48 84.6038 316.84 84.6038 310.88C84.6038 305.04 79.9638 300.52 74.2438 300.52C68.5238 300.52 63.8838 305.04 63.8838 310.88ZM65.6438 310.88C65.6438 305.92 69.4838 302.16 74.2438 302.16C79.0038 302.16 82.8438 305.92 82.8438 310.88C82.8438 315.96 79.0038 319.84 74.2438 319.84C69.4838 319.84 65.6438 315.96 65.6438 310.88ZM75.0438 297.44H76.8038L79.9638 293H77.7238L75.0438 297.44ZM70.4438 297.44H72.3238L74.9238 293H72.9238L70.4438 297.44ZM88.7284 311.04C88.7284 317.4 93.4884 321.48 99.0484 321.48C103.168 321.48 106.808 319.24 108.448 315.48H108.528C110.128 319.24 113.768 321.48 117.968 321.48C120.568 321.48 123.328 320.4 125.088 318.72L124.168 317.32C122.488 318.92 120.248 319.84 117.968 319.84C113.448 319.84 109.568 316.72 109.408 310.72H125.448C125.448 310.72 125.528 310.08 125.528 309.64C125.528 304.8 122.808 300.52 117.368 300.52C113.528 300.52 110.048 302.6 108.488 306.48H108.408C106.768 302.8 103.128 300.52 99.0484 300.52C93.4884 300.52 88.7284 304.68 88.7284 311.04ZM109.528 309.16C110.248 304.48 113.648 302.08 117.328 302.08C120.648 302.08 123.568 304.28 123.768 309.16H109.528ZM90.4884 311.04C90.4884 305.72 94.3684 302.16 99.0484 302.16C103.608 302.16 107.648 305.56 107.648 310.84C107.648 316.36 103.728 319.84 99.0484 319.84C94.3684 319.84 90.4884 316.36 90.4884 311.04ZM131.027 321H132.707V312.36C132.707 308.28 134.587 302.56 139.267 302.56C139.667 302.56 140.067 302.6 140.187 302.64V300.96C139.827 300.88 139.427 300.84 139.027 300.84C135.867 300.84 133.627 303.36 132.627 306.44H132.547C132.547 306.44 132.707 305.72 132.707 304.8V301H131.027V321ZM134.827 297.44H136.587L139.747 293H137.507L134.827 297.44ZM144.621 321H146.301V312.36C146.301 308.28 148.181 302.56 152.861 302.56C153.261 302.56 153.661 302.6 153.781 302.64V300.96C153.421 300.88 153.021 300.84 152.621 300.84C149.461 300.84 147.221 303.36 146.221 306.44H146.141C146.141 306.44 146.301 305.72 146.301 304.8V301H144.621V321ZM144.541 323.64C144.861 324.48 144.981 325.2 144.981 325.88C144.981 326.88 144.701 327.84 144.261 329H145.821C146.381 327.72 146.701 326.68 146.701 325.52C146.701 324.92 146.621 324.32 146.461 323.64H144.541ZM158.214 321H159.894V312.36C159.894 308.28 161.774 302.56 166.454 302.56C166.854 302.56 167.254 302.6 167.374 302.64V300.96C167.014 300.88 166.614 300.84 166.214 300.84C163.054 300.84 160.814 303.36 159.814 306.44H159.734C159.734 306.44 159.894 305.72 159.894 304.8V301H158.214V321ZM161.894 297.44H163.974L167.174 293H165.214L162.974 296.2H162.894L160.654 293H158.694L161.894 297.44ZM169.968 318.6C171.808 320.6 174.648 321.48 177.208 321.48C180.888 321.48 183.608 319.28 183.608 316.08C183.608 309.44 172.608 311 172.608 305.8C172.608 303.2 174.848 302.16 177.128 302.16C178.968 302.16 181.008 302.8 182.168 304.04L183.168 302.68C181.648 301.12 179.328 300.52 177.248 300.52C173.848 300.52 170.848 302.36 170.848 305.92C170.848 312.44 181.848 311 181.848 316.08C181.848 318.56 179.688 319.84 177.248 319.84C174.968 319.84 172.568 318.92 171.048 317.32L169.968 318.6ZM176.208 297.44H177.968L181.128 293H178.888L176.208 297.44ZM187.156 318.6C188.996 320.6 191.836 321.48 194.396 321.48C198.076 321.48 200.796 319.28 200.796 316.08C200.796 309.44 189.796 311 189.796 305.8C189.796 303.2 192.036 302.16 194.316 302.16C196.156 302.16 198.196 302.8 199.356 304.04L200.356 302.68C198.836 301.12 196.516 300.52 194.436 300.52C191.036 300.52 188.036 302.36 188.036 305.92C188.036 312.44 199.036 311 199.036 316.08C199.036 318.56 196.876 319.84 194.436 319.84C192.156 319.84 189.756 318.92 188.236 317.32L187.156 318.6ZM190.116 297.44H192.076L194.316 294.24H194.396L196.636 297.44H198.596L195.396 293H193.316L190.116 297.44ZM210.023 324.72C210.023 324.72 210.263 324.68 210.503 324.68C212.063 324.68 212.943 325.28 212.943 326.2C212.943 327.36 211.863 327.68 210.783 327.68C210.223 327.68 209.543 327.6 209.143 327.48V329C209.703 329.12 210.303 329.16 210.903 329.16C212.783 329.16 214.543 328.32 214.543 326.12C214.543 324.68 213.423 323.64 211.783 323.4L212.143 321.44C215.543 321.24 218.023 319.12 218.023 316.08C218.023 309.44 207.023 311 207.023 305.8C207.023 303.2 209.263 302.16 211.543 302.16C213.383 302.16 215.423 302.8 216.583 304.04L217.583 302.68C216.063 301.12 213.743 300.52 211.663 300.52C208.263 300.52 205.263 302.36 205.263 305.92C205.263 312.44 216.263 311 216.263 316.08C216.263 318.56 214.103 319.84 211.663 319.84C209.383 319.84 206.983 318.92 205.463 317.32L204.383 318.6C205.983 320.36 208.423 321.24 210.703 321.44L210.023 324.72ZM221.609 318.6C223.449 320.6 226.289 321.48 228.849 321.48C232.529 321.48 235.249 319.28 235.249 316.08C235.249 309.44 224.249 311 224.249 305.8C224.249 303.2 226.489 302.16 228.769 302.16C230.609 302.16 232.649 302.8 233.809 304.04L234.809 302.68C233.289 301.12 230.969 300.52 228.889 300.52C225.489 300.52 222.489 302.36 222.489 305.92C222.489 312.44 233.489 311 233.489 316.08C233.489 318.56 231.329 319.84 228.889 319.84C226.609 319.84 224.209 318.92 222.689 317.32L221.609 318.6ZM227.769 297.44H229.849L233.049 293H231.089L228.849 296.2H228.769L226.529 293H224.569L227.769 297.44ZM243.236 324.72C243.236 324.72 243.476 324.68 243.716 324.68C245.276 324.68 246.156 325.28 246.156 326.2C246.156 327.36 245.076 327.68 243.996 327.68C243.436 327.68 242.756 327.6 242.356 327.48V329C242.916 329.12 243.516 329.16 244.116 329.16C245.996 329.16 247.756 328.32 247.756 326.12C247.756 324.68 246.636 323.64 244.996 323.4L245.436 320.88C246.236 321.08 246.996 321.16 247.596 321.16C248.076 321.16 248.436 321.12 248.596 321.08V319.52C248.276 319.6 247.956 319.6 247.676 319.6C246.076 319.6 242.916 318.92 242.916 313.64V302.64H248.156V301.12H242.916V295.44H241.236V301.12H238.596V302.64H241.236V313.76C241.236 317.56 242.596 319.4 244.196 320.32L243.236 324.72ZM253.385 313.76C253.385 320.4 257.665 321.16 259.745 321.16C260.225 321.16 260.585 321.12 260.745 321.08V319.52C260.425 319.6 260.105 319.6 259.825 319.6C258.225 319.6 255.065 318.92 255.065 313.64V302.64H260.305V301.12H255.065V295.44H253.385V301.12H250.745V302.64H253.385V313.76ZM257.985 293C258.305 293.84 258.425 294.56 258.425 295.24C258.425 296.24 258.145 297.2 257.705 298.36H259.265C259.825 297.08 260.145 296.04 260.145 294.88C260.145 294.28 260.065 293.68 259.905 293H257.985ZM262.973 309.2H265.613V313.76C265.613 320.4 269.893 321.16 271.973 321.16C272.573 321.16 272.973 321.08 272.973 321.08V319.52C272.973 319.52 272.613 319.6 272.053 319.6C270.453 319.6 267.293 318.92 267.293 313.64V309.2H272.533V307.6H267.293V302.64H272.533V301.12H267.293V295.44H265.613V301.12H262.973V302.64H265.613V307.6H262.973V309.2ZM277.037 313.68C277.037 318.76 278.717 321.48 283.637 321.48C288.477 321.48 291.237 317.72 291.917 315.84H291.997C291.997 315.84 291.837 316.56 291.837 317.48V321H293.517V301H291.837V310.76C291.837 315.44 288.637 319.84 283.637 319.84C279.157 319.84 278.717 316.56 278.717 313.08V301H277.037V313.68ZM279.517 297.32H281.117C281.117 296.4 281.317 294.48 282.717 294.48C284.597 294.48 285.077 297.44 287.757 297.44C289.957 297.44 291.077 295.96 291.077 293.12H289.477C289.477 294.04 289.277 295.96 287.877 295.96C285.997 295.96 285.517 293 282.837 293C280.637 293 279.517 294.48 279.517 297.32Z" fill="black"/>
<path d="M512.555 495H530.265C538.945 495 546.225 490.24 546.225 480.93C546.225 475.4 543.285 470.5 538.035 468.96V468.82C541.815 466.86 544.195 463.01 544.195 458.18C544.195 450.2 538.245 445.58 529.845 445.58H512.555V495ZM519.485 466.37V451.6H529.775C534.465 451.6 537.125 454.54 537.125 458.88C537.125 463.22 534.325 466.37 529.845 466.37H519.485ZM519.485 488.98V472.11H530.615C535.795 472.11 539.085 475.54 539.085 480.51C539.085 485.62 535.935 488.98 530.615 488.98H519.485ZM550.161 495H557.231L562.201 480.79H580.821L585.791 495H592.931L575.221 445.58H567.871L550.161 495ZM564.021 475.05L569.551 459.44C570.391 456.85 571.441 452.37 571.441 452.37H571.581C571.581 452.37 572.701 456.85 573.541 459.44L579.001 475.05H564.021ZM600.465 495H629.585V488.98H607.395V445.58H600.465V495ZM637.311 495H667.271V488.98H644.241V473.09H661.951V467.07H644.241V451.6H666.081V445.58H637.311V495ZM676.823 495H683.753V462.94C683.753 460.14 683.333 455.73 683.333 455.73H683.473C683.473 455.73 685.783 460.21 687.533 462.94L709.583 495H716.373V445.58H709.513V477.64C709.513 480.44 709.933 484.85 709.933 484.85H709.793C709.793 484.85 707.483 480.37 705.733 477.64L683.683 445.58H676.823V495ZM726.449 470.01C726.449 484.5 736.459 495.84 751.789 495.84C760.539 495.84 766.699 492.2 770.899 488L767.189 483.03C763.199 487.02 757.529 489.47 751.999 489.47C740.519 489.47 733.589 480.44 733.589 469.94C733.589 459.51 740.379 451.04 751.859 451.04C756.969 451.04 762.499 453.21 766.139 456.43L769.639 451.25C764.879 446.7 757.949 444.74 751.579 444.74C736.879 444.74 726.449 455.66 726.449 470.01ZM779.635 495H786.565V445.58H779.635V495ZM794.204 495H801.274L806.244 480.79H824.864L829.834 495H836.974L819.264 445.58H811.914L794.204 495ZM808.064 475.05L813.594 459.44C814.434 456.85 815.484 452.37 815.484 452.37H815.624C815.624 452.37 816.744 456.85 817.584 459.44L823.044 475.05H808.064ZM840.336 470.22C840.336 485.34 851.326 495.84 864.626 495.84C870.716 495.84 876.456 493.32 879.816 489.82H879.956C879.956 489.82 879.886 490.87 879.886 491.92V495H885.976V470.15H871.626V476.17H879.606V483.31C876.036 487.02 870.926 489.47 865.606 489.47C855.316 489.47 847.476 481.49 847.476 470.08C847.476 459.58 854.476 451.04 866.026 451.04C871.066 451.04 876.736 453.07 880.026 455.87L883.526 450.76C878.556 446.56 871.906 444.74 865.536 444.74C851.116 444.74 840.336 455.94 840.336 470.22ZM891.206 495H898.276L903.246 480.79H921.866L926.836 495H933.976L916.266 445.58H908.916L891.206 495ZM905.066 475.05L910.596 459.44C911.436 456.85 912.486 452.37 912.486 452.37H912.626C912.626 452.37 913.746 456.85 914.586 459.44L920.046 475.05H905.066Z" fill="#E3FF34"/>
<path d="M450.014 163.32H467.934V183H474.494V163.32H492.334V157.08H474.494V137.4H467.934V157.08H450.014V163.32ZM797.626 162.84L834.906 179.48V172.36L806.346 160.28V160.12L834.906 148.04V140.92L797.626 157.56V162.84ZM844.438 155.8H882.598V149.56H844.438V155.8ZM844.438 170.92H882.598V164.68H844.438V170.92ZM892.049 179.48L929.329 162.84V157.56L892.049 140.92V148.04L920.609 160.12V160.28L892.049 172.36V179.48ZM939.501 195.72H946.301V119.64H939.501V195.72ZM958.534 166.68H964.934C964.934 163.4 966.054 159.24 970.134 159.24C976.294 159.24 977.174 167 985.574 167C992.454 167 996.694 162.84 996.694 153.48H990.374C990.374 156.84 989.254 161 985.014 161C979.014 161 978.134 153.16 969.734 153.16C962.774 153.16 958.534 157.4 958.534 166.68ZM497.213 251.8H528.893V267H535.373V245.56H497.213V251.8ZM543.451 259.32H561.371V279H567.931V259.32H585.771V253.08H567.931V233.4H561.371V253.08H543.451V259.32ZM544.731 286.6V292.76H584.491V286.6H544.731ZM589.943 274.6L594.423 279L610.743 260.84L627.063 279L631.543 274.6L614.983 256.2L631.543 237.8L627.063 233.4L610.743 251.56L594.423 233.4L589.943 237.8L606.503 256.2L589.943 274.6ZM637.635 245.16H660.915V239.88H643.875C644.435 232.36 660.355 231.56 660.355 219.88C660.355 213.56 655.395 209.4 648.835 209.4C644.355 209.4 640.035 211.96 637.875 215.16L641.795 218.76C643.475 216.76 645.795 214.92 648.595 214.92C651.875 214.92 654.355 217.16 654.355 220.12C654.355 228.12 637.395 228.76 637.395 242.28C637.395 243.16 637.475 244.2 637.635 245.16ZM679.294 245.96C686.734 245.96 691.774 240.52 691.774 234.36C691.774 227.96 687.214 224.84 682.414 224.12L691.134 214.04V210.2H669.454V215.56H680.734C682.174 215.56 683.694 215.32 683.694 215.32V215.48C683.694 215.48 682.494 216.52 681.694 217.4L674.574 225.64L675.934 228.68H678.654C682.174 228.68 685.694 230.6 685.694 234.36C685.694 237.88 682.574 240.44 679.054 240.44C675.534 240.44 672.414 238.52 670.894 236.44L667.534 240.68C670.334 244.2 675.054 245.96 679.294 245.96ZM701.354 245.16H722.154V239.88H714.794V210.2H709.434L700.954 218.44L704.554 222.36L707.434 219.64C708.474 218.6 708.794 217.88 708.794 217.88H708.954C708.954 217.88 708.794 218.84 708.794 219.96V239.88H701.354V245.16ZM788.693 279H794.613V270.44H799.573V265.16H794.613V244.04H788.133L772.133 266.44V270.44H788.693V279ZM778.613 265.16V265L786.453 254.52C787.733 252.84 788.773 250.68 788.773 250.68H788.933C788.933 250.68 788.693 253.24 788.693 255.32V265.16H778.613ZM753.333 279L780.133 222.52H774.213L747.333 279H753.333ZM731.253 257.4H752.053V252.12H744.693V222.44H739.333L730.853 230.68L734.453 234.6L737.333 231.88C738.373 230.84 738.693 230.12 738.693 230.12H738.853C738.853 230.12 738.693 231.08 738.693 232.2V252.12H731.253V257.4ZM850.941 279H874.221V273.72H857.181C857.741 266.2 873.661 265.4 873.661 253.72C873.661 247.4 868.701 243.24 862.141 243.24C857.661 243.24 853.341 245.8 851.181 249L855.101 252.6C856.781 250.6 859.101 248.76 861.901 248.76C865.181 248.76 867.661 251 867.661 253.96C867.661 261.96 850.701 262.6 850.701 276.12C850.701 277 850.781 278.04 850.941 279ZM829.661 279L856.461 222.52H850.541L823.661 279H829.661ZM807.501 257.4H828.301V252.12H820.941V222.44H815.581L807.101 230.68L810.701 234.6L813.581 231.88C814.621 230.84 814.941 230.12 814.941 230.12H815.101C815.101 230.12 814.941 231.08 814.941 232.2V252.12H807.501V257.4ZM941.69 279H947.61V270.44H952.57V265.16H947.61V244.04H941.13L925.13 266.44V270.44H941.69V279ZM931.61 265.16V265L939.45 254.52C940.73 252.84 941.77 250.68 941.77 250.68H941.93C941.93 250.68 941.69 253.24 941.69 255.32V265.16H931.61ZM893.45 258.2C900.89 258.2 905.93 252.76 905.93 246.6C905.93 240.2 901.37 237.08 896.57 236.36L905.29 226.28V222.44H883.61V227.8H894.89C896.33 227.8 897.85 227.56 897.85 227.56V227.72C897.85 227.72 896.65 228.76 895.85 229.64L888.73 237.88L890.09 240.92H892.81C896.33 240.92 899.85 242.84 899.85 246.6C899.85 250.12 896.73 252.68 893.21 252.68C889.69 252.68 886.57 250.76 885.05 248.68L881.69 252.92C884.49 256.44 889.21 258.2 893.45 258.2ZM906.33 279L933.13 222.52H927.21L900.33 279H906.33ZM975.108 244.2H982.628V236.92H975.108V244.2ZM958.708 259.32H999.108V253.08H958.708V259.32ZM975.108 275.48H982.628V268.2H975.108V275.48Z" fill="black"/>
</svg>
