<svg width="1440" height="1450" viewBox="0 0 1440 1450" fill="none" xmlns="http://www.w3.org/2000/svg">
<path d="M-7.21631 -40.7615H1441.78V1449.24H-7.21631V-40.7615Z" fill="black"/>
<path fill-rule="evenodd" clip-rule="evenodd" d="M150.666 -67.7832L1371.85 105.243L1371.71 106.234L150.902 -66.7397L-30.7711 53.8791L1281.33 183.741L1281.23 184.736L-33.6616 54.5979L150.666 -67.7832Z" fill="black"/>
<path d="M-15.4786 57.9666L-121.216 950.292L1219.68 1077.92L1305.78 184.22L883.377 143.524L416.711 98.5628L-15.4786 57.9666Z" fill="#E3FF34"/>
<path fill-rule="evenodd" clip-rule="evenodd" d="M416.951 96.0744L1308.51 181.971L1221.93 1080.65L-124 952.538L-17.6745 55.2494L416.951 96.0744ZM416.471 101.051L-13.2834 60.6838L-118.433 948.046L1217.43 1075.2L1303.05 186.469L416.471 101.051Z" fill="black"/>
<path d="M84.5282 448.884L99.0279 450.28L117.177 347.68C118.577 339.755 119.621 326.706 119.621 326.706L120.041 326.747C120.041 326.747 123.349 340.851 126.003 348.53L153.373 427.729L166.822 429.023L209.009 356.521C213.1 349.28 218.767 336.676 218.767 336.676L219.187 336.716C219.187 336.716 217.763 349.304 217.625 357.35L215.867 461.529L230.366 462.925L232.821 314.063L217.901 312.626L170.669 395.672C166.579 402.913 161.785 413.056 161.785 413.056L161.364 413.016C161.364 413.016 158.593 402.144 155.959 394.256L125.439 303.724L110.519 302.288L84.5282 448.884Z" fill="black"/>
<path d="M270.374 414.815C267.218 447.597 288.29 471.047 321.702 474.263C355.115 477.48 380.274 458.481 383.43 425.699L392.696 329.455L377.986 328.038L368.781 423.653C366.292 449.5 348.234 463.032 322.807 460.584C297.59 458.156 282.446 441.428 284.894 416.001L294.14 319.966L279.64 318.57L270.374 414.815Z" fill="black"/>
<path d="M409.189 463.598C420.203 476.96 436.788 485.343 453.809 486.982C482.388 489.733 500.709 473.47 502.894 450.774C507.466 403.283 433.006 405.658 436.426 370.144C437.923 354.594 452.892 346.703 469.704 348.321C481.472 349.454 493.805 355.732 501.062 364.066L509.38 352.565C500.203 342.138 485.539 335.848 471.669 334.513C445.612 332.004 423.751 345.382 421.425 369.548C417.014 415.359 491.413 413.614 487.832 450.809C486.355 466.149 473.006 474.832 455.565 473.153C440.855 471.737 427.253 463.216 418.877 453.29L409.189 463.598Z" fill="black"/>
<path d="M531.211 491.889L618.21 500.265L619.464 487.236L546.965 480.256L552.246 425.409L608.354 430.811L609.608 417.782L553.5 412.38L558.679 358.584L627.186 365.18L628.44 352.151L545.434 344.16L531.211 491.889Z" fill="black"/>
<path d="M643.068 426.942C638.88 470.441 667.754 507.58 710.833 511.727C754.122 515.895 789.341 484.927 793.529 441.428C797.595 399.189 768.83 363.122 725.541 358.954C682.462 354.807 647.134 384.704 643.068 426.942ZM658.198 428.399C661.556 393.515 689.763 369.296 724.226 372.613C758.9 375.952 781.757 405.088 778.399 439.971C774.919 476.115 746.821 501.406 712.148 498.068C677.685 494.75 654.718 464.543 658.198 428.399Z" fill="black"/>
<path d="M61.2126 631.581C72.2274 644.943 88.8115 653.326 105.833 654.965C134.412 657.717 152.733 641.453 154.918 618.758C159.49 571.266 85.0305 573.641 88.4496 538.127C89.9467 522.577 104.916 514.686 121.728 516.304C133.496 517.437 145.829 523.715 153.086 532.049L161.404 520.548C152.228 510.121 137.563 503.831 123.693 502.496C97.6358 499.987 75.7752 513.365 73.4486 537.531C69.0382 583.342 143.437 581.597 139.856 618.792C138.379 634.132 125.03 642.815 107.589 641.136C92.8787 639.72 79.2769 631.199 70.9007 621.273L61.2126 631.581Z" fill="black"/>
<path d="M164.782 658.095L180.123 659.572L201.466 614.119L260.936 619.845L273.425 668.555L288.766 670.032L248.772 517.083L233.221 515.586L164.782 658.095ZM207.093 601.936L231.795 550.231C234.984 543.539 239.33 531.444 239.33 531.444L239.75 531.485C239.75 531.485 241.709 544.187 243.563 551.364L257.737 606.811L207.093 601.936Z" fill="black"/>
<path d="M314.368 672.497L328.868 673.893L339.105 567.561C339.854 559.786 339.766 547.476 339.766 547.476L340.187 547.517C340.187 547.517 346.118 560.813 350.453 568.654L415.657 682.248L429.736 683.604L443.959 535.875L429.459 534.479L419.222 640.81C418.473 648.585 418.561 660.895 418.561 660.895L418.14 660.854C418.14 660.854 412.209 647.558 407.874 639.718L342.671 526.123L328.591 524.767L314.368 672.497Z" fill="black"/>
<path d="M462.41 670.207C473.425 683.568 490.009 691.952 507.03 693.59C535.61 696.342 553.93 680.078 556.115 657.383C560.688 609.891 486.228 612.266 489.647 576.753C491.144 561.202 506.114 553.311 522.925 554.93C534.693 556.063 547.026 562.34 554.283 570.674L562.601 559.174C553.425 548.746 538.76 542.456 524.891 541.121C498.833 538.613 476.973 551.99 474.646 576.157C470.236 621.967 544.635 620.222 541.054 657.417C539.577 672.758 526.228 681.441 508.786 679.762C494.076 678.345 480.474 669.825 472.098 659.899L462.41 670.207Z" fill="black"/>
<path d="M1221.37 1075.03L1378.6 889.897L1374.36 101.402L1281.75 182.507L1221.37 1075.03Z" fill="#E3FF34"/>
<path fill-rule="evenodd" clip-rule="evenodd" d="M81.6824 -24.1528L1376.85 99.1271L1381.1 890.809L1218.36 1082.44L1279.09 184.766L-25.5044 60.5887L81.6824 -24.1528ZM1284.17 183.707L1224.38 1067.63L1376.09 888.984L1371.89 106.888L1284.17 183.707ZM1368.35 103.341L83.2079 -18.985L-12.6384 56.7907L1280.91 179.916L1368.35 103.341Z" fill="black"/>
<path fill-rule="evenodd" clip-rule="evenodd" d="M1283.38 902.14L1220.37 1077.25L1225.08 1078.94L1287.69 904.927L1376.87 893.239L1376.22 888.281L1288.53 899.775L1332.33 143.378L1327.34 143.089L1283.38 902.14Z" fill="black"/>
<path d="M1116.66 235.876C1116.25 240.112 1119.04 243.56 1123.5 243.989C1125.7 244.201 1127.93 243.516 1129.35 242.274L1128.45 240.19C1127.25 241.228 1125.48 241.817 1123.92 241.667C1120.99 241.385 1119.14 238.985 1119.42 236.114C1119.69 233.243 1121.96 231.296 1124.81 231.569C1126.28 231.712 1127.7 232.523 1128.55 233.561L1130.02 231.79C1128.82 230.239 1126.79 229.397 1124.92 229.217C1120.49 228.791 1117.06 231.695 1116.66 235.876Z" fill="black"/>
<path d="M1131.52 237.279C1131.11 241.571 1134.21 245.02 1138.41 245.425C1142.6 245.828 1146.3 243.033 1146.71 238.741C1147.12 234.477 1144.02 231.056 1139.81 230.651C1135.63 230.248 1131.93 233.015 1131.52 237.279ZM1134.28 237.545C1134.56 234.618 1136.94 232.737 1139.61 232.995C1142.26 233.25 1144.26 235.552 1143.98 238.478C1143.69 241.433 1141.29 243.339 1138.64 243.084C1135.96 242.826 1133.99 240.499 1134.28 237.545Z" fill="black"/>
<path d="M1147.76 244.243C1148.82 245.471 1150.57 246.596 1152.75 246.805C1155.64 247.084 1158.29 245.848 1158.57 242.95C1158.75 241.138 1157.74 239.972 1156.36 239.389L1156.36 239.333C1157.52 238.967 1158.56 238.082 1158.73 236.326C1158.97 233.818 1157.01 232.307 1154.33 232.049C1152.11 231.835 1150.45 232.406 1149.28 233.11L1150.11 235.018C1151.28 234.315 1152.43 234.004 1153.66 234.122C1155.22 234.272 1156.1 235.088 1155.97 236.398C1155.83 237.819 1154.69 238.328 1153.1 238.175L1151.62 238.033L1151.43 239.984L1153.16 240.15C1155.14 240.341 1155.98 241.21 1155.85 242.575C1155.71 244.108 1154.32 244.762 1152.7 244.607C1151 244.443 1149.76 243.311 1149.19 242.58L1147.76 244.243Z" fill="black"/>
<path d="M1164.32 245.331C1166.37 242.716 1166.98 238.724 1167.18 236.606L1167.26 235.853L1171.49 236.261L1170.56 245.932L1164.32 245.331ZM1159.8 244.896L1159.27 250.471L1161.8 250.715L1162.12 247.37L1172.58 248.377L1172.25 251.721L1174.73 251.96L1175.27 246.386L1173.26 246.192L1174.41 234.319L1164.88 233.402L1164.63 235.994C1164.42 238.168 1163.77 242.55 1161.53 245.063L1159.8 244.896Z" fill="black"/>
<path d="M1177.09 244.929C1176.84 247.577 1178.95 249.327 1181.4 249.564C1183.49 249.765 1185.34 248.677 1186.3 247.138L1186.36 247.144C1186.36 247.144 1186.23 247.609 1186.17 248.25L1186.03 249.672L1188.57 249.916L1189.43 240.997C1189.77 237.43 1187.92 235.283 1184.38 234.942C1182.4 234.752 1180.19 235.27 1178.95 236.107L1179.85 238.191C1181.07 237.493 1182.55 237.072 1183.94 237.206C1185.7 237.375 1186.96 238.284 1186.74 240.598L1186.71 240.876L1185.98 240.807C1183.06 240.525 1177.52 240.498 1177.09 244.929ZM1179.82 244.967C1180.07 242.375 1183.82 242.567 1185.82 242.76L1186.52 242.827L1186.47 243.357C1186.27 245.447 1184.62 247.707 1182.25 247.479C1180.49 247.31 1179.71 246.082 1179.82 244.967Z" fill="black"/>
<path d="M1192.56 250.301L1195.27 250.561L1195.85 244.513L1202.98 245.2L1202.4 251.248L1205.1 251.508L1206.46 237.405L1203.76 237.145L1203.21 242.887L1196.07 242.2L1196.62 236.458L1193.92 236.198L1192.56 250.301Z" fill="black"/>
<path d="M985.007 264.475L987.71 264.736L988.292 258.688L995.427 259.375L994.845 265.423L997.549 265.683L998.906 251.58L996.203 251.32L995.65 257.061L988.515 256.374L989.068 250.633L986.364 250.373L985.007 264.475Z" fill="black"/>
<path d="M1000.92 262.125C1000.66 264.773 1002.77 266.523 1005.23 266.76C1007.32 266.961 1009.16 265.873 1010.13 264.334L1010.18 264.34C1010.18 264.34 1010.06 264.805 1009.99 265.446L1009.86 266.868L1012.39 267.112L1013.25 258.193C1013.6 254.626 1011.75 252.479 1008.21 252.138C1006.23 251.948 1004.01 252.466 1002.78 253.303L1003.68 255.387C1004.9 254.689 1006.37 254.268 1007.77 254.402C1009.52 254.571 1010.78 255.48 1010.56 257.794L1010.53 258.072L1009.81 258.003C1006.88 257.721 1001.34 257.694 1000.92 262.125ZM1003.64 262.163C1003.89 259.571 1007.64 259.763 1009.65 259.956L1010.35 260.023L1010.3 260.553C1010.09 262.643 1008.44 264.903 1006.07 264.675C1004.32 264.506 1003.54 263.278 1003.64 262.163Z" fill="black"/>
<path d="M1023.12 261C1022.71 265.292 1025.8 268.741 1030.01 269.146C1034.19 269.549 1037.89 266.754 1038.31 262.462C1038.72 258.198 1035.62 254.777 1031.41 254.372C1027.23 253.969 1023.53 256.736 1023.12 261ZM1025.88 261.265C1026.16 258.339 1028.53 256.458 1031.21 256.716C1033.86 256.97 1035.86 259.273 1035.58 262.199C1035.29 265.154 1032.89 267.06 1030.24 266.805C1027.56 266.547 1025.59 264.22 1025.88 261.265Z" fill="black"/>
<path d="M1040.64 262.715C1040.24 266.952 1043.03 270.399 1047.49 270.828C1049.69 271.04 1051.92 270.355 1053.33 269.113L1052.44 267.029C1051.24 268.067 1049.47 268.656 1047.91 268.506C1044.98 268.224 1043.13 265.824 1043.41 262.953C1043.68 260.082 1045.95 258.135 1048.79 258.408C1050.27 258.551 1051.68 259.362 1052.54 260.401L1054.01 258.629C1052.8 257.079 1050.78 256.236 1048.91 256.057C1044.48 255.63 1041.05 258.535 1040.64 262.715Z" fill="black"/>
<path d="M1056.07 271.317L1058.78 271.578L1059.36 265.53L1066.49 266.217L1065.91 272.265L1068.61 272.525L1069.97 258.422L1067.27 258.162L1066.72 263.903L1059.58 263.216L1060.13 257.475L1057.43 257.215L1056.07 271.317Z" fill="black"/>
<path d="M1072.55 265.758C1072.13 270.051 1075.23 273.5 1079.44 273.905C1083.62 274.307 1087.32 271.513 1087.74 267.221C1088.15 262.957 1085.04 259.536 1080.84 259.13C1076.65 258.728 1072.96 261.494 1072.55 265.758ZM1075.31 266.024C1075.59 263.098 1077.96 261.217 1080.64 261.474C1083.29 261.729 1085.29 264.031 1085 266.958C1084.72 269.912 1082.31 271.818 1079.67 271.564C1076.99 271.306 1075.02 268.978 1075.31 266.024Z" fill="black"/>
<path d="M1090.31 274.614L1096.33 275.193C1099.4 275.489 1101.65 274.299 1101.9 271.679C1102.05 270.118 1101.27 268.664 1099.55 268.077L1099.55 268.049C1100.89 267.615 1101.73 266.514 1101.86 265.149C1102.08 262.78 1100.34 261.346 1097.5 261.072L1091.67 260.511L1090.31 274.614ZM1093.8 266.736L1094.19 262.639L1096.76 262.886C1098.46 263.049 1099.2 263.796 1099.08 265.078C1098.95 266.388 1098.06 267.146 1096.45 266.991L1093.8 266.736ZM1093.2 272.979L1093.63 268.547L1096.5 268.824C1098.36 269.004 1099.31 269.939 1099.18 271.332C1099.05 272.642 1098.05 273.446 1096.1 273.258L1093.2 272.979Z" fill="black"/>
<path d="M1104.55 268.868C1104.15 273.049 1106.91 276.549 1111.34 276.976C1113.29 277.163 1115.51 276.618 1116.99 275.495L1116.04 273.406C1114.83 274.302 1113.24 274.795 1111.73 274.651C1109.19 274.406 1107.18 272.553 1107.33 269.501L1117.59 270.489C1117.68 270.104 1117.77 269.719 1117.81 269.357C1118.16 265.734 1116.33 262.547 1112.34 262.164C1108.33 261.777 1104.98 264.381 1104.55 268.868ZM1107.6 267.558C1108.22 265.255 1109.99 264.047 1112.08 264.249C1113.92 264.426 1115.31 265.853 1115.16 268.286L1107.6 267.558Z" fill="black"/>
<path d="M1127.02 278.148L1129.78 278.414L1131.92 266.102C1132.15 264.915 1132.26 263.153 1132.26 263.153L1132.32 263.159C1132.32 263.159 1132.75 265.113 1133.1 266.215L1136.14 275.454L1138.6 275.69L1143.38 267.205C1143.93 266.161 1144.72 264.409 1144.72 264.409L1144.77 264.414C1144.77 264.414 1144.55 266.109 1144.55 267.318L1144.3 279.812L1147.04 280.075L1147.34 260.245L1144.47 259.968L1138.9 270.178C1138.35 271.222 1137.67 272.732 1137.67 272.732L1137.62 272.726C1137.62 272.726 1137.26 271.117 1136.92 269.987L1133.41 258.903L1130.53 258.627L1127.02 278.148Z" fill="black"/>
<path d="M1151.17 275.353C1150.81 279.088 1152.29 280.918 1155.47 281.224C1158.23 281.49 1160.28 279.747 1161.03 278.412L1161.08 278.417C1161.08 278.417 1160.93 278.88 1160.87 279.438L1160.68 281.389L1163.3 281.641L1164.66 267.538L1161.99 267.281L1161.35 273.886C1161.08 276.673 1159.14 279.046 1156.24 278.767C1154.01 278.552 1153.74 276.951 1153.93 275L1154.74 266.583L1152.04 266.323L1151.17 275.353Z" fill="black"/>
<path d="M1166.44 280.199C1167.7 281.755 1169.73 282.597 1171.62 282.78C1174.63 283.069 1176.87 281.512 1177.1 279.115C1177.54 274.461 1170.19 274.569 1170.46 271.809C1170.57 270.611 1171.66 270.153 1173.02 270.284C1174.28 270.405 1175.71 271.021 1176.47 271.882L1177.75 270.036C1176.63 268.803 1174.94 268.19 1173.32 268.035C1170.57 267.769 1168.12 268.94 1167.86 271.616C1167.41 276.242 1174.73 276.215 1174.47 278.919C1174.36 280.089 1173.32 280.664 1171.9 280.527C1170.42 280.385 1168.86 279.616 1167.9 278.483L1166.44 280.199Z" fill="black"/>
<path d="M1179.7 276.103C1179.3 280.284 1182.06 283.784 1186.49 284.211C1188.44 284.398 1190.66 283.852 1192.14 282.73L1191.19 280.641C1189.98 281.537 1188.38 282.03 1186.88 281.885C1184.34 281.641 1182.33 279.788 1182.48 276.736L1192.74 277.724C1192.83 277.339 1192.92 276.954 1192.96 276.592C1193.31 272.968 1191.48 269.782 1187.49 269.399C1183.48 269.012 1180.13 271.616 1179.7 276.103ZM1182.75 274.793C1183.37 272.49 1185.14 271.282 1187.23 271.484C1189.07 271.661 1190.45 273.088 1190.3 275.52L1182.75 274.793Z" fill="black"/>
<path d="M1195.22 277.569C1194.8 281.861 1197.9 285.31 1202.11 285.715C1206.29 286.117 1209.99 283.323 1210.41 279.031C1210.82 274.767 1207.72 271.346 1203.51 270.941C1199.33 270.538 1195.63 273.304 1195.22 277.569ZM1197.98 277.834C1198.26 274.908 1200.63 273.027 1203.31 273.284C1205.96 273.539 1207.96 275.842 1207.68 278.768C1207.39 281.722 1204.99 283.629 1202.34 283.374C1199.66 283.116 1197.69 280.789 1197.98 277.834Z" fill="black"/>
<path fill-rule="evenodd" clip-rule="evenodd" d="M495.99 -176.161L497.076 -176.175L497.113 -176.175L943.468 -181.918L1009.53 71.1585L1004.7 72.4214L939.619 -176.868L837.199 -175.551L846.453 -175.534L867.733 150.697L862.744 151.023L841.768 -170.542L498.212 -171.173L261.573 88.9031L257.874 85.5381L495.99 -176.161Z" fill="#E3FF34"/>
<path d="M566.623 832.952L569.328 833.196L569.879 827.089L571.915 827.273L575.574 833.76L578.781 834.05L574.173 826.24L574.178 826.184L579.498 819.889L576.431 819.612L572.068 824.953L570.088 824.774L570.602 819.085L567.897 818.841L566.623 832.952Z" fill="black"/>
<path d="M580.688 839.845L583.393 840.09L583.973 833.676C584.038 832.951 583.972 832.439 583.972 832.439L584.028 832.444C584.868 834.038 586.405 835.076 588.189 835.237C591.898 835.572 594.837 832.914 595.243 828.424C595.638 824.046 593.54 820.82 589.72 820.475C587.656 820.289 585.786 821.076 584.74 822.696L584.684 822.691C584.684 822.691 584.81 822.225 584.863 821.639L584.977 820.384L582.467 820.157L580.688 839.845ZM584.446 827.505C584.768 823.936 586.856 822.606 588.976 822.798C591.318 823.009 592.785 825.138 592.508 828.205C592.218 831.412 590.214 833.059 587.983 832.857C585.389 832.623 584.219 830.015 584.446 827.505Z" fill="black"/>
<path d="M597.658 828.643C597.28 832.826 600.057 836.31 604.491 836.71C606.443 836.887 608.659 836.328 610.138 835.196L609.174 833.113C607.968 834.016 606.376 834.519 604.87 834.383C602.333 834.154 600.306 832.312 600.441 829.26L610.703 830.187C610.795 829.801 610.886 829.416 610.918 829.053C611.246 825.428 609.396 822.253 605.408 821.893C601.393 821.53 598.063 824.153 597.658 828.643ZM600.701 827.315C601.303 825.008 603.072 823.79 605.164 823.979C607.004 824.145 608.394 825.564 608.259 827.998L600.701 827.315Z" fill="black"/>
<path d="M613.463 837.183L616.168 837.428L617.234 825.632L624.15 826.257L623.084 838.053L625.789 838.297L627.064 824.186L614.738 823.073L613.463 837.183Z" fill="black"/>
<path d="M629.966 838.674L632.671 838.919L633.223 832.812L635.259 832.996L638.918 839.483L642.125 839.773L637.517 831.963L637.522 831.907L642.842 825.612L639.774 825.335L635.412 830.676L633.432 830.497L633.946 824.808L631.241 824.564L629.966 838.674Z" fill="black"/>
<path d="M644.536 839.991L647.129 840.225L653.997 832.355C654.504 831.726 655.287 830.841 655.393 830.597L655.449 830.602C655.429 830.826 655.257 831.794 655.196 832.463L654.435 840.885L657.057 841.122L658.332 827.011L655.71 826.774L648.87 834.647C648.336 835.273 647.578 836.189 647.444 836.43L647.388 836.425C647.429 836.288 647.575 835.289 647.643 834.536L648.404 826.114L645.811 825.88L644.536 839.991Z" fill="black"/>
<path d="M668.842 826.33C671.017 826.527 673.085 825.42 673.292 823.134L673.329 822.715L671.182 822.521L671.149 822.884C671.036 824.139 669.977 824.662 669.001 824.573C668.025 824.485 667.104 823.784 667.215 822.557L667.25 822.166L665.075 821.97L665.037 822.388C664.831 824.675 666.695 826.136 668.842 826.33ZM661.202 841.496L663.796 841.731L670.664 833.861C671.17 833.232 671.953 832.347 672.059 832.103L672.115 832.108C672.095 832.331 671.923 833.3 671.863 833.969L671.102 842.391L673.723 842.628L674.998 828.517L672.377 828.28L665.537 836.153C665.002 836.779 664.245 837.695 664.11 837.936L664.055 837.931C664.095 837.794 664.242 836.795 664.31 836.042L665.07 827.62L662.477 827.386L661.202 841.496Z" fill="black"/>
<path d="M676.499 845.718L678.646 845.912L681.591 840.386L678.747 840.129L676.499 845.718Z" fill="black"/>
<path d="M691.853 844.266L694.474 844.502L695.846 836.164C695.977 835.332 696.037 833.735 696.037 833.735L696.093 833.74C696.093 833.74 696.443 834.84 696.796 835.912L699.508 843.242L701.822 843.451L705.806 836.698C706.434 835.659 706.885 834.715 706.885 834.715L706.941 834.72C706.941 834.72 706.741 836.305 706.694 837.144L706.549 845.593L709.17 845.83L709.218 831.609L706.262 831.342L701.86 838.985C701.42 839.816 700.908 840.81 700.908 840.81L700.853 840.805C700.853 840.805 700.558 839.71 700.243 838.838L697.366 830.538L694.354 830.266L691.853 844.266Z" fill="black"/>
<path d="M711.985 842.205C711.746 844.854 713.866 846.592 716.32 846.813C718.411 847.002 720.254 845.904 721.208 844.359L721.264 844.364C721.264 844.364 721.138 844.831 721.08 845.472L720.951 846.894L723.489 847.124L724.295 838.2C724.618 834.631 722.758 832.495 719.217 832.175C717.237 831.996 715.024 832.527 713.795 833.372L714.704 835.45C715.92 834.744 717.393 834.315 718.787 834.441C720.544 834.6 721.812 835.502 721.603 837.816L721.578 838.095L720.853 838.03C717.924 837.765 712.385 837.771 711.985 842.205ZM714.71 842.226C714.944 839.632 718.696 839.803 720.704 839.984L721.401 840.047L721.353 840.577C721.164 842.668 719.526 844.938 717.155 844.724C715.398 844.565 714.609 843.341 714.71 842.226Z" fill="black"/>
<path d="M725.941 847.486C730.116 847.638 732.031 844.494 732.607 838.108L732.799 835.988L736.954 836.364L735.881 848.243L738.586 848.488L739.861 834.377L730.407 833.523L730.014 837.873C729.553 842.977 728.251 844.939 726.16 845.06L725.941 847.486Z" fill="black"/>
<path d="M742.484 841.699C742.096 845.993 745.216 849.424 749.427 849.804C753.61 850.182 757.294 847.366 757.682 843.072C758.068 838.805 754.945 835.403 750.734 835.022C746.552 834.644 742.87 837.432 742.484 841.699ZM745.245 841.948C745.51 839.02 747.874 837.125 750.551 837.367C753.2 837.606 755.214 839.897 754.949 842.825C754.682 845.781 752.288 847.701 749.639 847.462C746.962 847.22 744.978 844.904 745.245 841.948Z" fill="black"/>
<path d="M760.303 850.45L763.007 850.694L763.559 844.587L765.595 844.771L769.254 851.258L772.461 851.548L767.853 843.738L767.858 843.682L773.178 837.387L770.111 837.11L765.748 842.451L763.768 842.272L764.282 836.583L761.577 836.339L760.303 850.45Z" fill="black"/>
<path d="M773.993 844.546C773.605 848.84 776.725 852.271 780.935 852.651C785.118 853.029 788.803 850.213 789.191 845.919C789.576 841.652 786.454 838.249 782.243 837.869C778.06 837.491 774.378 840.279 773.993 844.546ZM776.753 844.795C777.018 841.867 779.382 839.972 782.059 840.214C784.708 840.453 786.722 842.744 786.458 845.672C786.191 848.628 783.796 850.548 781.147 850.309C778.47 850.067 776.486 847.751 776.753 844.795Z" fill="black"/>
<path d="M791.811 853.296L794.516 853.541L795.063 847.489L802.202 848.134L801.655 854.186L804.36 854.43L805.635 840.319L802.93 840.075L802.411 845.82L795.272 845.175L795.791 839.43L793.086 839.186L791.811 853.296Z" fill="black"/>
<path d="M811.934 855.114L814.611 855.356L815.677 843.56L820.613 844.006L820.822 841.692L808.301 840.56L808.092 842.875L813 843.318L811.934 855.114Z" fill="black"/>
<path d="M821.699 861.619L824.404 861.864L824.983 855.45C825.049 854.725 824.983 854.213 824.983 854.213L825.038 854.218C825.878 855.812 827.415 856.85 829.2 857.012C832.909 857.347 835.848 854.688 836.254 850.199C836.649 845.82 834.551 842.595 830.73 842.249C828.667 842.063 826.796 842.85 825.75 844.47L825.695 844.465C825.695 844.465 825.821 843.999 825.874 843.413L825.987 842.158L823.478 841.932L821.699 861.619ZM825.456 849.279C825.779 845.71 827.867 844.38 829.986 844.572C832.329 844.784 833.795 846.912 833.518 849.98C833.228 853.187 831.224 854.833 828.993 854.631C826.4 854.397 825.23 851.789 825.456 849.279Z" fill="black"/>
<path d="M838.127 853.601C837.888 856.25 840.008 857.988 842.462 858.21C844.554 858.399 846.396 857.3 847.351 855.756L847.407 855.761C847.407 855.761 847.28 856.227 847.222 856.869L847.094 858.291L849.631 858.52L850.438 849.596C850.76 846.027 848.901 843.891 845.359 843.571C843.379 843.392 841.167 843.923 839.938 844.768L840.846 846.846C842.063 846.141 843.535 845.712 844.93 845.838C846.686 845.996 847.954 846.898 847.745 849.213L847.72 849.491L846.995 849.426C844.067 849.161 838.528 849.167 838.127 853.601ZM840.853 853.622C841.087 851.029 844.839 851.199 846.847 851.381L847.544 851.444L847.496 851.973C847.307 854.065 845.668 856.335 843.298 856.12C841.541 855.962 840.752 854.738 840.853 853.622Z" fill="black"/>
<path d="M853.347 851.743C852.964 855.982 855.774 859.412 860.236 859.816C862.439 860.015 864.667 859.316 866.073 858.066L865.165 855.987C863.974 857.033 862.205 857.632 860.643 857.491C857.715 857.226 855.85 854.837 856.11 851.964C856.369 849.092 858.627 847.131 861.471 847.388C862.949 847.522 864.367 848.325 865.229 849.358L866.683 847.578C865.473 846.035 863.44 845.205 861.571 845.036C857.138 844.635 853.724 847.56 853.347 851.743Z" fill="black"/>
<path d="M872.227 860.562L874.905 860.803L875.97 849.007L880.906 849.453L881.115 847.139L868.594 846.008L868.385 848.322L873.293 848.766L872.227 860.562Z" fill="black"/>
<path d="M882.496 861.489L885.201 861.734L885.748 855.682L892.887 856.327L892.34 862.379L895.045 862.623L896.32 848.512L893.615 848.268L893.096 854.013L885.957 853.368L886.476 847.623L883.771 847.379L882.496 861.489Z" fill="black"/>
<path d="M911.989 864.154L914.694 864.398L915.969 850.288L913.264 850.043L911.989 864.154ZM899.217 863L904.655 863.491C908.197 863.811 909.978 862.145 910.217 859.495C910.507 856.289 908.425 854.751 905.497 854.486L902.736 854.237L903.197 849.134L900.492 848.889L899.217 863ZM902.099 861.292L902.56 856.189L904.902 856.401C906.854 856.577 907.623 857.715 907.487 859.221C907.353 860.699 906.421 861.683 904.469 861.506L902.099 861.292Z" fill="black"/>
<path d="M926.519 849.61C928.694 849.807 930.762 848.7 930.969 846.414L931.006 845.995L928.859 845.801L928.826 846.164C928.713 847.419 927.654 847.942 926.678 847.853C925.702 847.765 924.781 847.064 924.892 845.837L924.927 845.446L922.752 845.25L922.714 845.668C922.508 847.955 924.372 849.416 926.519 849.61ZM918.879 864.776L921.473 865.011L928.341 857.141C928.847 856.512 929.63 855.627 929.737 855.383L929.792 855.388C929.772 855.611 929.6 856.58 929.54 857.249L928.779 865.671L931.4 865.908L932.675 851.797L930.054 851.56L923.214 859.433C922.679 860.059 921.922 860.975 921.787 861.216L921.732 861.211C921.772 861.074 921.919 860.075 921.987 859.322L922.748 850.9L920.154 850.666L918.879 864.776Z" fill="black"/>
<path d="M934.176 868.998L936.323 869.192L939.268 863.666L936.424 863.409L934.176 868.998Z" fill="black"/>
<path d="M950.115 867.598L952.82 867.843L953.886 856.047L960.021 856.601L960.23 854.286L951.39 853.488L950.115 867.598Z" fill="black"/>
<path d="M960.835 861.454C960.457 865.637 963.234 869.121 967.668 869.522C969.62 869.698 971.836 869.139 973.316 868.008L972.351 865.924C971.145 866.827 969.553 867.33 968.047 867.194C965.51 866.965 963.483 865.123 963.618 862.071L973.881 862.998C973.972 862.613 974.063 862.227 974.095 861.865C974.423 858.24 972.573 855.064 968.585 854.704C964.57 854.341 961.24 856.964 960.835 861.454ZM963.878 860.126C964.48 857.819 966.249 856.601 968.341 856.79C970.181 856.957 971.571 858.376 971.436 860.809L963.878 860.126Z" fill="black"/>
<path d="M976.36 862.828C975.972 867.123 979.092 870.554 983.303 870.934C987.486 871.312 991.17 868.496 991.558 864.202C991.943 859.935 988.821 856.532 984.61 856.152C980.427 855.774 976.745 858.562 976.36 862.828ZM979.121 863.078C979.385 860.15 981.749 858.255 984.426 858.497C987.076 858.736 989.09 861.027 988.825 863.955C988.558 866.911 986.163 868.831 983.514 868.592C980.837 868.35 978.854 866.034 979.121 863.078Z" fill="black"/>
<path d="M993.592 871.526L996.214 871.763L997.586 863.425C997.717 862.593 997.777 860.996 997.777 860.996L997.833 861.001C997.833 861.001 998.183 862.101 998.536 863.173L1001.25 870.503L1003.56 870.712L1007.55 863.959C1008.17 862.919 1008.62 861.976 1008.62 861.976L1008.68 861.981C1008.68 861.981 1008.48 863.566 1008.43 864.405L1008.29 872.854L1010.91 873.091L1010.96 858.869L1008 858.602L1003.6 866.245C1003.16 867.077 1002.65 868.071 1002.65 868.071L1002.59 868.066C1002.59 868.066 1002.3 866.971 1001.98 866.099L999.106 857.799L996.094 857.527L993.592 871.526Z" fill="black"/>
<path d="M1014.27 866.281C1013.89 870.464 1016.67 873.948 1021.1 874.349C1023.05 874.525 1025.27 873.966 1026.75 872.835L1025.78 870.752C1024.58 871.655 1022.98 872.157 1021.48 872.021C1018.94 871.792 1016.91 869.95 1017.05 866.898L1027.31 867.825C1027.4 867.44 1027.49 867.055 1027.53 866.692C1027.85 863.067 1026 859.891 1022.02 859.531C1018 859.168 1014.67 861.791 1014.27 866.281ZM1017.31 864.954C1017.91 862.646 1019.68 861.429 1021.77 861.618C1023.61 861.784 1025 863.203 1024.87 865.636L1017.31 864.954Z" fill="black"/>
<path d="M1033.31 875.115L1035.99 875.356L1037.05 863.56L1041.99 864.006L1042.2 861.692L1029.68 860.561L1029.47 862.875L1034.38 863.319L1033.31 875.115Z" fill="black"/>
<path d="M1043.07 881.62L1045.78 881.864L1046.36 875.45C1046.42 874.725 1046.36 874.213 1046.36 874.213L1046.41 874.218C1047.25 875.812 1048.79 876.851 1050.58 877.012C1054.28 877.347 1057.22 874.689 1057.63 870.199C1058.02 865.821 1055.93 862.595 1052.11 862.25C1050.04 862.063 1048.17 862.85 1047.13 864.471L1047.07 864.466C1047.07 864.466 1047.2 863.999 1047.25 863.413L1047.36 862.159L1044.85 861.932L1043.07 881.62ZM1046.83 869.28C1047.15 865.71 1049.24 864.381 1051.36 864.572C1053.7 864.784 1055.17 866.912 1054.89 869.98C1054.6 873.187 1052.6 874.833 1050.37 874.632C1047.78 874.397 1046.61 871.789 1046.83 869.28Z" fill="black"/>
<path d="M1060.33 877.555L1062.92 877.79L1069.79 869.92C1070.29 869.291 1071.08 868.406 1071.18 868.162L1071.24 868.167C1071.22 868.39 1071.05 869.359 1070.99 870.028L1070.23 878.45L1072.85 878.687L1074.12 864.576L1071.5 864.339L1064.66 872.212C1064.13 872.838 1063.37 873.754 1063.23 873.995L1063.18 873.99C1063.22 873.853 1063.37 872.854 1063.43 872.101L1064.19 863.679L1061.6 863.445L1060.33 877.555Z" fill="black"/>
<path d="M1081.28 874.501C1082.68 874.627 1084.26 874.291 1085.2 873.814L1085.25 873.819C1085.25 873.819 1085.19 874.263 1085.15 874.653L1084.69 879.757L1087.39 880.001L1088.67 865.89L1085.96 865.646L1085.44 871.502C1084.81 871.868 1083.62 872.35 1082.22 872.224C1079.91 872.015 1079.52 870.715 1079.64 869.32L1080.02 865.109L1077.38 864.87L1076.96 869.471C1076.69 872.483 1078.27 874.229 1081.28 874.501Z" fill="black"/>
<path d="M1091.31 873.242C1090.93 877.424 1093.71 880.909 1098.14 881.309C1100.09 881.486 1102.31 880.927 1103.79 879.795L1102.82 877.712C1101.62 878.615 1100.03 879.118 1098.52 878.982C1095.98 878.753 1093.96 876.911 1094.09 873.859L1104.35 874.786C1104.44 874.4 1104.54 874.015 1104.57 873.652C1104.9 870.027 1103.05 866.852 1099.06 866.492C1095.04 866.129 1091.71 868.752 1091.31 873.242ZM1094.35 871.914C1094.95 869.607 1096.72 868.389 1098.81 868.578C1100.65 868.744 1102.04 870.163 1101.91 872.597L1094.35 871.914Z" fill="black"/>
<path d="M1106.83 874.644C1106.45 878.883 1109.26 882.313 1113.72 882.717C1115.92 882.916 1118.15 882.217 1119.56 880.967L1118.65 878.889C1117.46 879.934 1115.69 880.533 1114.13 880.392C1111.2 880.127 1109.33 877.738 1109.59 874.865C1109.85 871.993 1112.11 870.032 1114.95 870.289C1116.43 870.423 1117.85 871.226 1118.71 872.259L1120.17 870.479C1118.96 868.936 1116.92 868.106 1115.05 867.937C1110.62 867.536 1107.21 870.461 1106.83 874.644Z" fill="black"/>
<path d="M1122.31 883.155L1125.01 883.4L1125.57 877.292L1127.6 877.476L1131.26 883.964L1134.47 884.254L1129.86 876.443L1129.86 876.388L1135.18 870.093L1132.12 869.816L1127.75 875.157L1125.77 874.978L1126.29 869.289L1123.58 869.045L1122.31 883.155Z" fill="black"/>
<path d="M1136.88 884.472L1139.47 884.706L1146.34 876.836C1146.85 876.207 1147.63 875.322 1147.74 875.078L1147.79 875.083C1147.77 875.306 1147.6 876.275 1147.54 876.944L1146.78 885.366L1149.4 885.603L1150.67 871.492L1148.05 871.255L1141.21 879.128C1140.68 879.754 1139.92 880.67 1139.79 880.911L1139.73 880.906C1139.77 880.769 1139.92 879.77 1139.99 879.017L1140.75 870.595L1138.15 870.361L1136.88 884.472Z" fill="black"/>
<path d="M1161.18 870.811C1163.36 871.008 1165.43 869.901 1165.63 867.615L1165.67 867.196L1163.52 867.002L1163.49 867.365C1163.38 868.62 1162.32 869.142 1161.34 869.054C1160.37 868.966 1159.45 868.264 1159.56 867.037L1159.59 866.647L1157.42 866.451L1157.38 866.869C1157.17 869.156 1159.04 870.617 1161.18 870.811ZM1153.54 885.977L1156.14 886.212L1163.01 878.342C1163.51 877.713 1164.3 876.828 1164.4 876.584L1164.46 876.589C1164.44 876.812 1164.27 877.781 1164.21 878.45L1163.44 886.872L1166.07 887.108L1167.34 872.998L1164.72 872.761L1157.88 880.634C1157.34 881.26 1156.59 882.176 1156.45 882.416L1156.4 882.411C1156.44 882.275 1156.58 881.276 1156.65 880.523L1157.41 872.101L1154.82 871.867L1153.54 885.977Z" fill="black"/>
<path d="M1168.84 890.199L1170.99 890.393L1173.93 884.867L1171.09 884.61L1168.84 890.199Z" fill="black"/>
<path d="M695.961 881.727L694.826 883.705C694.826 883.705 695.891 884.673 697.453 884.814C699.433 884.993 701.291 884.036 702.326 881.909L710.467 865.86L707.539 865.595L703.273 874.544C702.956 875.246 702.648 876.174 702.648 876.174L702.592 876.169C702.592 876.169 702.431 875.143 702.216 874.42L699.508 864.87L696.468 864.595L701.121 879.073L700.277 880.627C699.632 881.862 698.638 882.588 697.523 882.487C696.686 882.411 695.961 881.727 695.961 881.727Z" fill="black"/>
<path d="M713.801 878.138C715.837 875.51 716.423 871.515 716.615 869.396L716.683 868.643L720.922 869.026L720.047 878.702L713.801 878.138ZM709.283 877.73L708.779 883.307L711.317 883.536L711.619 880.19L722.077 881.135L721.774 884.481L724.256 884.705L724.76 879.128L722.752 878.947L723.826 867.067L714.288 866.205L714.054 868.799C713.858 870.974 713.236 875.36 711.012 877.886L709.283 877.73Z" fill="black"/>
<path d="M726.952 874.434C726.564 878.729 729.684 882.159 733.895 882.54C738.078 882.918 741.762 880.102 742.15 875.807C742.536 871.541 739.413 868.138 735.203 867.757C731.02 867.379 727.338 870.167 726.952 874.434ZM729.713 874.684C729.978 871.755 732.342 869.86 735.019 870.102C737.668 870.342 739.682 872.632 739.418 875.56C739.15 878.516 736.756 880.437 734.107 880.197C731.43 879.955 729.446 877.639 729.713 874.684Z" fill="black"/>
<path d="M744.89 875.014C744.449 879.895 746.274 883.658 751.043 884.089C755.03 884.449 757.959 881.902 758.312 877.998C758.672 874.011 756.445 871.279 752.904 870.959C751.035 870.79 749.111 871.235 747.685 873.018L747.629 873.013C748.069 870.326 749.556 868.801 752.489 867.773L758.103 866.003L757.412 863.691L752.168 865.41C747.073 867.031 745.346 869.967 744.89 875.014ZM747.548 877.026C747.772 874.544 749.642 872.829 752.04 873.046C754.16 873.237 755.824 875.046 755.574 877.807C755.327 880.54 753.369 881.994 751.138 881.792C748.963 881.596 747.296 879.814 747.548 877.026Z" fill="black"/>
<path d="M760.83 877.495C760.442 881.789 763.562 885.22 767.773 885.6C771.956 885.978 775.64 883.162 776.028 878.868C776.414 874.601 773.291 871.198 769.08 870.818C764.897 870.44 761.215 873.228 760.83 877.495ZM763.591 877.744C763.855 874.816 766.219 872.921 768.896 873.163C771.546 873.402 773.56 875.693 773.295 878.621C773.028 881.577 770.634 883.497 767.984 883.258C765.307 883.016 763.324 880.7 763.591 877.744Z" fill="black"/>
<path d="M782.94 881.685C784.334 881.811 785.911 881.476 786.854 880.999L786.909 881.004C786.909 881.004 786.841 881.447 786.806 881.838L786.345 886.941L789.05 887.185L790.325 873.075L787.62 872.83L787.091 878.687C786.467 879.052 785.271 879.534 783.877 879.408C781.562 879.199 781.173 877.899 781.299 876.505L781.68 872.294L779.031 872.054L778.615 876.656C778.343 879.667 779.928 881.413 782.94 881.685Z" fill="black"/>
<path d="M793.245 887.564L795.838 887.799L802.706 879.929C803.213 879.3 803.996 878.415 804.102 878.171L804.158 878.176C804.138 878.399 803.966 879.368 803.906 880.037L803.145 888.459L805.766 888.696L807.041 874.585L804.42 874.348L797.579 882.221C797.045 882.847 796.287 883.763 796.153 884.004L796.097 883.999C796.138 883.862 796.284 882.863 796.352 882.11L797.113 873.688L794.52 873.454L793.245 887.564Z" fill="black"/>
<path d="M813.314 889.377L815.991 889.619L817.056 877.823L821.992 878.269L822.201 875.955L809.68 874.823L809.471 877.138L814.379 877.581L813.314 889.377Z" fill="black"/>
<path d="M822.623 886.339C822.383 888.988 824.504 890.726 826.958 890.947C829.049 891.136 830.891 890.038 831.846 888.493L831.902 888.498C831.902 888.498 831.776 888.965 831.718 889.606L831.589 891.029L834.127 891.258L834.933 882.334C835.255 878.765 833.396 876.629 829.855 876.309C827.875 876.13 825.662 876.661 824.433 877.506L825.341 879.584C826.558 878.879 828.031 878.449 829.425 878.575C831.182 878.734 832.45 879.636 832.241 881.95L832.215 882.229L831.49 882.164C828.562 881.899 823.023 881.905 822.623 886.339ZM825.348 886.36C825.582 883.767 829.334 883.937 831.342 884.118L832.039 884.181L831.991 884.711C831.802 886.803 830.163 889.072 827.793 888.858C826.036 888.699 825.247 887.475 825.348 886.36Z" fill="black"/>
<path d="M837.842 884.481C837.464 888.664 840.242 892.148 844.676 892.548C846.628 892.725 848.843 892.166 850.323 891.034L849.358 888.951C848.152 889.854 846.561 890.357 845.055 890.221C842.517 889.992 840.49 888.15 840.626 885.098L850.888 886.025C850.979 885.639 851.07 885.254 851.103 884.891C851.43 881.266 849.58 878.091 845.593 877.731C841.577 877.368 838.248 879.991 837.842 884.481ZM840.886 883.153C841.488 880.846 843.256 879.628 845.348 879.817C847.188 879.983 848.578 881.402 848.443 883.836L840.886 883.153Z" fill="black"/>
<path d="M853.062 892.968L855.683 893.205L857.055 884.867C857.186 884.035 857.246 882.438 857.246 882.438L857.302 882.443C857.302 882.443 857.653 883.543 858.005 884.615L860.717 891.945L863.032 892.154L867.015 885.401C867.643 884.362 868.094 883.418 868.094 883.418L868.15 883.423C868.15 883.423 867.951 885.008 867.903 885.847L867.758 894.296L870.379 894.533L870.427 880.312L867.471 880.045L863.07 887.688C862.629 888.519 862.117 889.513 862.117 889.513L862.062 889.508C862.062 889.508 861.767 888.413 861.452 887.541L858.575 879.241L855.564 878.969L853.062 892.968Z" fill="black"/>
<path d="M886.79 896.016L889.495 896.26L890.769 882.149L888.064 881.905L886.79 896.016ZM874.018 894.862L879.455 895.353C882.997 895.673 884.778 894.007 885.018 891.357C885.307 888.15 883.225 886.613 880.297 886.348L877.536 886.099L877.997 880.996L875.292 880.751L874.018 894.862ZM876.899 893.154L877.36 888.051L879.702 888.263C881.655 888.439 882.423 889.577 882.287 891.083C882.154 892.56 881.221 893.545 879.269 893.368L876.899 893.154Z" fill="black"/>
<path d="M901.319 881.472C903.494 881.669 905.562 880.562 905.769 878.275L905.807 877.857L903.66 877.663L903.627 878.026C903.513 879.281 902.454 879.803 901.478 879.715C900.502 879.627 899.581 878.925 899.692 877.698L899.728 877.308L897.552 877.111L897.515 877.53C897.308 879.816 899.172 881.278 901.319 881.472ZM893.68 896.638L896.273 896.872L903.141 889.002C903.648 888.374 904.431 887.488 904.537 887.245L904.593 887.25C904.573 887.473 904.401 888.442 904.34 889.111L903.579 897.533L906.201 897.769L907.476 883.659L904.854 883.422L898.014 891.294C897.48 891.921 896.722 892.836 896.588 893.077L896.532 893.072C896.573 892.935 896.719 891.937 896.787 891.184L897.548 882.762L894.955 882.528L893.68 896.638Z" fill="black"/>
<path d="M917.318 898.774L935.556 900.421L936.83 886.311L934.237 886.077L933.174 897.845L927.959 897.374L929.022 885.605L926.401 885.369L925.338 897.137L920.123 896.666L921.186 884.898L918.593 884.663L917.318 898.774Z" fill="black"/>
<path d="M939.227 906.376L941.932 906.62L942.511 900.206C942.577 899.481 942.51 898.969 942.51 898.969L942.566 898.974C943.406 900.568 944.943 901.607 946.728 901.768C950.436 902.103 953.376 899.445 953.781 894.955C954.177 890.577 952.079 887.351 948.258 887.006C946.194 886.82 944.324 887.606 943.278 889.227L943.222 889.222C943.222 889.222 943.349 888.755 943.402 888.17L943.515 886.915L941.005 886.688L939.227 906.376ZM942.984 894.036C943.307 890.466 945.395 889.137 947.514 889.328C949.857 889.54 951.323 891.669 951.046 894.736C950.756 897.943 948.752 899.589 946.521 899.388C943.927 899.154 942.757 896.546 942.984 894.036Z" fill="black"/>
<path d="M956.479 902.312L959.072 902.546L965.94 894.676C966.447 894.047 967.23 893.162 967.336 892.919L967.392 892.924C967.371 893.147 967.2 894.115 967.139 894.784L966.378 903.206L969 903.443L970.274 889.332L967.653 889.096L960.813 896.968C960.279 897.594 959.521 898.51 959.387 898.751L959.331 898.746C959.372 898.609 959.518 897.61 959.586 896.857L960.347 888.436L957.753 888.201L956.479 902.312Z" fill="black"/>
<path d="M972.893 896.654C972.5 901.004 975.503 904.171 979.863 904.762L979.39 910.004L981.983 910.239L982.457 904.996C986.853 905.196 990.347 902.616 990.74 898.266C991.131 893.944 988.153 890.807 983.79 890.244L984.251 885.141L981.657 884.907L981.196 890.01C976.803 889.782 973.283 892.331 972.893 896.654ZM982.661 902.737L983.588 892.475C986.445 892.902 988.368 894.959 988.091 898.027C987.816 901.066 985.551 902.802 982.661 902.737ZM975.57 896.896C975.847 893.828 978.079 892.146 980.995 892.241L980.067 902.503C977.185 902.046 975.295 899.935 975.57 896.896Z" fill="black"/>
<path d="M996.318 905.911L998.995 906.153L1000.06 894.357L1005 894.803L1005.21 892.488L992.685 891.357L992.476 893.672L997.384 894.115L996.318 905.911Z" fill="black"/>
<path d="M1013.68 899.298C1013.24 904.178 1015.06 907.942 1019.83 908.373C1023.82 908.733 1026.75 906.186 1027.1 902.282C1027.46 898.294 1025.23 895.563 1021.69 895.243C1019.82 895.074 1017.9 895.519 1016.47 897.302L1016.42 897.297C1016.86 894.609 1018.34 893.085 1021.28 892.057L1026.89 890.287L1026.2 887.975L1020.96 889.694C1015.86 891.314 1014.13 894.251 1013.68 899.298ZM1016.34 901.31C1016.56 898.828 1018.43 897.113 1020.83 897.33C1022.95 897.521 1024.61 899.33 1024.36 902.091C1024.12 904.824 1022.16 906.277 1019.93 906.076C1017.75 905.879 1016.08 904.098 1016.34 901.31Z" fill="black"/>
<path d="M1029.62 901.806C1029.24 905.989 1032.02 909.473 1036.45 909.874C1038.4 910.05 1040.62 909.492 1042.1 908.36L1041.13 906.277C1039.93 907.18 1038.33 907.683 1036.83 907.547C1034.29 907.317 1032.26 905.476 1032.4 902.423L1042.66 903.351C1042.75 902.965 1042.84 902.58 1042.88 902.217C1043.2 898.592 1041.35 895.417 1037.37 895.056C1033.35 894.694 1030.02 897.317 1029.62 901.806ZM1032.66 900.479C1033.26 898.172 1035.03 896.954 1037.12 897.143C1038.96 897.309 1040.35 898.728 1040.22 901.162L1032.66 900.479Z" fill="black"/>
<path d="M1044.21 908.495C1045.28 909.716 1047.04 910.831 1049.21 911.027C1052.11 911.289 1054.75 910.038 1055.02 907.138C1055.18 905.325 1054.16 904.165 1052.78 903.59L1052.78 903.534C1053.94 903.161 1054.98 902.27 1055.14 900.514C1055.36 898.004 1053.39 896.504 1050.71 896.262C1048.48 896.061 1046.83 896.642 1045.67 897.353L1046.51 899.256C1047.67 898.546 1048.82 898.228 1050.05 898.339C1051.61 898.48 1052.49 899.291 1052.37 900.601C1052.25 902.024 1051.1 902.539 1049.51 902.395L1048.04 902.262L1047.86 904.214L1049.59 904.37C1051.57 904.549 1052.42 905.413 1052.29 906.779C1052.16 908.313 1050.77 908.975 1049.16 908.829C1047.46 908.676 1046.21 907.551 1045.63 906.824L1044.21 908.495Z" fill="black"/>
<path d="M1063.68 910.254C1064.75 911.475 1066.51 912.59 1068.68 912.786C1071.58 913.048 1074.23 911.797 1074.49 908.897C1074.65 907.084 1073.63 905.924 1072.25 905.349L1072.26 905.293C1073.41 904.92 1074.45 904.03 1074.61 902.273C1074.84 899.763 1072.86 898.263 1070.19 898.022C1067.95 897.82 1066.3 898.401 1065.14 899.112L1065.98 901.015C1067.14 900.305 1068.29 899.987 1069.52 900.098C1071.08 900.239 1071.96 901.05 1071.85 902.361C1071.72 903.783 1070.57 904.298 1068.98 904.154L1067.51 904.021L1067.33 905.973L1069.06 906.129C1071.04 906.308 1071.89 907.172 1071.77 908.538C1071.63 910.072 1070.25 910.735 1068.63 910.588C1066.93 910.435 1065.68 909.31 1065.1 908.583L1063.68 910.254Z" fill="black"/>
<path d="M1076.57 909.282C1076.33 911.931 1078.45 913.669 1080.9 913.89C1083 914.079 1084.84 912.981 1085.79 911.436L1085.85 911.441C1085.85 911.441 1085.72 911.908 1085.66 912.549L1085.54 913.971L1088.07 914.201L1088.88 905.277C1089.2 901.708 1087.34 899.572 1083.8 899.252C1081.82 899.073 1079.61 899.604 1078.38 900.449L1079.29 902.527C1080.5 901.821 1081.98 901.392 1083.37 901.518C1085.13 901.677 1086.4 902.579 1086.19 904.893L1086.16 905.172L1085.44 905.107C1082.51 904.842 1076.97 904.848 1076.57 909.282ZM1079.29 909.303C1079.53 906.709 1083.28 906.88 1085.29 907.061L1085.99 907.124L1085.94 907.654C1085.75 909.745 1084.11 912.015 1081.74 911.801C1079.98 911.642 1079.19 910.418 1079.29 909.303Z" fill="black"/>
<path d="M1091.79 907.423C1091.41 911.662 1094.22 915.093 1098.68 915.496C1100.88 915.695 1103.11 914.997 1104.51 913.746L1103.61 911.668C1102.42 912.713 1100.65 913.312 1099.08 913.171C1096.16 912.907 1094.29 910.517 1094.55 907.645C1094.81 904.773 1097.07 902.812 1099.91 903.069C1101.39 903.202 1102.81 904.005 1103.67 905.039L1105.12 903.259C1103.91 901.715 1101.88 900.885 1100.01 900.716C1095.58 900.316 1092.17 903.241 1091.79 907.423Z" fill="black"/>
<path d="M1106.66 908.767C1106.28 912.95 1109.06 916.434 1113.49 916.834C1115.44 917.011 1117.66 916.452 1119.14 915.32L1118.17 913.237C1116.97 914.14 1115.38 914.643 1113.87 914.507C1111.33 914.278 1109.31 912.436 1109.44 909.384L1119.7 910.311C1119.79 909.926 1119.89 909.54 1119.92 909.178C1120.25 905.552 1118.4 902.377 1114.41 902.017C1110.39 901.654 1107.06 904.277 1106.66 908.767ZM1109.7 907.439C1110.3 905.132 1112.07 903.914 1114.16 904.103C1116 904.27 1117.39 905.688 1117.26 908.122L1109.7 907.439Z" fill="black"/>
<path d="M1126.75 912.747C1128.15 912.873 1129.73 912.538 1130.67 912.061L1130.72 912.066C1130.72 912.066 1130.66 912.509 1130.62 912.9L1130.16 918.003L1132.86 918.247L1134.14 904.137L1131.43 903.892L1130.91 909.749C1130.28 910.114 1129.09 910.596 1127.69 910.47C1125.38 910.261 1124.99 908.961 1125.11 907.567L1125.49 903.356L1122.85 903.116L1122.43 907.718C1122.16 910.729 1123.74 912.475 1126.75 912.747Z" fill="black"/>
<path d="M1136.78 911.488C1136.4 915.671 1139.18 919.155 1143.61 919.556C1145.56 919.732 1147.78 919.173 1149.26 918.042L1148.29 915.958C1147.09 916.861 1145.5 917.364 1143.99 917.228C1141.45 916.999 1139.43 915.157 1139.56 912.105L1149.82 913.032C1149.91 912.647 1150 912.261 1150.04 911.899C1150.37 908.274 1148.52 905.098 1144.53 904.738C1140.51 904.375 1137.18 906.998 1136.78 911.488ZM1139.82 910.16C1140.42 907.853 1142.19 906.635 1144.28 906.824C1146.12 906.991 1147.51 908.41 1147.38 910.843L1139.82 910.16Z" fill="black"/>
<path d="M1152.58 920.029L1155.29 920.273L1155.84 914.166L1157.87 914.35L1161.53 920.838L1164.74 921.127L1160.13 913.317L1160.14 913.261L1165.46 906.966L1162.39 906.689L1158.03 912.03L1156.05 911.851L1156.56 906.163L1153.86 905.918L1152.58 920.029Z" fill="black"/>
<path d="M1165.78 924.061L1167.93 924.255L1170.87 918.729L1168.03 918.472L1165.78 924.061Z" fill="black"/>
<path d="M728.874 915.887L731.941 916.164L735.323 911.719C735.577 911.404 735.81 911.003 735.81 911.003L735.865 911.008C735.865 911.008 736.051 911.447 736.243 911.802L738.774 916.782L741.841 917.059L737.672 909.372L742.837 902.923L739.742 902.643L736.732 906.701C736.504 907.046 736.183 907.495 736.183 907.495L736.127 907.49C736.127 907.49 735.919 906.993 735.756 906.613L733.523 902.081L730.428 901.802L734.353 909.073L728.874 915.887Z" fill="black"/>
<path d="M743.664 910.082C743.276 914.377 746.396 917.808 750.607 918.188C754.79 918.566 758.474 915.75 758.862 911.455C759.248 907.189 756.125 903.786 751.914 903.406C747.731 903.028 744.05 905.816 743.664 910.082ZM746.425 910.332C746.689 907.404 749.053 905.509 751.731 905.751C754.38 905.99 756.394 908.281 756.129 911.209C755.862 914.165 753.468 916.085 750.819 915.846C748.141 915.604 746.158 913.288 746.425 910.332Z" fill="black"/>
<path d="M760.978 924.41L763.683 924.655L764.263 918.241C764.328 917.516 764.262 917.004 764.262 917.004L764.318 917.009C765.158 918.603 766.695 919.641 768.479 919.803C772.188 920.138 775.127 917.479 775.533 912.99C775.929 908.612 773.83 905.386 770.01 905.041C767.946 904.854 766.076 905.641 765.03 907.261L764.974 907.256C764.974 907.256 765.101 906.79 765.154 906.204L765.267 904.949L762.757 904.723L760.978 924.41ZM764.736 912.071C765.059 908.501 767.147 907.172 769.266 907.363C771.608 907.575 773.075 909.703 772.798 912.771C772.508 915.978 770.504 917.624 768.273 917.422C765.679 917.188 764.509 914.58 764.736 912.071Z" fill="black"/>
<path d="M777.95 913.18C777.562 917.475 780.682 920.905 784.893 921.286C789.076 921.664 792.76 918.848 793.148 914.553C793.534 910.286 790.411 906.884 786.2 906.503C782.017 906.125 778.336 908.913 777.95 913.18ZM780.711 913.429C780.975 910.501 783.34 908.606 786.017 908.848C788.666 909.088 790.68 911.378 790.415 914.306C790.148 917.262 787.754 919.182 785.105 918.943C782.428 918.701 780.444 916.385 780.711 913.429Z" fill="black"/>
<path d="M795.768 921.931L814.006 923.578L815.281 909.468L812.688 909.234L811.624 921.002L806.41 920.531L807.473 908.763L804.851 908.526L803.788 920.294L798.574 919.823L799.637 908.055L797.043 907.82L795.768 921.931Z" fill="black"/>
<path d="M817.901 916.789C817.513 921.084 820.633 924.515 824.844 924.895C829.027 925.273 832.711 922.457 833.099 918.162C833.484 913.896 830.362 910.493 826.151 910.113C821.968 909.735 818.286 912.523 817.901 916.789ZM820.662 917.039C820.926 914.111 823.29 912.216 825.967 912.458C828.616 912.697 830.631 914.987 830.366 917.916C830.099 920.871 827.704 922.792 825.055 922.552C822.378 922.311 820.394 919.995 820.662 917.039Z" fill="black"/>
<path d="M842.691 926.17L845.396 926.414L846.461 914.618L853.377 915.243L852.311 927.039L855.016 927.284L856.291 913.173L843.965 912.059L842.691 926.17Z" fill="black"/>
<path d="M858.913 920.495C858.525 924.789 861.645 928.22 865.856 928.6C870.039 928.978 873.724 926.162 874.112 921.868C874.497 917.601 871.374 914.198 867.164 913.818C862.981 913.44 859.299 916.228 858.913 920.495ZM861.674 920.744C861.939 917.816 864.303 915.921 866.98 916.163C869.629 916.402 871.643 918.693 871.379 921.621C871.112 924.577 868.717 926.497 866.068 926.258C863.391 926.016 861.407 923.7 861.674 920.744Z" fill="black"/>
<path d="M879.34 927.232C881.377 924.605 881.963 920.609 882.154 918.49L882.222 917.737L886.461 918.12L885.587 927.796L879.34 927.232ZM874.822 926.824L874.318 932.401L876.856 932.63L877.158 929.284L887.616 930.229L887.314 933.575L889.795 933.799L890.299 928.222L888.292 928.041L889.365 916.161L879.828 915.299L879.593 917.893C879.397 920.068 878.776 924.454 876.551 926.98L874.822 926.824Z" fill="black"/>
<path d="M891.318 930.563L894.385 930.84L897.767 926.395C898.02 926.08 898.253 925.679 898.253 925.679L898.309 925.685C898.309 925.685 898.494 926.123 898.687 926.478L901.217 931.458L904.285 931.735L900.116 924.048L905.281 917.599L902.186 917.319L899.176 921.377C898.948 921.722 898.627 922.171 898.627 922.171L898.571 922.166C898.571 922.166 898.363 921.669 898.2 921.289L895.967 916.758L892.872 916.478L896.797 923.749L891.318 930.563Z" fill="black"/>
<path d="M906.108 924.758C905.72 929.053 908.84 932.484 913.051 932.864C917.234 933.242 920.918 930.426 921.306 926.132C921.691 921.865 918.569 918.462 914.358 918.082C910.175 917.704 906.493 920.492 906.108 924.758ZM908.869 925.008C909.133 922.08 911.497 920.185 914.174 920.427C916.824 920.666 918.838 922.957 918.573 925.885C918.306 928.841 915.912 930.761 913.262 930.522C910.585 930.28 908.602 927.964 908.869 925.008Z" fill="black"/>
<path d="M926.534 931.496C928.571 928.868 929.157 924.873 929.349 922.754L929.417 922.001L933.655 922.384L932.781 932.06L926.534 931.496ZM922.017 931.088L921.513 936.665L924.051 936.894L924.353 933.548L934.81 934.493L934.508 937.839L936.99 938.063L937.494 932.486L935.486 932.304L936.559 920.425L927.022 919.563L926.788 922.157C926.591 924.332 925.97 928.718 923.746 931.244L922.017 931.088Z" fill="black"/>
<path d="M938.708 934.845L941.691 935.114L945.61 930.323L947.981 930.538L947.52 935.641L950.225 935.885L951.499 921.775L945.866 921.266C942.883 920.996 940.68 922.343 940.418 925.244C940.224 927.391 941.538 929.028 943.116 929.62L943.113 929.648C943.113 929.648 942.746 929.98 942.393 930.455L938.708 934.845ZM945.817 928.346C944.172 928.197 942.995 927.22 943.154 925.463C943.318 923.65 944.554 923.031 946.367 923.195L948.626 923.399L948.16 928.558L945.817 928.346Z" fill="black"/>
<path d="M954.4 936.262L972.163 937.867L971.861 941.214L974.343 941.438L974.857 935.749L972.849 935.568L973.912 923.8L971.319 923.565L970.256 935.333L965.041 934.862L966.104 923.094L963.483 922.857L962.42 934.625L957.205 934.154L958.268 922.386L955.675 922.152L954.4 936.262Z" fill="black"/>
<path d="M977.52 938.351L980.114 938.586L986.982 930.716C987.488 930.087 988.271 929.201 988.378 928.958L988.433 928.963C988.413 929.186 988.241 930.155 988.181 930.824L987.42 939.246L990.041 939.482L991.316 925.372L988.695 925.135L981.855 933.008C981.32 933.634 980.563 934.55 980.429 934.79L980.373 934.785C980.413 934.649 980.56 933.65 980.628 932.897L981.389 924.475L978.795 924.241L977.52 938.351Z" fill="black"/>
<path d="M1001.83 924.691C1004 924.887 1006.07 923.781 1006.28 921.494L1006.31 921.076L1004.17 920.882L1004.13 921.244C1004.02 922.499 1002.96 923.022 1001.99 922.934C1001.01 922.846 1000.09 922.144 1000.2 920.917L1000.23 920.527L998.06 920.33L998.022 920.749C997.815 923.035 999.679 924.497 1001.83 924.691ZM994.187 939.857L996.78 940.091L1003.65 932.221C1004.15 931.592 1004.94 930.707 1005.04 930.464L1005.1 930.469C1005.08 930.692 1004.91 931.66 1004.85 932.33L1004.09 940.751L1006.71 940.988L1007.98 926.878L1005.36 926.641L998.521 934.513C997.987 935.14 997.229 936.055 997.095 936.296L997.039 936.291C997.08 936.154 997.226 935.155 997.294 934.402L998.055 925.981L995.462 925.746L994.187 939.857Z" fill="black"/>
<path d="M1020.79 940.011C1022.82 937.384 1023.41 933.388 1023.6 931.269L1023.67 930.516L1027.91 930.899L1027.03 940.575L1020.79 940.011ZM1016.27 939.603L1015.77 945.18L1018.3 945.409L1018.61 942.063L1029.06 943.008L1028.76 946.354L1031.24 946.578L1031.75 941.001L1029.74 940.82L1030.81 928.94L1021.27 928.079L1021.04 930.672C1020.84 932.847 1020.22 937.233 1018 939.759L1016.27 939.603Z" fill="black"/>
<path d="M1032.84 943.489C1037.01 943.642 1038.93 940.497 1039.5 934.111L1039.69 931.992L1043.85 932.367L1042.78 944.247L1045.48 944.491L1046.76 930.381L1037.3 929.527L1036.91 933.877C1036.45 938.98 1035.15 940.943 1033.06 941.063L1032.84 943.489Z" fill="black"/>
<path d="M1048.24 944.74L1051.22 945.01L1055.14 940.219L1057.51 940.433L1057.05 945.536L1059.76 945.781L1061.03 931.67L1055.4 931.161C1052.41 930.892 1050.21 932.239 1049.95 935.139C1049.75 937.286 1051.07 938.923 1052.65 939.516L1052.64 939.544C1052.64 939.544 1052.28 939.876 1051.92 940.35L1048.24 944.74ZM1055.35 938.242C1053.7 938.093 1052.53 937.115 1052.68 935.358C1052.85 933.546 1054.08 932.926 1055.9 933.09L1058.16 933.294L1057.69 938.453L1055.35 938.242Z" fill="black"/>
<path d="M1069.36 946.789C1073.53 946.941 1075.45 943.797 1076.02 937.411L1076.21 935.291L1080.37 935.667L1079.3 947.546L1082 947.791L1083.28 933.68L1073.82 932.826L1073.43 937.176C1072.97 942.279 1071.67 944.242 1069.57 944.363L1069.36 946.789Z" fill="black"/>
<path d="M1086.18 948.168L1088.88 948.412L1089.42 942.445L1091.99 942.677C1092.16 946.403 1094.91 949.294 1098.64 949.631C1102.71 949.999 1106.26 947.171 1106.65 942.876C1107.03 938.61 1104.05 935.219 1099.95 934.849C1096.24 934.514 1093.02 936.838 1092.19 940.446L1089.63 940.214L1090.16 934.302L1087.45 934.058L1086.18 948.168ZM1094.71 941.798C1094.98 938.87 1097.2 936.962 1099.77 937.194C1102.3 937.423 1104.15 939.699 1103.89 942.627C1103.62 945.583 1101.39 947.518 1098.85 947.289C1096.29 947.057 1094.44 944.754 1094.71 941.798Z" fill="black"/>
<path d="M1109.39 942.084C1108.95 946.964 1110.78 950.728 1115.54 951.158C1119.53 951.519 1122.46 948.972 1122.81 945.068C1123.17 941.08 1120.95 938.349 1117.41 938.029C1115.54 937.86 1113.61 938.305 1112.19 940.087L1112.13 940.082C1112.57 937.395 1114.06 935.871 1116.99 934.842L1122.6 933.072L1121.91 930.761L1116.67 932.48C1111.58 934.1 1109.85 937.037 1109.39 942.084ZM1112.05 944.095C1112.27 941.613 1114.14 939.899 1116.54 940.115C1118.66 940.307 1120.33 942.116 1120.08 944.877C1119.83 947.61 1117.87 949.063 1115.64 948.862C1113.46 948.665 1111.8 946.884 1112.05 944.095Z" fill="black"/>
<path d="M1125.33 944.564C1124.94 948.859 1128.06 952.29 1132.28 952.67C1136.46 953.048 1140.14 950.232 1140.53 945.937C1140.92 941.671 1137.79 938.268 1133.58 937.888C1129.4 937.51 1125.72 940.298 1125.33 944.564ZM1128.09 944.814C1128.36 941.886 1130.72 939.991 1133.4 940.233C1136.05 940.472 1138.06 942.762 1137.8 945.691C1137.53 948.647 1135.14 950.567 1132.49 950.328C1129.81 950.086 1127.83 947.77 1128.09 944.814Z" fill="black"/>
<path d="M1143.15 953.315L1145.86 953.56L1146.92 941.764L1153.06 942.318L1153.27 940.003L1144.43 939.205L1143.15 953.315Z" fill="black"/>
<path d="M1153.87 947.143C1153.48 951.437 1156.6 954.868 1160.82 955.248C1165 955.626 1168.68 952.81 1169.07 948.516C1169.46 944.249 1166.33 940.847 1162.12 940.466C1157.94 940.088 1154.26 942.876 1153.87 947.143ZM1156.63 947.392C1156.9 944.464 1159.26 942.569 1161.94 942.811C1164.59 943.05 1166.6 945.341 1166.34 948.269C1166.07 951.225 1163.68 953.145 1161.03 952.906C1158.35 952.664 1156.37 950.348 1156.63 947.392Z" fill="black"/>
<path d="M612.122 937.229C614.159 934.601 614.745 930.606 614.936 928.486L615.004 927.733L619.243 928.116L618.369 937.793L612.122 937.229ZM607.605 936.82L607.101 942.398L609.638 942.627L609.941 939.281L620.398 940.225L620.096 943.572L622.578 943.796L623.082 938.219L621.074 938.037L622.147 926.158L612.61 925.296L612.376 927.889C612.179 930.065 611.558 934.45 609.334 936.977L607.605 936.82Z" fill="black"/>
<path d="M625.717 940.706L628.311 940.94L635.179 933.07C635.686 932.441 636.468 931.556 636.575 931.313L636.63 931.318C636.61 931.541 636.438 932.509 636.378 933.179L635.617 941.6L638.238 941.837L639.513 927.727L636.892 927.49L630.052 935.362C629.517 935.989 628.76 936.904 628.626 937.145L628.57 937.14C628.61 937.003 628.757 936.004 628.825 935.251L629.586 926.83L626.992 926.595L625.717 940.706Z" fill="black"/>
<path d="M642.101 935.073C641.718 939.312 644.529 942.743 648.991 943.146C651.194 943.345 653.422 942.647 654.828 941.396L653.919 939.318C652.728 940.363 650.959 940.962 649.398 940.821C646.469 940.557 644.605 938.167 644.864 935.295C645.124 932.422 647.381 930.462 650.226 930.719C651.704 930.852 653.121 931.655 653.984 932.689L655.438 930.908C654.228 929.365 652.194 928.535 650.326 928.366C645.892 927.966 642.479 930.89 642.101 935.073Z" fill="black"/>
<path d="M657.58 943.585L660.285 943.829L661.351 932.033L668.266 932.658L667.201 944.454L669.906 944.698L671.18 930.588L658.855 929.474L657.58 943.585Z" fill="black"/>
<path d="M672.537 945.076C676.712 945.229 678.627 942.084 679.203 935.698L679.395 933.579L683.55 933.954L682.477 945.834L685.182 946.078L686.457 931.968L677.003 931.114L676.61 935.464C676.149 940.567 674.847 942.53 672.756 942.65L672.537 945.076Z" fill="black"/>
<path d="M689.078 939.317C688.7 943.5 691.478 946.984 695.912 947.385C697.864 947.561 700.079 947.002 701.559 945.871L700.594 943.788C699.388 944.691 697.796 945.194 696.29 945.058C693.753 944.828 691.726 942.987 691.862 939.934L702.124 940.862C702.215 940.476 702.306 940.091 702.339 939.728C702.666 936.103 700.816 932.928 696.829 932.567C692.813 932.205 689.483 934.828 689.078 939.317ZM692.122 937.99C692.724 935.683 694.492 934.465 696.584 934.654C698.424 934.82 699.814 936.239 699.679 938.673L692.122 937.99Z" fill="black"/>
<path d="M712.523 932.692C714.698 932.889 716.766 931.782 716.973 929.495L717.01 929.077L714.863 928.883L714.83 929.246C714.717 930.501 713.658 931.023 712.682 930.935C711.706 930.847 710.785 930.145 710.896 928.918L710.931 928.528L708.756 928.331L708.718 928.75C708.512 931.036 710.376 932.498 712.523 932.692ZM704.883 947.858L707.477 948.092L714.345 940.223C714.851 939.594 715.634 938.708 715.741 938.465L715.796 938.47C715.776 938.693 715.604 939.662 715.544 940.331L714.783 948.753L717.404 948.989L718.679 934.879L716.058 934.642L709.218 942.515C708.683 943.141 707.926 944.057 707.791 944.297L707.736 944.292C707.776 944.155 707.923 943.157 707.991 942.404L708.752 933.982L706.158 933.748L704.883 947.858Z" fill="black"/>
<path d="M721.55 949.364L724.255 949.608L724.801 943.557L731.94 944.202L731.394 950.253L734.099 950.498L735.373 936.387L732.669 936.143L732.15 941.887L725.011 941.242L725.53 935.498L722.825 935.253L721.55 949.364Z" fill="black"/>
<path d="M737.99 943.708C737.602 948.003 740.722 951.433 744.933 951.814C749.116 952.192 752.801 949.376 753.189 945.081C753.574 940.815 750.452 937.412 746.241 937.032C742.058 936.654 738.376 939.442 737.99 943.708ZM740.751 943.958C741.016 941.03 743.38 939.135 746.057 939.377C748.706 939.616 750.72 941.906 750.456 944.834C750.189 947.79 747.794 949.711 745.145 949.471C742.468 949.23 740.484 946.914 740.751 943.958Z" fill="black"/>
<path d="M755.809 952.459L758.514 952.703L759.579 940.907L765.714 941.462L765.924 939.147L757.084 938.349L755.809 952.459Z" fill="black"/>
<path d="M766.53 946.287C766.142 950.581 769.262 954.012 773.473 954.392C777.656 954.77 781.341 951.954 781.729 947.66C782.114 943.393 778.992 939.99 774.781 939.61C770.598 939.232 766.916 942.02 766.53 946.287ZM769.291 946.536C769.556 943.608 771.92 941.713 774.597 941.955C777.246 942.194 779.26 944.485 778.996 947.413C778.729 950.369 776.334 952.289 773.685 952.05C771.008 951.808 769.024 949.492 769.291 946.536Z" fill="black"/>
<path d="M791.32 955.667L793.914 955.902L800.782 948.032C801.288 947.403 802.071 946.518 802.178 946.274L802.233 946.279C802.213 946.502 802.041 947.471 801.981 948.14L801.22 956.562L803.841 956.799L805.116 942.688L802.495 942.451L795.655 950.324C795.12 950.95 794.363 951.866 794.228 952.107L794.173 952.102C794.213 951.965 794.36 950.966 794.428 950.213L795.189 941.791L792.595 941.557L791.32 955.667Z" fill="black"/>
<path d="M806.44 957.174C810.616 957.326 812.53 954.182 813.107 947.796L813.299 945.676L817.454 946.052L816.381 957.931L819.086 958.176L820.36 944.065L810.907 943.211L810.514 947.562C810.053 952.665 808.751 954.628 806.66 954.748L806.44 957.174Z" fill="black"/>
<path d="M823.264 958.553L825.858 958.788L832.726 950.918C833.232 950.289 834.015 949.404 834.122 949.16L834.177 949.165C834.157 949.388 833.985 950.357 833.925 951.026L833.164 959.448L835.785 959.685L837.06 945.574L834.439 945.337L827.599 953.21C827.064 953.836 826.307 954.752 826.173 954.993L826.117 954.988C826.157 954.851 826.304 953.852 826.372 953.099L827.133 944.677L824.539 944.443L823.264 958.553Z" fill="black"/>
<path d="M850.305 960.996L852.982 961.238L854.047 949.442L858.983 949.888L859.192 947.574L846.671 946.442L846.462 948.757L851.37 949.2L850.305 960.996Z" fill="black"/>
<path d="M859.828 954.744C859.45 958.927 862.227 962.411 866.661 962.811C868.613 962.988 870.829 962.429 872.309 961.297L871.344 959.214C870.138 960.117 868.546 960.62 867.04 960.484C864.503 960.255 862.476 958.413 862.611 955.361L872.874 956.288C872.965 955.903 873.056 955.517 873.088 955.155C873.416 951.529 871.566 948.354 867.578 947.994C863.563 947.631 860.233 950.254 859.828 954.744ZM862.871 953.416C863.473 951.109 865.242 949.891 867.334 950.08C869.174 950.247 870.564 951.665 870.429 954.099L862.871 953.416Z" fill="black"/>
<path d="M875.633 963.285L878.338 963.529L878.89 957.422L880.926 957.606L884.585 964.093L887.792 964.383L883.184 956.573L883.189 956.517L888.509 950.222L885.441 949.945L881.079 955.286L879.099 955.107L879.613 949.419L876.908 949.174L875.633 963.285Z" fill="black"/>
<path d="M889.321 957.408C888.938 961.647 891.749 965.078 896.21 965.481C898.413 965.68 900.641 964.982 902.047 963.731L901.139 961.653C899.948 962.698 898.179 963.297 896.617 963.156C893.689 962.892 891.825 960.502 892.084 957.63C892.344 954.758 894.601 952.797 897.446 953.054C898.924 953.187 900.341 953.99 901.204 955.024L902.658 953.244C901.448 951.7 899.414 950.87 897.546 950.701C893.112 950.301 889.699 953.225 889.321 957.408Z" fill="black"/>
<path d="M908.202 966.227L910.879 966.469L911.944 954.673L916.88 955.119L917.089 952.804L904.568 951.673L904.359 953.988L909.267 954.431L908.202 966.227Z" fill="black"/>
<path d="M917.727 959.947C917.339 964.241 920.459 967.672 924.67 968.052C928.853 968.43 932.537 965.614 932.925 961.32C933.311 957.053 930.188 953.65 925.977 953.27C921.794 952.892 918.113 955.68 917.727 959.947ZM920.488 960.196C920.752 957.268 923.117 955.373 925.794 955.615C928.443 955.854 930.457 958.145 930.192 961.073C929.925 964.029 927.531 965.949 924.882 965.71C922.205 965.468 920.221 963.152 920.488 960.196Z" fill="black"/>
<path d="M935.545 968.697L941.569 969.242C944.636 969.519 946.882 968.316 947.119 965.695C947.26 964.133 946.463 962.683 944.744 962.106L944.746 962.078C946.079 961.637 946.91 960.531 947.034 959.164C947.248 956.794 945.493 955.37 942.648 955.113L936.82 954.587L935.545 968.697ZM938.986 960.799L939.356 956.7L941.922 956.931C943.623 957.085 944.371 957.828 944.255 959.11C944.137 960.421 943.253 961.184 941.635 961.038L938.986 960.799ZM938.422 967.046L938.822 962.612L941.695 962.871C943.563 963.04 944.519 963.97 944.393 965.364C944.275 966.675 943.274 967.484 941.322 967.308L938.422 967.046Z" fill="black"/>
<path d="M949.753 962.84C949.365 967.135 952.485 970.565 956.696 970.946C960.879 971.324 964.563 968.508 964.951 964.213C965.337 959.947 962.214 956.544 958.003 956.163C953.82 955.785 950.138 958.573 949.753 962.84ZM952.514 963.089C952.778 960.161 955.142 958.266 957.819 958.508C960.469 958.748 962.483 961.038 962.218 963.966C961.951 966.922 959.557 968.843 956.907 968.603C954.23 968.361 952.247 966.045 952.514 963.089Z" fill="black"/>
<path d="M967.571 971.591L970.276 971.835L971.342 960.039L977.477 960.594L977.686 958.279L968.846 957.48L967.571 971.591Z" fill="black"/>
<path d="M978.293 965.419C977.905 969.713 981.025 973.144 985.236 973.524C989.419 973.902 993.103 971.086 993.491 966.792C993.877 962.525 990.754 959.122 986.543 958.742C982.36 958.364 978.678 961.152 978.293 965.419ZM981.054 965.668C981.318 962.74 983.682 960.845 986.359 961.087C989.009 961.326 991.023 963.617 990.758 966.545C990.491 969.501 988.097 971.421 985.447 971.182C982.77 970.94 980.787 968.624 981.054 965.668Z" fill="black"/>
<path d="M1003.08 974.799L1005.79 975.044L1006.85 963.248L1013.77 963.872L1012.7 975.668L1015.41 975.913L1016.68 961.802L1004.36 960.689L1003.08 974.799Z" fill="black"/>
<path d="M1019.08 981.867L1021.79 982.112L1022.37 975.698C1022.43 974.973 1022.37 974.461 1022.37 974.461L1022.42 974.466C1023.26 976.06 1024.8 977.098 1026.58 977.26C1030.29 977.595 1033.23 974.936 1033.64 970.447C1034.03 966.069 1031.93 962.843 1028.11 962.497C1026.05 962.311 1024.18 963.098 1023.13 964.718L1023.08 964.713C1023.08 964.713 1023.2 964.247 1023.26 963.661L1023.37 962.406L1020.86 962.18L1019.08 981.867ZM1022.84 969.527C1023.16 965.958 1025.25 964.628 1027.37 964.82C1029.71 965.032 1031.18 967.16 1030.9 970.228C1030.61 973.435 1028.61 975.081 1026.38 974.879C1023.78 974.645 1022.61 972.037 1022.84 969.527Z" fill="black"/>
<path d="M1036.33 977.803L1038.93 978.038L1045.8 970.168C1046.3 969.539 1047.09 968.653 1047.19 968.41L1047.25 968.415C1047.23 968.638 1047.06 969.607 1046.99 970.276L1046.23 978.698L1048.86 978.934L1050.13 964.824L1047.51 964.587L1040.67 972.46C1040.13 973.086 1039.38 974.002 1039.24 974.242L1039.19 974.237C1039.23 974.101 1039.37 973.102 1039.44 972.349L1040.2 963.927L1037.61 963.693L1036.33 977.803Z" fill="black"/>
<path d="M1052.42 979.256L1055.04 979.493L1056.41 971.155C1056.54 970.323 1056.6 968.726 1056.6 968.726L1056.66 968.731C1056.66 968.731 1057.01 969.831 1057.36 970.903L1060.07 978.233L1062.38 978.442L1066.37 971.689C1067 970.649 1067.45 969.706 1067.45 969.706L1067.5 969.711C1067.5 969.711 1067.3 971.295 1067.26 972.135L1067.11 980.584L1069.73 980.821L1069.78 966.599L1066.82 966.332L1062.42 973.975C1061.98 974.807 1061.47 975.801 1061.47 975.801L1061.41 975.796C1061.41 975.796 1061.12 974.701 1060.81 973.829L1057.93 965.529L1054.92 965.256L1052.42 979.256Z" fill="black"/>
<path d="M1073.09 974.011C1072.71 978.194 1075.49 981.678 1079.92 982.079C1081.87 982.255 1084.09 981.696 1085.57 980.565L1084.6 978.481C1083.4 979.384 1081.81 979.887 1080.3 979.751C1077.76 979.522 1075.74 977.68 1075.87 974.628L1086.13 975.555C1086.22 975.17 1086.32 974.784 1086.35 974.422C1086.68 970.797 1084.83 967.621 1080.84 967.261C1076.82 966.898 1073.49 969.521 1073.09 974.011ZM1076.13 972.683C1076.73 970.376 1078.5 969.158 1080.59 969.347C1082.43 969.514 1083.82 970.933 1083.69 973.366L1076.13 972.683Z" fill="black"/>
<path d="M1088.89 982.552L1091.6 982.796L1092.15 976.745L1099.28 977.39L1098.74 983.441L1101.44 983.685L1102.72 969.575L1100.01 969.331L1099.49 975.075L1092.35 974.43L1092.87 968.686L1090.17 968.441L1088.89 982.552Z" fill="black"/>
<path d="M1105.33 976.924C1104.95 981.107 1107.73 984.591 1112.17 984.992C1114.12 985.168 1116.33 984.609 1117.81 983.478L1116.85 981.394C1115.64 982.298 1114.05 982.8 1112.54 982.664C1110.01 982.435 1107.98 980.593 1108.12 977.541L1118.38 978.468C1118.47 978.083 1118.56 977.697 1118.59 977.335C1118.92 973.71 1117.07 970.534 1113.08 970.174C1109.07 969.811 1105.74 972.434 1105.33 976.924ZM1108.38 975.597C1108.98 973.289 1110.75 972.072 1112.84 972.26C1114.68 972.427 1116.07 973.846 1115.93 976.279L1108.38 975.597Z" fill="black"/>
<path d="M1121.14 985.465L1123.84 985.709L1124.39 979.658L1131.53 980.303L1130.98 986.354L1133.69 986.599L1134.96 972.488L1132.26 972.244L1131.74 977.988L1124.6 977.343L1125.12 971.599L1122.41 971.354L1121.14 985.465Z" fill="black"/>
<path d="M1137.86 986.975L1140.45 987.21L1147.32 979.34C1147.83 978.711 1148.61 977.826 1148.72 977.582L1148.77 977.587C1148.75 977.81 1148.58 978.779 1148.52 979.448L1147.76 987.87L1150.38 988.107L1151.65 973.996L1149.03 973.759L1142.19 981.632C1141.66 982.258 1140.9 983.174 1140.77 983.415L1140.71 983.41C1140.75 983.273 1140.9 982.274 1140.97 981.521L1141.73 973.099L1139.13 972.865L1137.86 986.975Z" fill="black"/>
<path d="M1153.1 988.353L1156.09 988.622L1160.01 983.832L1162.38 984.046L1161.91 989.149L1164.62 989.393L1165.89 975.283L1160.26 974.774C1157.28 974.504 1155.08 975.852 1154.81 978.752C1154.62 980.899 1155.93 982.536 1157.51 983.128L1157.51 983.156C1157.51 983.156 1157.14 983.488 1156.79 983.963L1153.1 988.353ZM1160.21 981.854C1158.57 981.705 1157.39 980.728 1157.55 978.971C1157.71 977.158 1158.95 976.539 1160.76 976.703L1163.02 976.907L1162.55 982.066L1160.21 981.854Z" fill="black"/>
<path d="M1168.66 989.758L1171.56 990.02L1171.82 987.092L1168.92 986.83L1168.66 989.758Z" fill="black"/>
<path fill-rule="evenodd" clip-rule="evenodd" d="M95.8115 -12.3145L1377.39 103.782L1279.1 188.331L-47.208 57.8661L95.8115 -12.3145ZM96.7561 -7.20841L-29.2244 54.611L1277.46 183.146L1365.18 107.695L96.7561 -7.20841Z" fill="#E3FF34"/>
</svg>
