<svg width="1389" height="437" viewBox="0 0 1389 437" fill="none" xmlns="http://www.w3.org/2000/svg">
<path d="M659.787 95.8333C626.205 95.8333 597.095 110.964 580.724 136.833C580.887 134.386 581.001 131.622 581.001 128.667V103.933V101.433H578.501H548.136H545.636V103.933V246V366V432V434.5H548.136H579.903H582.403V432V369V318.133C582.403 313.863 582.232 310.048 582.008 306.882C592.518 322.822 607.314 334.539 624.594 341.008C634.683 344.785 645.601 346.767 656.984 346.767C688.286 346.767 715.26 334.335 734.377 312.305C753.471 290.301 764.595 258.882 764.595 221.067C764.595 184.477 754.789 153.189 736.704 130.996C718.577 108.75 692.277 95.8333 659.787 95.8333ZM63.8622 42.0333H120.224V338.667V341.167H122.724H154.958H157.458V338.667V42.0333L273.15 42.0333H275.65V39.5333V10.6V8.10001H273.15L54.5 8.10001H5H2.5V10.6L2.5 39.5333V42.0333H5H63.8622ZM270.997 338.667V341.167H273.497H305.263H307.763V338.667V239.267C307.763 216.263 313.186 190.242 324.998 170.063C336.77 149.952 354.737 135.833 380.009 135.833C382.271 135.833 384.773 135.947 386.873 136.117C387.923 136.202 388.852 136.299 389.589 136.401C389.957 136.451 390.262 136.501 390.5 136.547C390.619 136.57 390.713 136.591 390.785 136.608C390.821 136.617 390.848 136.624 390.868 136.63L390.891 136.636C390.896 136.638 390.899 136.639 390.898 136.639L394.188 137.734V134.267V103V101.048L392.294 100.575C388.313 99.5804 383.431 99.1 379.075 99.1C346.315 99.1 321.131 121.536 307.228 150.844C307.272 149.706 307.296 148.532 307.296 147.333V103.933V101.433H304.796H273.497H270.997V103.933V338.667ZM436.568 50.2667V52.7667H439.068H473.638H476.138V50.2667V10.6V8.10001H473.638H439.068L436.568 8.10001V10.6V50.2667ZM437.97 338.667V341.167H440.47H472.237H474.737V338.667V103.933V101.433H472.237H440.47H437.97V103.933V338.667ZM889.511 342.066L891.6 341.718V339.6V311.133V308.183L888.69 308.667C886.118 309.096 883.509 309.1 881.626 309.1C875.822 309.1 869.958 307.977 865.503 303.628C861.044 299.274 857.498 291.198 857.498 276.133V10.6V8.10001H854.998L823.231 8.10001H820.731V10.6V283.133C820.731 309.433 829.75 324.625 841.695 333.121C853.478 341.502 867.656 343.033 877.421 343.033C882.723 343.033 886.6 342.551 889.511 342.066ZM1134.22 313.445L1135.73 312.07L1134.68 310.319L1120.2 286.052L1118.64 283.438L1116.38 285.477C1097.66 302.351 1071.62 312.833 1046.58 312.833C1022.85 312.833 1001.07 304.749 985.06 289.49C969.536 274.695 959.282 253.004 958.066 224.967L1135.8 224.967H1138.09L1138.29 222.693C1138.76 217.565 1139.24 211.861 1139.24 206.6C1139.24 176.986 1130.82 149.313 1113.96 128.995C1097.05 108.618 1071.81 95.8333 1038.64 95.8333C1006.26 95.8333 976.522 107.613 954.88 129.292C933.226 150.983 919.813 182.44 919.813 221.533C919.813 295.294 974.235 346.767 1045.64 346.767C1077.06 346.767 1111.77 333.962 1134.22 313.445ZM1295.34 300.736L1293.99 302.478L1295.55 304.035C1323.14 331.596 1362.09 346.767 1400.56 346.767C1432.86 346.767 1458.62 336.676 1476.32 319.951C1494.03 303.222 1503.5 280.028 1503.5 254.2C1503.5 227.065 1492.94 207.955 1477.14 193.436C1461.47 179.024 1440.67 169.156 1420.24 160.266C1417.25 158.963 1414.27 157.683 1411.31 156.412C1393.91 148.939 1377.35 141.827 1364.48 132.783C1349.56 122.3 1339.99 109.499 1339.99 90.8667C1339.99 74.4454 1347.4 61.3935 1359.32 52.3774C1371.3 43.3192 1387.91 38.3 1406.17 38.3C1431.72 38.3 1459.59 49.2756 1476.86 65.6158L1479.14 67.7767L1480.73 65.0653L1496.62 37.9986L1497.63 36.2748L1496.17 34.9086C1473.19 13.3871 1438.89 2.5 1407.57 2.5C1378.13 2.5 1351.73 11.1548 1332.64 26.8084C1313.51 42.4957 1301.83 65.1315 1301.83 92.7334C1301.83 118.968 1312.42 137.468 1328.2 151.637C1343.87 165.696 1364.66 175.503 1385.06 184.56C1387.19 185.504 1389.31 186.44 1391.43 187.371C1409.74 195.446 1427.3 203.188 1440.79 213.195C1455.7 224.25 1465.33 237.842 1465.33 257.467C1465.33 273.768 1458.76 287.058 1447.61 296.318C1436.41 305.612 1420.43 310.967 1401.49 310.967C1369.55 310.967 1338.39 295.436 1318.22 275.744L1316.21 273.786L1314.5 276.003L1295.34 300.736ZM581.468 222C581.468 189.09 590.562 166.07 604.165 151.302C617.762 136.54 636.098 129.767 655.115 129.767C676.311 129.767 694.283 138.637 707.008 154.443C719.768 170.291 727.361 193.262 727.361 221.533C727.361 250.922 718.861 273.874 705.483 289.437C692.119 304.984 673.774 313.3 653.714 313.3C647.286 313.3 641.275 312.438 635.687 310.842C605.331 302.168 586.624 271.432 582.384 236.965C581.776 232.021 581.468 227.013 581.468 222ZM1101.88 194.767L959.849 194.767C968.038 150.693 1000.5 126.967 1037.7 126.967C1054.65 126.967 1070.21 132.713 1081.77 144.26C1092.91 155.385 1100.52 172.092 1101.88 194.767Z" fill="#E3FF34" stroke="black" stroke-width="5"/>
</svg>
