<svg width="1312" height="956" viewBox="0 0 1312 956" fill="none" xmlns="http://www.w3.org/2000/svg">
<path d="M1312 956V0L1232 35.5L1148 0L1067.5 35.5L984 0L905 35.5L820 0L735 35.5L656 0L576 35.5L492 0L407.5 35.5L328 0L249 35.5L164 0L77 35.5L0 0V956H1312Z" fill="black"/>
<path d="M83.5517 150.455L195 248.5M94.5862 248.5L195 150.455M83 226.043L139.828 139.5L195 226.043H83Z" stroke="#E3FF34" stroke-width="5"/>
<path d="M309 154L341.44 230H439.859L469 154" stroke="#E3FF34" stroke-width="5"/>
<path d="M623 158.5V231.5H703M623 158.5H703V231.5M623 158.5L703 231.5" stroke="#E3FF34" stroke-width="5"/>
<circle cx="897" cy="188" r="45.5" stroke="#E3FF34" stroke-width="5"/>
<path d="M956 231L847 144" stroke="#E3FF34" stroke-width="5"/>
<path d="M1229 236L1065.52 171.187M1060 224.367L1096.45 159H1199.73V224.367H1060Z" stroke="#E3FF34" stroke-width="5"/>
</svg>
