<svg width="1440" height="787" viewBox="0 0 1440 787" fill="none" xmlns="http://www.w3.org/2000/svg">
<path d="M-49.1014 525.416L-30.0215 482L212 588.359L192.92 631.776C161.881 622.629 146.509 658.687 174.102 674.598L155.022 718.014L-86.9998 611.654L-67.9199 568.238C-35.6892 577.908 -19.9158 538.242 -49.1014 525.416Z" fill="#E3FF34" stroke="black" stroke-width="5"/>
<path d="M-33.2859 562.196L-15.6165 570.038L-19.9733 579.854L-16.4998 581.396L-12.1431 571.58L-7.10909 573.814L-5.76856 570.793L-10.8026 568.559L-0.793286 546.007L-4.56878 544.331L-32.2805 559.931L-33.2859 562.196ZM-27.7671 561.03L-27.7224 560.929L-9.05586 550.776C-7.59119 549.919 -6.08749 548.839 -6.08749 548.839L-5.98681 548.884C-5.98681 548.884 -7.01483 550.657 -7.68509 552.167L-14.276 567.018L-27.7671 561.03Z" fill="black"/>
<path d="M-4.13702 586.883L-0.512539 588.491L30.5324 562.802L31.6048 560.386L8.59944 550.176L7.21423 553.297L23.7761 560.647C25.538 561.429 26.4384 561.708 26.4384 561.708L26.3938 561.809C26.3938 561.809 24.8341 562.744 23.0286 564.232L-4.13702 586.883Z" fill="black"/>
<path d="M20.3455 597.749L42.4951 607.579L43.8803 604.458L25.3552 596.236C29.6339 586.867 48.2418 593.138 53.5146 581.257C55.9722 575.72 53.8384 569.531 47.1432 566.559C42.3609 564.437 37.1329 565.491 33.5834 568.193L35.3687 571.095C38.3091 569.086 42.1449 568.318 45.4673 569.792C49.8972 571.758 51.5211 575.974 49.8007 579.85C45.5557 589.415 26.6681 582.96 21.1495 595.394C20.8368 596.099 20.6023 596.899 20.3455 597.749Z" fill="black"/>
<path d="M49.3641 610.628L53.492 612.46L55.3464 608.282L51.2185 606.45L49.3641 610.628Z" fill="black"/>
<path d="M72.4774 621.609C81.6896 625.698 88.3071 618.934 92.8425 608.715C97.3556 598.546 97.9323 589.101 88.7201 585.012C79.5582 580.946 72.9408 587.71 68.4276 597.879C63.8922 608.098 63.3155 617.543 72.4774 621.609ZM73.9296 618.337C67.2344 615.366 68.2763 607.995 72.0521 599.487C75.7833 591.08 80.5503 585.363 87.2455 588.334C93.9911 591.328 92.9492 598.699 89.2181 607.106C85.4422 615.613 80.6752 621.331 73.9296 618.337Z" fill="black"/>
<path d="M92.6534 624.779C94.2326 629.095 97.6065 632.762 101.734 634.594C108.43 637.566 115.597 634.721 118.278 628.68C121.674 621.029 116.219 615.535 111.879 613.367L127.806 605.854L128.834 603.539L108.144 594.356L106.759 597.477L120.049 603.375C121.911 604.202 122.985 604.498 122.985 604.498L122.941 604.599C122.941 604.599 121.655 605.052 120.207 605.735L106.744 612.173L106.684 614.617L109.151 615.712C113.732 617.745 116.871 622.211 114.659 627.195C112.649 631.725 107.46 633.098 103.231 631.221C99.5565 629.59 97.0047 626.108 96.0021 623.072L92.6534 624.779Z" fill="black"/>
<path d="M779.366 34.0162L809.254 3.96533L976.77 170.573L946.882 200.624C923.951 183.003 899.524 208.113 917.404 230.263L887.516 260.314L720 93.7062L749.888 63.6554C773.644 82.0962 799.567 54.1075 779.366 34.0162Z" fill="#E3FF34" stroke="black" stroke-width="5"/>
<path d="M785.071 93.5291L798.395 106.726L800.543 104.557L795.122 99.1886L817.324 76.7714L815.086 74.5547L804.053 74.5731L804.067 77.6359L809.253 77.6457C811.203 77.6363 811.932 77.3891 811.932 77.3891L812.002 77.4584C812.002 77.4584 811.309 78.0882 810.616 78.7877L792.744 96.8334L787.218 91.3609L785.071 93.5291Z" fill="black"/>
<path d="M803.175 111.46L805.694 113.953L839.781 102.338L841.444 100.659L825.461 84.8305L823.314 86.9988L834.82 98.3941C836.044 99.6064 836.708 100.125 836.708 100.125L836.638 100.195C836.638 100.195 835.039 100.481 833.058 101.152L803.175 111.46Z" fill="black"/>
<path d="M822.918 124.985C822.379 128.816 823.86 132.777 826.693 135.582C831.484 140.328 838.724 140.501 843.227 135.955C847.591 131.548 847.627 124.448 842.696 119.564C841.262 118.144 839.133 117.076 838.053 116.837L837.983 116.768C837.983 116.768 838.608 116.347 839.579 115.577L846.548 110.009L856.305 119.673L858.452 117.504L846.562 105.728L833.422 116.337L834.406 118.421C836.462 118.794 838.73 120.001 840.234 121.491C843.766 124.989 844.034 130.104 840.709 133.461C837.384 136.819 832.301 136.495 828.909 133.135C826.146 130.399 825.782 127.129 826.189 124.83L822.918 124.985Z" fill="black"/>
<path d="M840.002 147.933L842.87 150.773L845.745 147.87L842.877 145.03L840.002 147.933Z" fill="black"/>
<path d="M855.83 164.44C862.23 170.778 869.905 167.226 876.936 160.126C883.933 153.062 887.411 145.353 881.011 139.015C874.646 132.711 866.971 136.263 859.975 143.328C852.943 150.427 849.465 158.136 855.83 164.44ZM858.082 162.167C853.43 157.56 856.639 151.732 862.493 145.822C868.277 139.981 874.074 136.716 878.725 141.323C883.411 145.964 880.202 151.792 874.418 157.633C868.565 163.543 862.768 166.808 858.082 162.167Z" fill="black"/>
<path d="M877.415 185.817C883.815 192.155 891.49 188.603 898.521 181.503C905.517 174.439 908.995 166.73 902.595 160.392C896.23 154.088 888.556 157.64 881.559 164.705C874.528 171.804 871.05 179.513 877.415 185.817ZM879.666 183.544C875.015 178.937 878.224 173.109 884.077 167.199C889.861 161.358 895.658 158.093 900.309 162.7C904.996 167.341 901.787 173.169 896.003 179.01C890.149 184.92 884.352 188.185 879.666 183.544Z" fill="black"/>
<path d="M1307.27 275.122L1289.87 236.475L1505.3 139.485L1522.7 178.133C1498.06 193.261 1512.79 225.043 1539.86 216.25L1557.26 254.898L1341.83 351.887L1324.43 313.24C1350.13 297.634 1333.25 263.426 1307.27 275.122Z" fill="#E3FF34" stroke="black" stroke-width="5"/>
<path d="M1074.05 702.302L1063 661.578L1290.01 600L1301.06 640.724C1274.45 651.733 1283.96 685.29 1311.95 680.89L1323 721.613L1095.99 783.192L1084.94 742.468C1112.66 731.155 1101.42 694.876 1074.05 702.302Z" fill="#E3FF34" stroke="black" stroke-width="5"/>
<path d="M1142.02 722.994C1144.22 723.381 1146.46 723.197 1148.48 722.615C1158.75 719.667 1160.05 708.028 1157.67 699.738C1155.1 690.789 1148.45 685.561 1141.29 687.616C1135.5 689.279 1132.08 694.796 1134.05 701.626C1135.86 707.937 1141.37 711.148 1147.44 709.404C1150.83 708.43 1153.75 705.963 1154.72 703.134L1154.81 703.107C1156.05 709.736 1154.53 717.566 1147.6 719.554C1145.72 720.095 1143.66 720.023 1142.46 719.756L1142.02 722.994ZM1147.08 706.348C1142.55 707.646 1138.69 705.389 1137.34 700.679C1136.03 696.111 1137.71 692.009 1142.23 690.711C1147.18 689.291 1152.24 693.956 1153.51 698.384C1154.28 701.068 1151.55 705.063 1147.08 706.348Z" fill="black"/>
<path d="M1165.89 706.911C1167.62 712.94 1174.01 715.288 1179.94 713.584C1186.39 711.732 1189.66 706.053 1188.17 700.872C1187.18 697.434 1184.56 695.943 1181.43 695.159C1182.15 693.933 1184.41 689.36 1183.12 684.885C1181.66 679.799 1176.66 677.463 1170.53 679.22C1163.84 681.141 1161.66 686.151 1162.93 690.579C1163.81 693.64 1166.09 695.179 1168.83 696.023C1167.79 697.189 1164.35 701.542 1165.89 706.911ZM1178.37 694.611C1173.19 693.803 1167.48 693.965 1166.22 689.585C1165.37 686.618 1167.11 683.465 1171.35 682.248C1175.36 681.099 1178.85 682.441 1179.89 686.067C1180.97 689.836 1178.94 693.581 1178.37 694.611ZM1169.21 705.702C1167.98 701.416 1170.97 697.804 1171.9 696.773C1177.37 697.702 1183.54 697.358 1184.84 701.879C1185.93 705.694 1182.94 709.461 1179.03 710.583C1175.12 711.706 1170.44 709.988 1169.21 705.702Z" fill="black"/>
<path d="M1197.29 707.992L1201.15 706.883L1200.03 702.974L1196.16 704.083L1197.29 707.992Z" fill="black"/>
<path d="M1219.33 702.277C1227.94 699.802 1228.59 691.408 1225.85 681.846C1223.12 672.332 1218.11 665.56 1209.49 668.035C1200.92 670.496 1200.27 678.89 1203 688.405C1205.75 697.966 1210.75 704.738 1219.33 702.277ZM1218.45 699.215C1212.18 701.014 1208.68 695.391 1206.4 687.431C1204.14 679.565 1204.12 672.942 1210.39 671.143C1216.7 669.331 1220.2 674.954 1222.46 682.82C1224.74 690.78 1224.76 697.403 1218.45 699.215Z" fill="black"/>
<path d="M1235.09 692.703C1238.16 695.034 1242.32 695.675 1246.13 694.58C1252.59 692.727 1256.26 686.523 1254.5 680.4C1252.8 674.466 1246.65 670.98 1240.01 672.887C1238.08 673.441 1236.11 674.77 1235.38 675.592L1235.29 675.619C1235.29 675.619 1235.22 674.872 1235.03 673.654L1233.58 664.892L1246.72 661.119L1245.89 658.199L1229.87 662.796L1232.69 679.371L1234.98 679.53C1236.31 677.926 1238.46 676.544 1240.48 675.962C1245.24 674.597 1249.81 676.852 1251.11 681.374C1252.41 685.896 1249.66 690.153 1245.09 691.465C1241.37 692.533 1238.35 691.258 1236.55 689.786L1235.09 692.703Z" fill="black"/>
<path d="M132.168 509.712L128 463.235L387.079 440L391.247 486.476C360.153 493.329 364.023 531.703 395.358 532.316L399.526 578.792L140.448 602.027L136.279 555.551C168.648 548.584 163.411 506.91 132.168 509.712Z" fill="#E3FF34" stroke="black" stroke-width="5"/>
<path d="M185.57 529.639C186.51 539.784 192.665 546.887 200.921 546.122C207.558 545.506 212.342 540.165 211.632 532.503C210.947 525.11 205.625 520.542 198.718 521.182C194.779 521.547 191.108 523.629 189.524 526.497L189.416 526.507C189.383 519.109 192.705 510.909 200.529 510.184C202.471 510.004 204.783 510.279 206.261 510.959L207.359 507.537C205.1 506.658 202.627 506.398 200.199 506.623C188.489 507.708 184.684 520.088 185.57 529.639ZM200.812 542.594C194.283 543.199 190.262 536.225 189.902 532.34C189.522 528.239 193.794 525.013 198.435 524.583C203.615 524.102 207.34 527.295 207.845 532.745C208.33 537.979 205.56 542.154 200.812 542.594Z" fill="black"/>
<path d="M218.93 543.799L242.673 541.599L242.363 538.253L222.506 540.094C221.678 529.993 240.669 526.437 239.489 513.702C238.938 507.767 234.132 503.477 226.956 504.143C221.83 504.618 217.847 508.035 216.098 512.061L219.025 513.694C220.584 510.556 223.509 508.054 227.07 507.724C231.819 507.284 235.238 510.123 235.623 514.278C236.574 524.531 217.254 528.063 218.49 541.391C218.56 542.147 218.743 542.946 218.93 543.799Z" fill="black"/>
<path d="M248.236 530.307C248.876 537.214 255.33 541.078 262.129 540.448C269.522 539.763 274.237 534.265 273.686 528.329C273.321 524.39 270.781 522.231 267.54 520.735C268.573 519.551 271.965 515.046 271.49 509.92C270.95 504.092 265.993 500.524 258.979 501.174C251.316 501.885 247.915 506.88 248.385 511.952C248.71 515.46 250.868 517.6 253.672 519.082C252.3 520.134 247.666 524.156 248.236 530.307ZM264.324 519.509C258.865 517.566 252.623 516.567 252.158 511.548C251.842 508.149 254.388 505.083 259.245 504.633C263.831 504.208 267.353 506.385 267.738 510.54C268.138 514.856 265.157 518.507 264.324 519.509ZM252.096 529.677C251.641 524.767 255.634 521.458 256.854 520.528C262.603 522.662 269.38 523.558 269.86 528.738C270.265 533.109 266.234 536.585 261.755 537C257.276 537.415 252.551 534.587 252.096 529.677Z" fill="black"/>
<path d="M282.127 537.942L286.552 537.531L286.137 533.053L281.712 533.463L282.127 537.942Z" fill="black"/>
<path d="M293.646 536.874L314.205 534.968L313.895 531.623L305.531 532.398L302.325 497.81L298.872 498.13L291.082 507.451L293.677 509.605L297.353 505.237C298.724 503.586 299.032 502.795 299.032 502.795L299.14 502.785C299.14 502.785 299.181 503.816 299.281 504.895L301.862 532.738L293.336 533.528L293.646 536.874Z" fill="black"/>
<path d="M319.368 534.49L343.11 532.289L342.8 528.944L322.943 530.784C322.115 520.684 341.106 517.127 339.926 504.393C339.376 498.457 334.57 494.168 327.393 494.833C322.267 495.308 318.284 498.725 316.535 502.751L319.462 504.385C321.021 501.247 323.946 498.744 327.507 498.414C332.256 497.974 335.676 500.814 336.061 504.969C337.011 515.221 317.692 518.753 318.927 532.082C318.997 532.837 319.18 533.636 319.368 534.49Z" fill="black"/>
<path d="M1386.75 276.718C1390.14 278.588 1394.36 278.619 1398 276.975C1404.14 274.194 1406.89 267.493 1404.25 261.663C1401.69 256.014 1395.07 253.445 1388.75 256.308C1386.91 257.14 1385.15 258.747 1384.54 259.67L1384.45 259.711C1384.45 259.711 1384.28 258.977 1383.91 257.796L1381.2 249.298L1393.71 243.634L1392.45 240.854L1377.2 247.756L1382.42 263.818L1384.72 263.642C1385.8 261.856 1387.74 260.168 1389.67 259.295C1394.2 257.245 1399.07 258.82 1401.02 263.125C1402.97 267.43 1400.85 272.062 1396.5 274.031C1392.96 275.635 1389.77 274.807 1387.77 273.607L1386.75 276.718Z" fill="black"/>
<path d="M1414.28 268.952L1417.96 267.287L1416.28 263.566L1412.6 265.23L1414.28 268.952Z" fill="black"/>
<path d="M1435.35 260.061C1443.56 256.346 1442.98 247.909 1438.86 238.806C1434.76 229.749 1428.8 223.747 1420.6 227.462C1412.43 231.157 1413.01 239.594 1417.11 248.652C1421.23 257.755 1427.19 263.756 1435.35 260.061ZM1434.03 257.146C1428.07 259.846 1423.77 254.768 1420.34 247.19C1416.95 239.702 1415.97 233.122 1421.94 230.422C1427.94 227.702 1432.24 232.78 1435.63 240.268C1439.06 247.846 1440.04 254.426 1434.03 257.146Z" fill="black"/>
<path d="M1463.03 247.532C1471.23 243.817 1470.66 235.379 1466.54 226.277C1462.43 217.219 1456.48 211.218 1448.27 214.933C1440.11 218.628 1440.69 227.065 1444.79 236.123C1448.91 245.225 1454.87 251.226 1463.03 247.532ZM1461.71 244.617C1455.75 247.317 1451.45 242.239 1448.02 234.661C1444.63 227.173 1443.65 220.593 1449.61 217.893C1455.62 215.172 1459.92 220.25 1463.31 227.739C1466.74 235.316 1467.72 241.897 1461.71 244.617Z" fill="black"/>
</svg>
