<svg width="1312" height="34" viewBox="0 0 1312 34" fill="none" xmlns="http://www.w3.org/2000/svg">
<path d="M1.624 27H11.62V25.88H7.28V7.4H6.076L1.848 11.656L2.688 12.468L5.012 10.144C5.852 9.304 6.048 8.94 6.048 8.94H6.104C6.104 8.94 6.076 9.416 6.076 9.92V25.88H1.624V27ZM21.2282 27.336C26.2122 27.336 27.8362 22.884 27.8362 17.2C27.8362 11.544 26.2122 7.064 21.2282 7.064C16.2442 7.064 14.6202 11.544 14.6202 17.2C14.6202 22.884 16.2442 27.336 21.2282 27.336ZM21.2282 26.16C17.0562 26.16 15.8802 22.268 15.8802 17.2C15.8802 12.16 17.0562 8.24 21.2282 8.24C25.4002 8.24 26.5762 12.16 26.5762 17.2C26.5762 22.268 25.4002 26.16 21.2282 26.16ZM38.3727 27.336C43.3567 27.336 44.9807 22.884 44.9807 17.2C44.9807 11.544 43.3567 7.064 38.3727 7.064C33.3887 7.064 31.7647 11.544 31.7647 17.2C31.7647 22.884 33.3887 27.336 38.3727 27.336ZM38.3727 26.16C34.2007 26.16 33.0247 22.268 33.0247 17.2C33.0247 12.16 34.2007 8.24 38.3727 8.24C42.5447 8.24 43.7207 12.16 43.7207 17.2C43.7207 22.268 42.5447 26.16 38.3727 26.16Z" fill="black"/>
<path d="M315.372 24.648C316.996 26.328 319.32 27.336 321.616 27.336C325.34 27.336 328.084 24.536 328.084 21.176C328.084 16.92 324.416 15.492 321.952 15.38L327.804 8.604V7.316H316.296V9.052H323.688C324.724 9.052 325.284 8.968 325.284 8.968V9.024C325.284 9.024 324.78 9.5 324.248 10.116L319.32 15.884L319.796 17.032H321.168C323.716 17.032 326.096 18.46 326.096 21.232C326.096 23.752 323.968 25.46 321.616 25.46C319.572 25.46 317.668 24.368 316.576 23.164L315.372 24.648ZM338.347 27.336C343.471 27.336 345.151 22.828 345.151 17.144C345.151 11.488 343.471 6.98 338.347 6.98C333.251 6.98 331.571 11.488 331.571 17.144C331.571 22.828 333.251 27.336 338.347 27.336ZM338.347 25.516C334.623 25.516 333.587 21.876 333.587 17.144C333.587 12.468 334.623 8.828 338.347 8.828C342.099 8.828 343.135 12.468 343.135 17.144C343.135 21.876 342.099 25.516 338.347 25.516ZM355.628 27.336C360.752 27.336 362.432 22.828 362.432 17.144C362.432 11.488 360.752 6.98 355.628 6.98C350.532 6.98 348.852 11.488 348.852 17.144C348.852 22.828 350.532 27.336 355.628 27.336ZM355.628 25.516C351.904 25.516 350.868 21.876 350.868 17.144C350.868 12.468 351.904 8.828 355.628 8.828C359.38 8.828 360.416 12.468 360.416 17.144C360.416 21.876 359.38 25.516 355.628 25.516Z" fill="black"/>
<path d="M632.372 24.592C633.856 26.384 636.124 27.336 638.448 27.336C642.424 27.336 645.448 24.48 645.448 20.7C645.448 17.116 642.732 14.232 638.56 14.232C637.608 14.232 636.46 14.568 635.984 14.82H635.928C635.928 14.82 636.04 14.428 636.096 13.812L636.544 9.64H644.132V7.232H634.136L633.156 17.032L634.78 17.62C635.704 17.004 636.964 16.64 638.112 16.64C640.66 16.64 642.592 18.32 642.592 20.7C642.592 23.108 640.604 24.704 638.28 24.704C636.236 24.704 634.78 23.612 633.94 22.576L632.372 24.592ZM655.485 27.336C660.777 27.336 662.485 22.8 662.485 17.088C662.485 11.404 660.777 6.896 655.485 6.896C650.221 6.896 648.485 11.404 648.485 17.088C648.485 22.8 650.221 27.336 655.485 27.336ZM655.485 24.788C652.265 24.788 651.341 21.428 651.341 17.088C651.341 12.804 652.265 9.444 655.485 9.444C658.733 9.444 659.629 12.804 659.629 17.088C659.629 21.428 658.733 24.788 655.485 24.788ZM672.903 27.336C678.195 27.336 679.903 22.8 679.903 17.088C679.903 11.404 678.195 6.896 672.903 6.896C667.639 6.896 665.903 11.404 665.903 17.088C665.903 22.8 667.639 27.336 672.903 27.336ZM672.903 24.788C669.683 24.788 668.759 21.428 668.759 17.088C668.759 12.804 669.683 9.444 672.903 9.444C676.151 9.444 677.047 12.804 677.047 17.088C677.047 21.428 676.151 24.788 672.903 24.788Z" fill="black"/>
<path d="M965.268 27H969.02L977.728 9.64V7.12H964.064V10.228H972.548C973.556 10.228 973.864 10.172 973.864 10.172V10.228C973.864 10.228 973.36 10.816 972.716 12.048L965.268 27ZM987.105 27.336C992.537 27.336 994.301 22.744 994.301 17.032C994.301 11.32 992.537 6.784 987.105 6.784C981.673 6.784 979.881 11.32 979.881 17.032C979.881 22.744 981.673 27.336 987.105 27.336ZM987.105 24.032C984.389 24.032 983.605 20.952 983.605 17.032C983.605 13.168 984.389 10.116 987.105 10.116C989.821 10.116 990.605 13.168 990.605 17.032C990.605 20.952 989.821 24.032 987.105 24.032ZM1004.69 27.336C1010.12 27.336 1011.88 22.744 1011.88 17.032C1011.88 11.32 1010.12 6.784 1004.69 6.784C999.255 6.784 997.463 11.32 997.463 17.032C997.463 22.744 999.255 27.336 1004.69 27.336ZM1004.69 24.032C1001.97 24.032 1001.19 20.952 1001.19 17.032C1001.19 13.168 1001.97 10.116 1004.69 10.116C1007.4 10.116 1008.19 13.168 1008.19 17.032C1008.19 20.952 1007.4 24.032 1004.69 24.032Z" fill="black"/>
<path d="M1260.99 26.468C1262.33 27.112 1263.93 27.336 1265.41 27.336C1271.63 27.336 1274.96 21.652 1274.96 16.22C1274.96 9.696 1270.87 6.644 1266.84 6.644C1262.5 6.644 1260.01 10.004 1260.01 13.392C1260.01 16.836 1262.39 20.252 1266.56 20.252C1267.51 20.252 1268.86 19.916 1269.3 19.552H1269.36C1268.74 21.4 1267.4 22.856 1265.05 22.856C1264.07 22.856 1263.09 22.604 1262.3 22.268L1260.99 26.468ZM1267.85 16.304C1265.69 16.304 1264.82 14.792 1264.82 13.364C1264.82 12.188 1265.61 11.124 1266.84 11.124C1268.24 11.124 1269.92 12.72 1269.92 15.1C1269.92 16.024 1268.97 16.304 1267.85 16.304ZM1285.13 27.336C1290.81 27.336 1292.66 22.688 1292.66 16.948C1292.66 11.208 1290.81 6.644 1285.13 6.644C1279.45 6.644 1277.6 11.208 1277.6 16.948C1277.6 22.688 1279.45 27.336 1285.13 27.336ZM1285.13 22.856C1283.2 22.856 1282.64 20.224 1282.64 16.948C1282.64 13.7 1283.2 11.124 1285.13 11.124C1287.06 11.124 1287.62 13.7 1287.62 16.948C1287.62 20.224 1287.06 22.856 1285.13 22.856ZM1302.93 27.336C1308.62 27.336 1310.46 22.688 1310.46 16.948C1310.46 11.208 1308.62 6.644 1302.93 6.644C1297.25 6.644 1295.4 11.208 1295.4 16.948C1295.4 22.688 1297.25 27.336 1302.93 27.336ZM1302.93 22.856C1301 22.856 1300.44 20.224 1300.44 16.948C1300.44 13.7 1301 11.124 1302.93 11.124C1304.86 11.124 1305.42 13.7 1305.42 16.948C1305.42 20.224 1304.86 22.856 1302.93 22.856Z" fill="black"/>
</svg>
